SplineFontDB: 3.0
FontName: NovaFlat
FullName: Nova Flat
FamilyName: Nova Flat
Weight: Book
Copyright: Copyright (c) 2011, wmk69 (wmk69@o2.pl)\nwith Reserved Font Names 'NovaFlat' and 'Nova Flat'.\n\nThis Font Software is licensed under the SIL Open Font License, Version 1.1.\nThis license is available with a FAQ at:\nhttp://scripts.sil.org/OFL
Version: 2.000
ItalicAngle: 0
UnderlinePosition: -81
UnderlineWidth: 122
Ascent: 1638
Descent: 410
LayerCount: 2
Layer: 0 1 "Warstwa t+AUIA-a"  1
Layer: 1 1 "Plan pierwszy"  0
XUID: [1021 783 23647091 8360855]
FSType: 0
OS2Version: 3
OS2_WeightWidthSlopeOnly: 0
OS2_UseTypoMetrics: 1
CreationTime: 1260698820
ModificationTime: 1313258026
PfmFamily: 33
TTFWeight: 400
TTFWidth: 5
LineGap: 0
VLineGap: 0
Panose: 2 12 5 4 2 4 4 6 2 4
OS2TypoAscent: 1966
OS2TypoAOffset: 0
OS2TypoDescent: -506
OS2TypoDOffset: 0
OS2TypoLinegap: 0
OS2WinAscent: 1966
OS2WinAOffset: 0
OS2WinDescent: 506
OS2WinDOffset: 0
HheadAscent: 1966
HheadAOffset: 0
HheadDescent: -506
HheadDOffset: 0
OS2SubXSize: 1434
OS2SubYSize: 1331
OS2SubXOff: 0
OS2SubYOff: 287
OS2SupXSize: 1434
OS2SupYSize: 1331
OS2SupXOff: 0
OS2SupYOff: 977
OS2StrikeYSize: 102
OS2StrikeYPos: 512
OS2Vendor: '    '
OS2CodePages: 20000093.00000000
OS2UnicodeRanges: 8000002f.4000204b.00000000.00000000
Lookup: 258 0 0 "'kern' Kerning poziomy w tablicy 0"  {"Podtablica 'kern' Kerning poziomy w tablicy 0"  } ['kern' ('DFLT' <'dflt' > 'grek' <'dflt' > 'latn' <'dflt' > ) ]
DEI: 91125
KernClass2: 28 18 "Podtablica 'kern' Kerning poziomy w tablicy 0" 
 380 A C G M N O Q S Agrave Aacute Acircumflex Atilde Adieresis Aring Ccedilla Ntilde Ograve Oacute Ocircumflex Otilde Odieresis Oslash Amacron Abreve Aogonek Cacute Ccircumflex Cdotaccent Ccaron Gcircumflex Gbreve Gdotaccent Gcommaaccent Nacute Ncommaaccent Ncaron Eng Omacron Obreve Ohungarumlaut OE Sacute Scircumflex Scedilla Scaron uni01E4 Scommaaccent uni1E40 uni1E60 Oslashacute
 20 B germandbls uni1E02
 27 D Eth Dcaron Dcroat uni1E0A

StartChar: .notdef
Encoding: 65536 -1 0
Width: 894
Flags: W
HStem: 0 118<268 626> 1392 118<268 626>
VStem: 150 118<118 1392> 626 118<118 1392>
LayerCount: 2
Fore
SplineSet
150 0 m 1,0,-1
 150 1510 l 1,1,-1
 744 1510 l 1,2,-1
 744 0 l 1,3,-1
 150 0 l 1,0,-1
268 1392 m 1,4,-1
 268 118 l 1,5,-1
 626 118 l 1,6,-1
 626 1392 l 1,7,-1
 268 1392 l 1,4,-1
EndSplineSet
Validated: 3073
EndChar

StartChar: exclam
Encoding: 33 33 4
Width: 600
GlyphClass: 2
Flags: W
HStem: -20 245<216.097 383.903> 1530 20G<347.778 400>
VStem: 180 240<17.1285 187.871> 200 200<510 1460>
LayerCount: 2
Fore
SplineSet
180 102.5 m 128,-1,1
 180 153 180 153 215 189 c 128,-1,2
 250 225 250 225 300 225 c 128,-1,3
 350 225 350 225 385 189 c 128,-1,4
 420 153 420 153 420 102.5 c 128,-1,5
 420 52 420 52 385 16 c 128,-1,6
 350 -20 350 -20 300 -20 c 128,-1,7
 250 -20 250 -20 215 16 c 128,-1,0
 180 52 180 52 180 102.5 c 128,-1,1
390 1550 m 1,8,-1
 400 1550 l 1,9,-1
 400 510 l 1,10,-1
 210 420 l 1,11,-1
 200 420 l 1,12,-1
 200 1460 l 1,13,-1
 390 1550 l 1,8,-1
EndSplineSet
Validated: 1
EndChar

StartChar: quotedbl
Encoding: 34 34 5
Width: 747
GlyphClass: 2
Flags: W
HStem: 992 558
VStem: 150 166<1066 1476> 431 166<1066 1476>
LayerCount: 2
Fore
SplineSet
587 1550 m 1,0,-1
 597 1550 l 1,1,-1
 597 1066 l 1,2,-1
 441 992 l 1,3,-1
 431 992 l 1,4,-1
 431 1476 l 1,5,-1
 587 1550 l 1,0,-1
306 1550 m 1,6,-1
 316 1550 l 1,7,-1
 316 1066 l 1,8,-1
 160 992 l 1,9,-1
 150 992 l 1,10,-1
 150 1476 l 1,11,-1
 306 1550 l 1,6,-1
EndSplineSet
Validated: 3073
EndChar

StartChar: numbersign
Encoding: 35 35 6
Width: 1368
GlyphClass: 2
Flags: W
HStem: 520 182<231 448 630 738 920 1137> 810 182<231 448 630 738 920 1137>
VStem: 448 182<303 520 702 810 992 1209> 738 182<303 520 702 810 992 1209>
LayerCount: 2
Fore
SplineSet
458 222 m 1,0,-1
 448 222 l 1,1,-1
 448 520 l 1,2,-1
 150 520 l 1,3,-1
 150 530 l 1,4,-1
 231 702 l 1,5,-1
 448 702 l 1,6,-1
 448 810 l 1,7,-1
 150 810 l 1,8,-1
 150 820 l 1,9,-1
 231 992 l 1,10,-1
 448 992 l 1,11,-1
 448 1209 l 1,12,-1
 620 1290 l 1,13,-1
 630 1290 l 1,14,-1
 630 992 l 1,15,-1
 738 992 l 1,16,-1
 738 1209 l 1,17,-1
 910 1290 l 1,18,-1
 920 1290 l 1,19,-1
 920 992 l 1,20,-1
 1218 992 l 1,21,-1
 1218 982 l 1,22,-1
 1137 810 l 1,23,-1
 920 810 l 1,24,-1
 920 702 l 1,25,-1
 1218 702 l 1,26,-1
 1218 692 l 1,27,-1
 1137 520 l 1,28,-1
 920 520 l 1,29,-1
 920 303 l 1,30,-1
 748 222 l 1,31,-1
 738 222 l 1,32,-1
 738 520 l 1,33,-1
 630 520 l 1,34,-1
 630 303 l 1,35,-1
 458 222 l 1,0,-1
630 702 m 1,36,-1
 738 702 l 1,37,-1
 738 810 l 1,38,-1
 630 810 l 1,39,-1
 630 702 l 1,36,-1
EndSplineSet
Validated: 3073
EndChar

StartChar: dollar
Encoding: 36 36 7
Width: 1330
GlyphClass: 2
Flags: W
HStem: -18 181<449.39 607 723 880.638> 753 181<474.219 607 723 870.533> 1347 181<474.219 607 723 855.781>
VStem: 160 200<234.538 460> 250 200<967.819 1313.38> 607 116<-190 -13.7695 163 748 934 1347 1523.46 1700> 880 200<1157 1313.38> 970 200<234.88 676.462>
LayerCount: 2
Fore
SplineSet
160 460 m 1,0,-1
 350 550 l 1,1,-1
 360 550 l 1,2,-1
 360 310 l 2,3,4
 360 240 360 240 481 193 c 0,5,6
 540 170 540 170 607 163 c 1,7,-1
 607 753 l 1,8,9
 514 760 514 760 437 790 c 0,10,11
 250 864 250 864 250 996 c 2,12,-1
 250 1285 l 2,13,14
 250 1418 250 1418 437 1491 c 0,15,16
 514 1521 514 1521 607 1528 c 1,17,-1
 607 1700 l 1,18,-1
 713 1750 l 1,19,-1
 723 1750 l 1,20,-1
 723 1528 l 1,21,22
 816 1521 816 1521 893 1491 c 0,23,24
 1080 1418 1080 1418 1080 1285 c 2,25,-1
 1080 1157 l 1,26,-1
 890 1067 l 1,27,-1
 880 1067 l 1,28,-1
 880 1250 l 2,29,30
 880 1300 880 1300 818 1325 c 0,31,32
 776 1342 776 1342 723 1347 c 1,33,-1
 723 929 l 1,34,35
 840 921 840 921 943 878 c 0,36,37
 1170 783 1170 783 1170 601 c 2,38,-1
 1170 310 l 2,39,40
 1170 129 1170 129 943 33 c 0,41,42
 841 -10 841 -10 723 -18 c 1,43,-1
 723 -190 l 1,44,-1
 617 -240 l 1,45,-1
 607 -240 l 1,46,-1
 607 -18 l 1,47,48
 490 -10 490 -10 387 33 c 0,49,50
 160 128 160 128 160 310 c 2,51,-1
 160 460 l 1,0,-1
607 934 m 1,52,-1
 607 1347 l 1,53,54
 554 1342 554 1342 512 1325 c 0,55,56
 450 1299 450 1299 450 1250 c 2,57,-1
 450 1031 l 2,58,59
 450 982 450 982 512 956 c 0,60,61
 554 939 554 939 607 934 c 1,52,-1
723 748 m 1,62,-1
 723 163 l 1,63,64
 790 170 790 170 849 193 c 0,65,66
 970 240 970 240 970 310 c 2,67,-1
 970 601 l 2,68,69
 970 671 970 671 849 718 c 0,70,71
 790 741 790 741 723 748 c 1,62,-1
EndSplineSet
Validated: 1
EndChar

StartChar: percent
Encoding: 37 37 8
Width: 2144
GlyphClass: 2
Flags: W
HStem: -40 21G<746.529 807.317> -20 180<1392.17 1765.34> 600 180<1392.66 1765.83> 730 180<378.173 751.341> 1350 180<378.659 751.827> 1530 20G<1346.68 1407.47>
VStem: 150 200<946.819 1313.57> 780 200<946.429 1316.58> 1164 200<196.819 563.571> 1794 200<196.429 566.577>
DStem2: 647 28 798 -40 0.422266 0.906472<2.12205 1679.04>
LayerCount: 2
Fore
SplineSet
1364 260 m 2,0,1
 1364 210 1364 210 1426.5 185 c 128,-1,2
 1489 160 1489 160 1579 160 c 128,-1,3
 1669 160 1669 160 1731.5 185 c 128,-1,4
 1794 210 1794 210 1794 260 c 10,5,-1
 1794 500 l 2,6,7
 1794 550 1794 550 1731.5 575 c 128,-1,8
 1669 600 1669 600 1579 600 c 128,-1,9
 1489 600 1489 600 1426.5 575 c 128,-1,10
 1364 550 1364 550 1364 500 c 2,11,-1
 1364 260 l 2,0,1
1164 225 m 2,12,-1
 1164 535 l 2,13,14
 1164 669 1164 669 1351 741 c 0,15,16
 1452 780 1452 780 1579 780 c 0,17,18
 1709 780 1709 780 1807 741 c 0,19,20
 1994 666 1994 666 1994 535 c 2,21,-1
 1994 225 l 2,22,23
 1994 91 1994 91 1807 19 c 0,24,25
 1706 -20 1706 -20 1579 -20 c 0,26,27
 1449 -20 1449 -20 1351 19 c 0,28,29
 1164 93 1164 93 1164 225 c 2,12,-1
350 1010 m 2,30,31
 350 960 350 960 412.5 935 c 128,-1,32
 475 910 475 910 565 910 c 128,-1,33
 655 910 655 910 717.5 935 c 128,-1,34
 780 960 780 960 780 1010 c 10,35,-1
 780 1250 l 2,36,37
 780 1300 780 1300 717.5 1325 c 128,-1,38
 655 1350 655 1350 565 1350 c 128,-1,39
 475 1350 475 1350 412.5 1325 c 128,-1,40
 350 1300 350 1300 350 1250 c 2,41,-1
 350 1010 l 2,30,31
150 975 m 2,42,-1
 150 1285 l 2,43,44
 150 1419 150 1419 337 1491 c 0,45,46
 438 1530 438 1530 565 1530 c 0,47,48
 695 1530 695 1530 793 1491 c 0,49,50
 980 1416 980 1416 980 1285 c 2,51,-1
 980 975 l 2,52,53
 980 841 980 841 793 769 c 0,54,55
 692 730 692 730 565 730 c 0,56,57
 435 730 435 730 337 769 c 0,58,59
 150 843 150 843 150 975 c 2,42,-1
788 -40 m 1,60,-1
 647 28 l 1,61,-1
 1356 1550 l 1,62,-1
 1366 1550 l 1,63,-1
 1507 1482 l 1,64,-1
 798 -40 l 1,65,-1
 788 -40 l 1,60,-1
EndSplineSet
Validated: 1
EndChar

StartChar: ampersand
Encoding: 38 38 9
Width: 1720
GlyphClass: 2
Flags: W
HStem: -40 21G<1359.33 1428.44> -20 180<455.979 786.405> 751 163<529.516 724.878> 1350 180<519.297 820.456>
VStem: 160 200<235.222 673.561> 250 200<982.562 1292.11> 880 200<1137 1291.33>
DStem2: 830 914 726 747 0.641913 -0.766778<19.5968 460.162 660.238 1081.99> 1006 416 849 -20 0.647701 0.761894<-347.66 -35.7999 186.142 571.067> 1376 896 1558 814 0.647701 0.761894<-419.217 0>
LayerCount: 2
Fore
SplineSet
849 -20 m 9,0,1
 757 -20 757 -20 665 -20 c 0,2,3
 512 -20 512 -20 387 33 c 0,4,5
 160 130 160 130 160 310 c 2,6,-1
 160 601 l 2,7,8
 160 764 160 764 373 857 c 1,9,10
 250 967 250 967 250 1081 c 2,11,-1
 250 1200 l 2,12,13
 250 1386 250 1386 432 1477 c 0,14,15
 538 1530 538 1530 665 1530 c 128,-1,16
 792 1530 792 1530 898 1477 c 0,17,18
 1080 1384 1080 1384 1080 1200 c 2,19,-1
 1080 1137 l 17,20,-1
 890 1047 l 1,21,-1
 880 1047 l 9,22,-1
 880 1200 l 18,23,24
 880 1271 880 1271 804 1317 c 0,25,26
 750 1350 750 1350 665 1350 c 128,-1,27
 580 1350 580 1350 526 1317 c 0,28,29
 450 1269 450 1269 450 1200 c 2,30,-1
 450 1081 l 2,31,32
 450 1000 450 1000 527 960 c 0,33,34
 586 929 586 929 653 923 c 24,35,36
 749 914 749 914 830 914 c 1,37,-1
 1124 560 l 1,38,-1
 1376 896 l 1,39,-1
 1386 896 l 1,40,-1
 1558 814 l 1,41,-1
 1240 418 l 1,42,-1
 1560 42 l 1,43,-1
 1386 -40 l 1,44,-1
 1376 -40 l 1,45,-1
 1106 284 l 1,46,-1
 849 -20 l 9,0,1
726 747 m 1,47,48
 690 750 690 750 665 751 c 0,49,50
 565 751 565 751 481 718 c 0,51,52
 360 670 360 670 360 601 c 2,53,-1
 360 310 l 2,54,55
 360 240 360 240 481 193 c 0,56,57
 565 160 565 160 665 160 c 0,58,59
 800 160 800 160 1006 416 c 1,60,-1
 726 747 l 1,47,48
EndSplineSet
Validated: 1
EndChar

StartChar: quotesingle
Encoding: 39 39 10
Width: 466
GlyphClass: 2
Flags: W
HStem: 992 558
VStem: 150 166<1066 1476>
LayerCount: 2
Fore
SplineSet
306 1550 m 1,0,-1
 316 1550 l 1,1,-1
 316 1066 l 1,2,-1
 160 992 l 1,3,-1
 150 992 l 1,4,-1
 150 1476 l 1,5,-1
 306 1550 l 1,0,-1
EndSplineSet
Validated: 3073
EndChar

StartChar: parenleft
Encoding: 40 40 11
Width: 755
GlyphClass: 2
Flags: W
HStem: -240 180<496.162 705> 1570 180<496.162 705>
VStem: 200 200<14.1963 1495.8>
LayerCount: 2
Fore
SplineSet
705 1750 m 1,0,-1
 705 1570 l 1,1,2
 605 1570 605 1570 521 1537 c 0,3,4
 400 1489 400 1489 400 1420 c 2,5,-1
 400 90 l 2,6,7
 400 21 400 21 521 -27 c 0,8,9
 605 -60 605 -60 705 -60 c 1,10,-1
 705 -240 l 1,11,12
 554 -240 554 -240 427 -187 c 0,13,14
 200 -93 200 -93 200 90 c 2,15,-1
 200 1420 l 2,16,17
 200 1603 200 1603 427 1697 c 0,18,19
 554 1750 554 1750 705 1750 c 1,0,-1
EndSplineSet
Validated: 1
EndChar

StartChar: parenright
Encoding: 41 41 12
Width: 755
GlyphClass: 2
Flags: W
HStem: -240 180<50 258.838> 1570 180<50 258.838>
VStem: 355 200<14.1963 1495.8>
LayerCount: 2
Fore
SplineSet
50 1750 m 1,0,1
 201 1750 201 1750 328 1697 c 0,2,3
 555 1603 555 1603 555 1420 c 2,4,-1
 555 90 l 2,5,6
 555 -93 555 -93 328 -187 c 0,7,8
 201 -240 201 -240 50 -240 c 1,9,-1
 50 -60 l 1,10,11
 150 -60 150 -60 234 -27 c 0,12,13
 355 21 355 21 355 90 c 2,14,-1
 355 1420 l 2,15,16
 355 1489 355 1489 234 1537 c 0,17,18
 150 1570 150 1570 50 1570 c 1,19,-1
 50 1750 l 1,0,1
EndSplineSet
Validated: 1
EndChar

StartChar: asterisk
Encoding: 42 42 13
Width: 1183
GlyphClass: 2
Flags: W
HStem: 1530 20G<629.531 682>
VStem: 500 182<717 955 1231 1469>
LayerCount: 2
Fore
SplineSet
682 1550 m 1,0,-1
 682 1231 l 1,1,-1
 871 1360 l 1,2,-1
 1028 1251 l 1,3,-1
 1033 1243 l 1,4,-1
 753 1093 l 1,5,-1
 1033 943 l 1,6,-1
 1028 935 l 1,7,-1
 871 826 l 1,8,-1
 682 955 l 1,9,-1
 682 717 l 1,10,-1
 510 636 l 1,11,-1
 500 636 l 1,12,-1
 500 955 l 1,13,-1
 311 826 l 1,14,-1
 155 935 l 1,15,-1
 150 943 l 1,16,-1
 429 1093 l 1,17,-1
 150 1243 l 1,18,-1
 155 1251 l 1,19,-1
 311 1360 l 1,20,-1
 500 1231 l 1,21,-1
 500 1469 l 1,22,-1
 672 1550 l 1,23,-1
 682 1550 l 1,0,-1
EndSplineSet
Validated: 1
EndChar

StartChar: plus
Encoding: 43 43 14
Width: 1214
GlyphClass: 2
Flags: W
HStem: 664 182<231 516 698 983>
VStem: 516 182<379 664 846 1131>
LayerCount: 2
Fore
SplineSet
698 1212 m 1,0,-1
 698 846 l 1,1,-1
 1064 846 l 1,2,-1
 1064 836 l 1,3,-1
 983 664 l 1,4,-1
 698 664 l 1,5,-1
 698 379 l 1,6,-1
 526 298 l 1,7,-1
 516 298 l 1,8,-1
 516 664 l 1,9,-1
 150 664 l 1,10,-1
 150 674 l 1,11,-1
 231 846 l 1,12,-1
 516 846 l 1,13,-1
 516 1131 l 1,14,-1
 688 1212 l 1,15,-1
 698 1212 l 1,0,-1
EndSplineSet
Validated: 3073
EndChar

StartChar: comma
Encoding: 44 44 15
Width: 609
GlyphClass: 2
Flags: W
HStem: -286 564
VStem: 284 175<-116.943 108.616>
LayerCount: 2
Fore
SplineSet
340 278 m 1,0,-1
 350 278 l 1,1,2
 459 171 459 171 459 34 c 0,3,4
 459 -157 459 -157 214 -286 c 1,5,-1
 171 -236 l 1,6,7
 284 -121 284 -121 284 -20 c 0,8,9
 284 101 284 101 150 188 c 1,10,-1
 340 278 l 1,0,-1
EndSplineSet
Validated: 1
EndChar

StartChar: hyphen
Encoding: 45 45 16
Width: 1214
GlyphClass: 2
Flags: W
HStem: 664 182<231 983>
LayerCount: 2
Fore
SplineSet
150 664 m 1,0,-1
 150 674 l 1,1,-1
 231 846 l 1,2,-1
 1064 846 l 1,3,-1
 1064 836 l 1,4,-1
 983 664 l 1,5,-1
 150 664 l 1,0,-1
EndSplineSet
Validated: 3073
EndChar

StartChar: period
Encoding: 46 46 17
Width: 600
GlyphClass: 2
Flags: W
HStem: -20 245<216.097 383.903>
VStem: 180 240<17.1285 187.871>
LayerCount: 2
Fore
SplineSet
180 102.5 m 128,-1,1
 180 153 180 153 215 189 c 128,-1,2
 250 225 250 225 300 225 c 128,-1,3
 350 225 350 225 385 189 c 128,-1,4
 420 153 420 153 420 102.5 c 128,-1,5
 420 52 420 52 385 16 c 128,-1,6
 350 -20 350 -20 300 -20 c 128,-1,7
 250 -20 250 -20 215 16 c 128,-1,0
 180 52 180 52 180 102.5 c 128,-1,1
EndSplineSet
Validated: 1
EndChar

StartChar: slash
Encoding: 47 47 18
Width: 974
GlyphClass: 2
Flags: W
DStem2: 10 -72 161 -140 0.422626 0.906304<2.18787 1899.6>
LayerCount: 2
Fore
SplineSet
151 -140 m 1,0,-1
 10 -72 l 1,1,-1
 812 1650 l 1,2,-1
 822 1650 l 1,3,-1
 964 1582 l 1,4,-1
 161 -140 l 1,5,-1
 151 -140 l 1,0,-1
EndSplineSet
Validated: 3073
EndChar

StartChar: zero
Encoding: 48 48 19
Width: 1410
GlyphClass: 2
Flags: W
HStem: -20 180<496.07 913.93> 1350 180<496.07 913.93>
VStem: 200 200<234.196 1275.8> 1010 200<234.196 1275.8>
LayerCount: 2
Fore
SplineSet
400 310 m 2,0,1
 400 242 400 242 521 193 c 0,2,3
 605 160 605 160 705 160 c 128,-1,4
 805 160 805 160 889 193 c 0,5,6
 1010 241 1010 241 1010 310 c 2,7,-1
 1010 1200 l 2,8,9
 1010 1268 1010 1268 889 1317 c 0,10,11
 805 1350 805 1350 705 1350 c 128,-1,12
 605 1350 605 1350 521 1317 c 0,13,14
 400 1269 400 1269 400 1200 c 2,15,-1
 400 310 l 2,0,1
200 310 m 2,16,17
 200 1200 l 2,18,19
 200 1383 200 1383 427 1477 c 0,20,21
 554 1530 554 1530 705 1530 c 128,-1,22
 856 1530 856 1530 983 1477 c 0,23,24
 1210 1383 1210 1383 1210 1200 c 2,25,-1
 1210 310 l 2,26,27
 1210 127 1210 127 983 33 c 0,28,29
 856 -20 856 -20 705 -20 c 128,-1,30
 554 -20 554 -20 427 33 c 0,31,32
 200 127 200 127 200 310 c 2,16,17
EndSplineSet
Validated: 1
EndChar

StartChar: one
Encoding: 49 49 20
Width: 714
GlyphClass: 2
Flags: W
HStem: -40 21G<264 316.222> 1138 21G<20 56.4179> 1530 20G<412.068 464>
VStem: 264 200<50 1272>
LayerCount: 2
Fore
SplineSet
264 -40 m 1,0,-1
 264 1272 l 1,1,-1
 20 1138 l 1,2,-1
 20 1343 l 1,3,-1
 454 1550 l 1,4,-1
 464 1550 l 1,5,-1
 464 50 l 1,6,-1
 274 -40 l 1,7,-1
 264 -40 l 1,0,-1
EndSplineSet
Validated: 1
EndChar

StartChar: two
Encoding: 50 50 21
Width: 1333
GlyphClass: 2
Flags: W
HStem: 0 182<472 1092> 1350 180<456.07 873.93>
VStem: 160 200<1050 1275.8> 970 200<892.312 1275.8>
DStem2: 231 182 472 182 0.718264 0.695771<173.102 1053.92>
LayerCount: 2
Fore
SplineSet
150 0 m 1,0,-1
 150 10 l 1,1,-1
 231 182 l 1,2,-1
 710 646 l 17,3,4
 970 899 970 899 970 997 c 2,5,-1
 970 1200 l 2,6,7
 970 1269 970 1269 849 1317 c 0,8,9
 765 1350 765 1350 665 1350 c 128,-1,10
 565 1350 565 1350 481 1317 c 0,11,12
 360 1269 360 1269 360 1200 c 2,13,-1
 360 1050 l 1,14,-1
 170 960 l 1,15,-1
 160 960 l 1,16,-1
 160 1200 l 2,17,18
 160 1383 160 1383 387 1477 c 0,19,20
 514 1530 514 1530 665 1530 c 128,-1,21
 816 1530 816 1530 943 1477 c 0,22,23
 1170 1383 1170 1383 1170 1200 c 2,24,-1
 1170 987 l 2,25,26
 1170 805 1170 805 899 564 c 9,27,-1
 472 182 l 1,28,-1
 1173 182 l 1,29,-1
 1173 172 l 1,30,-1
 1092 0 l 1,31,-1
 150 0 l 1,0,-1
EndSplineSet
Validated: 1
EndChar

StartChar: three
Encoding: 51 51 22
Width: 1330
GlyphClass: 2
Flags: W
HStem: -20 180<456.07 873.93> 1328 182<330 773>
VStem: 160 200<234.196 460> 970 200<234.538 676.462>
DStem2: 442 707 748 927 0.470367 0.882471<338.076 703.706>
LayerCount: 2
Fore
SplineSet
160 460 m 17,0,-1
 350 550 l 1,1,-1
 360 550 l 1,2,-1
 360 310 l 18,3,4
 360 241 360 241 481 193 c 0,5,6
 565 160 565 160 665 160 c 128,-1,7
 765 160 765 160 849 193 c 0,8,9
 970 241 970 241 970 310 c 2,10,-1
 970 601 l 2,11,12
 970 671 970 671 849 718 c 0,13,14
 765 751 765 751 665 751 c 0,15,16
 527 751 527 751 442 707 c 1,17,-1
 773 1328 l 1,18,-1
 249 1328 l 1,19,-1
 249 1338 l 1,20,-1
 330 1510 l 1,21,-1
 1083 1510 l 1,22,-1
 748 927 l 1,23,24
 852 916 852 916 943 878 c 0,25,26
 1170 783 1170 783 1170 601 c 2,27,-1
 1170 310 l 2,28,29
 1170 128 1170 128 943 33 c 0,30,31
 816 -20 816 -20 665 -20 c 128,-1,32
 514 -20 514 -20 387 33 c 0,33,34
 160 127 160 127 160 310 c 10,35,-1
 160 460 l 17,0,-1
EndSplineSet
Validated: 1
EndChar

StartChar: four
Encoding: 52 52 23
Width: 1188
GlyphClass: 2
Flags: W
HStem: -40 21G<738 790.222> 358 182<303 738 938 1007> 1530 20G<885.778 938>
VStem: 738 200<50 358 540 1186>
LayerCount: 2
Fore
SplineSet
738 540 m 1,0,-1
 738 1186 l 1,1,-1
 303 540 l 1,2,-1
 738 540 l 1,0,-1
738 -40 m 1,3,-1
 738 358 l 1,4,-1
 5 358 l 1,5,-1
 5 368 l 1,6,-1
 86 540 l 1,7,-1
 738 1460 l 1,8,-1
 928 1550 l 1,9,-1
 938 1550 l 1,10,-1
 938 540 l 1,11,-1
 1088 540 l 1,12,-1
 1088 530 l 1,13,-1
 1007 358 l 1,14,-1
 938 358 l 1,15,-1
 938 50 l 1,16,-1
 748 -40 l 1,17,-1
 738 -40 l 1,3,-1
EndSplineSet
Validated: 1
EndChar

StartChar: five
Encoding: 53 53 24
Width: 1330
GlyphClass: 2
Flags: W
HStem: -20 180<456.07 873.93> 751 180<441.703 873.93> 1328 182<552 1012>
VStem: 160 200<234.196 460> 970 200<234.538 676.804>
LayerCount: 2
Fore
SplineSet
160 460 m 17,0,-1
 350 550 l 1,1,-1
 360 550 l 1,2,-1
 360 310 l 18,3,4
 360 241 360 241 481 193 c 0,5,6
 565 160 565 160 665 160 c 128,-1,7
 765 160 765 160 849 193 c 0,8,9
 970 241 970 241 970 310 c 2,10,-1
 970 601 l 2,11,12
 970 671 970 671 849 718 c 0,13,14
 765 751 765 751 665 751 c 0,15,16
 527 751 527 751 442 707 c 1,17,-1
 233 808 l 1,18,-1
 400 1510 l 1,19,-1
 1093 1510 l 1,20,-1
 1093 1500 l 1,21,-1
 1012 1328 l 1,22,-1
 552 1328 l 1,23,-1
 430 882 l 1,24,25
 522 931 522 931 665 931 c 24,26,27
 816 931 816 931 943 878 c 0,28,29
 1170 784 1170 784 1170 601 c 2,30,-1
 1170 310 l 2,31,32
 1170 128 1170 128 943 33 c 0,33,34
 816 -20 816 -20 665 -20 c 128,-1,35
 514 -20 514 -20 387 33 c 0,36,37
 160 127 160 127 160 310 c 10,38,-1
 160 460 l 17,0,-1
EndSplineSet
Validated: 1
EndChar

StartChar: six
Encoding: 54 54 25
Width: 1410
GlyphClass: 2
Flags: W
HStem: -20 180<496.07 913.93> 782 180<495.485 913.93> 1350 180<495.541 894.106>
VStem: 200 200<234.196 708.296 897 1276.15> 990 200<1130 1275.8> 1010 200<234.538 707.462>
LayerCount: 2
Fore
SplineSet
1190 1130 m 1,0,-1
 1000 1040 l 1,1,-1
 990 1040 l 1,2,-1
 990 1200 l 2,3,4
 990 1269 990 1269 869 1317 c 0,5,6
 785 1350 785 1350 690 1350 c 0,7,8
 605 1350 605 1350 521 1317 c 0,9,10
 400 1269 400 1269 400 1200 c 2,11,-1
 400 897 l 1,12,13
 413 903 413 903 427 909 c 0,14,15
 551 962 551 962 705 962 c 0,16,17
 856 962 856 962 983 909 c 0,18,19
 1210 814 1210 814 1210 632 c 2,20,-1
 1210 310 l 2,21,22
 1210 128 1210 128 983 33 c 0,23,24
 856 -20 856 -20 705 -20 c 128,-1,25
 554 -20 554 -20 427 33 c 0,26,27
 200 127 200 127 200 310 c 2,28,-1
 200 1200 l 2,29,30
 200 1384 200 1384 427 1477 c 0,31,32
 554 1530 554 1530 690 1530 c 0,33,34
 836 1530 836 1530 963 1477 c 0,35,36
 1190 1383 1190 1383 1190 1200 c 2,37,-1
 1190 1130 l 1,0,-1
400 310 m 2,38,39
 400 241 400 241 521 193 c 0,40,41
 605 160 605 160 705 160 c 128,-1,42
 805 160 805 160 889 193 c 0,43,44
 1010 241 1010 241 1010 310 c 2,45,-1
 1010 632 l 2,46,47
 1010 701 1010 701 889 749 c 0,48,49
 805 782 805 782 705 782 c 128,-1,50
 605 782 605 782 521 749 c 0,51,52
 400 701 400 701 400 632 c 2,53,-1
 400 310 l 2,38,39
EndSplineSet
Validated: 1
EndChar

StartChar: seven
Encoding: 55 55 26
Width: 1047
GlyphClass: 2
Flags: W
HStem: -40 21G<405.647 465> 1328 182<131 726>
DStem2: 268 45 458 -40 0.33035 0.943858<0 1362.27>
LayerCount: 2
Fore
SplineSet
458 -40 m 1,0,-1
 448 -40 l 1,1,-1
 268 45 l 1,2,-1
 726 1328 l 1,3,-1
 50 1328 l 1,4,-1
 50 1338 l 1,5,-1
 131 1510 l 1,6,-1
 997 1510 l 1,7,-1
 997 1500 l 1,8,-1
 458 -40 l 1,0,-1
EndSplineSet
Validated: 1
EndChar

StartChar: eight
Encoding: 56 56 27
Width: 1330
GlyphClass: 2
Flags: W
HStem: -20 180<456.07 873.93> 751 180<527.695 819.652> 1350 180<519.297 820.456>
VStem: 160 200<234.538 673.561> 250 200<989.035 1291.33> 880 200<989.035 1292.11> 970 200<234.538 673.561>
LayerCount: 2
Fore
SplineSet
450 1081 m 2,0,1
 450 1012 450 1012 526 964 c 0,2,3
 580 931 580 931 665 931 c 128,-1,4
 750 931 750 931 804 964 c 0,5,6
 880 1010 880 1010 880 1081 c 2,7,-1
 880 1200 l 2,8,9
 880 1271 880 1271 804 1317 c 0,10,11
 750 1350 750 1350 665 1350 c 128,-1,12
 580 1350 580 1350 526 1317 c 0,13,14
 450 1269 450 1269 450 1200 c 2,15,-1
 450 1081 l 2,0,1
360 310 m 2,16,17
 360 240 360 240 481 193 c 0,18,19
 565 160 565 160 665 160 c 128,-1,20
 765 160 765 160 849 193 c 0,21,22
 970 240 970 240 970 310 c 2,23,-1
 970 601 l 2,24,25
 970 670 970 670 849 718 c 0,26,27
 765 751 765 751 665 751 c 128,-1,28
 565 751 565 751 481 718 c 0,29,30
 360 670 360 670 360 601 c 2,31,-1
 360 310 l 2,16,17
160 310 m 2,32,-1
 160 601 l 2,33,34
 160 764 160 764 373 857 c 1,35,36
 250 967 250 967 250 1081 c 2,37,-1
 250 1200 l 2,38,39
 250 1384 250 1384 432 1477 c 0,40,41
 538 1530 538 1530 665 1530 c 128,-1,42
 792 1530 792 1530 898 1477 c 0,43,44
 1080 1386 1080 1386 1080 1200 c 2,45,-1
 1080 1081 l 2,46,47
 1080 967 1080 967 957 857 c 1,48,49
 1170 764 1170 764 1170 601 c 2,50,-1
 1170 310 l 2,51,52
 1170 128 1170 128 943 33 c 0,53,54
 816 -20 816 -20 665 -20 c 128,-1,55
 514 -20 514 -20 387 33 c 0,56,57
 160 128 160 128 160 310 c 2,32,-1
EndSplineSet
Validated: 1
EndChar

StartChar: nine
Encoding: 57 57 28
Width: 1410
GlyphClass: 2
Flags: W
HStem: -20 180<496.07 913.93> 548 180<496.07 914.515> 1350 180<496.07 913.93>
VStem: 200 200<234.196 380 802.538 1275.46> 1010 200<234.538 613 801.704 1275.8>
LayerCount: 2
Fore
SplineSet
200 380 m 1,0,-1
 390 470 l 1,1,-1
 400 470 l 1,2,-1
 400 310 l 2,3,4
 400 241 400 241 521 193 c 0,5,6
 605 160 605 160 705 160 c 128,-1,7
 805 160 805 160 889 193 c 0,8,9
 1010 241 1010 241 1010 310 c 2,10,-1
 1010 613 l 1,11,12
 997 607 997 607 983 601 c 0,13,14
 859 548 859 548 705 548 c 0,15,16
 554 548 554 548 427 601 c 0,17,18
 200 696 200 696 200 878 c 2,19,-1
 200 1200 l 2,20,21
 200 1382 200 1382 427 1477 c 0,22,23
 554 1530 554 1530 705 1530 c 128,-1,24
 856 1530 856 1530 983 1477 c 0,25,26
 1210 1383 1210 1383 1210 1200 c 2,27,-1
 1210 310 l 2,28,29
 1210 128 1210 128 983 33 c 0,30,31
 856 -20 856 -20 705 -20 c 128,-1,32
 554 -20 554 -20 427 33 c 0,33,34
 200 127 200 127 200 310 c 2,35,-1
 200 380 l 1,0,-1
1010 1200 m 2,36,37
 1010 1269 1010 1269 889 1317 c 0,38,39
 805 1350 805 1350 705 1350 c 128,-1,40
 605 1350 605 1350 521 1317 c 0,41,42
 400 1269 400 1269 400 1200 c 2,43,-1
 400 878 l 2,44,45
 400 809 400 809 521 761 c 0,46,47
 605 728 605 728 705 728 c 128,-1,48
 805 728 805 728 889 761 c 0,49,50
 1010 809 1010 809 1010 878 c 2,51,-1
 1010 1200 l 2,36,37
EndSplineSet
Validated: 1
EndChar

StartChar: colon
Encoding: 58 58 29
Width: 600
GlyphClass: 2
Flags: W
HStem: -20 245<216.097 383.903> 631 245<216.097 383.903>
VStem: 180 240<17.1285 187.871 668.129 838.871>
LayerCount: 2
Fore
SplineSet
180 753.5 m 128,-1,1
 180 804 180 804 215 840 c 128,-1,2
 250 876 250 876 300 876 c 128,-1,3
 350 876 350 876 385 840 c 128,-1,4
 420 804 420 804 420 753.5 c 128,-1,5
 420 703 420 703 385 667 c 128,-1,6
 350 631 350 631 300 631 c 128,-1,7
 250 631 250 631 215 667 c 128,-1,0
 180 703 180 703 180 753.5 c 128,-1,1
180 102.5 m 128,-1,9
 180 153 180 153 215 189 c 128,-1,10
 250 225 250 225 300 225 c 128,-1,11
 350 225 350 225 385 189 c 128,-1,12
 420 153 420 153 420 102.5 c 128,-1,13
 420 52 420 52 385 16 c 128,-1,14
 350 -20 350 -20 300 -20 c 128,-1,15
 250 -20 250 -20 215 16 c 128,-1,8
 180 52 180 52 180 102.5 c 128,-1,9
EndSplineSet
Validated: 1
EndChar

StartChar: semicolon
Encoding: 59 59 30
Width: 600
GlyphClass: 2
Flags: W
HStem: 631 245<216.097 383.903>
VStem: 180 240<668.129 838.871> 275 175<-116.943 108.616>
LayerCount: 2
Fore
SplineSet
205 -286 m 1,0,1
 162 -236 l 1,2,3
 275 -121 275 -121 275 -20 c 0,4,5
 275 101 275 101 141 188 c 1,6,7
 331 278 l 1,8,-1
 341 278 l 1,9,10
 450 171 450 171 450 34 c 0,11,12
 450 -157 450 -157 205 -286 c 1,0,1
180 753.5 m 128,-1,14
 180 804 180 804 215 840 c 128,-1,15
 250 876 250 876 300 876 c 128,-1,16
 350 876 350 876 385 840 c 128,-1,17
 420 804 420 804 420 753.5 c 128,-1,18
 420 703 420 703 385 667 c 128,-1,19
 350 631 350 631 300 631 c 128,-1,20
 250 631 250 631 215 667 c 128,-1,13
 180 703 180 703 180 753.5 c 128,-1,14
EndSplineSet
Validated: 1
EndChar

StartChar: less
Encoding: 60 60 31
Width: 1338
GlyphClass: 2
Flags: W
DStem2: 454 738 150 664 0.919983 -0.391958<0 734.13> 232 847 454 738 0.920009 0.391897<161.525 895.643>
LayerCount: 2
Fore
SplineSet
150 664 m 1,0,-1
 150 674 l 1,1,-1
 232 847 l 1,2,-1
 1056 1198 l 1,3,-1
 1138 1025 l 1,4,-1
 1138 1015 l 1,5,-1
 454 738 l 1,6,-1
 1138 461 l 1,7,-1
 1138 451 l 1,8,-1
 1056 278 l 1,9,-1
 150 664 l 1,0,-1
EndSplineSet
Validated: 1
EndChar

StartChar: equal
Encoding: 61 61 32
Width: 1214
GlyphClass: 2
Flags: W
HStem: 482 182<231 983> 846 182<231 983>
LayerCount: 2
Fore
SplineSet
150 846 m 1,0,-1
 150 856 l 1,1,-1
 231 1028 l 1,2,-1
 1064 1028 l 1,3,-1
 1064 1018 l 1,4,-1
 983 846 l 1,5,-1
 150 846 l 1,0,-1
150 482 m 1,6,-1
 150 492 l 1,7,-1
 231 664 l 1,8,-1
 1064 664 l 1,9,-1
 1064 654 l 1,10,-1
 983 482 l 1,11,-1
 150 482 l 1,6,-1
EndSplineSet
Validated: 3073
EndChar

StartChar: greater
Encoding: 62 62 33
Width: 1338
GlyphClass: 2
Flags: W
DStem2: 282 1198 200 1015 0.919983 -0.391958<0 734.13> 200 461 282 278 0.920009 0.391897<3.72358 737.842>
LayerCount: 2
Fore
SplineSet
1188 812 m 1,0,-1
 1188 802 l 1,1,-1
 1106 629 l 1,2,-1
 282 278 l 1,3,-1
 200 451 l 1,4,-1
 200 461 l 1,5,-1
 884 738 l 1,6,-1
 200 1015 l 1,7,-1
 200 1025 l 1,8,-1
 282 1198 l 1,9,-1
 1188 812 l 1,0,-1
EndSplineSet
Validated: 1
EndChar

StartChar: question
Encoding: 63 63 34
Width: 1310
GlyphClass: 2
Flags: W
HStem: -20 245<561.097 728.903> 1350 180<446.07 863.93>
VStem: 150 200<1050 1275.8> 525 240<17.1285 187.871> 528 203<454 554.418> 960 200<914.208 1275.8>
LayerCount: 2
Fore
SplineSet
528 361 m 1,0,1
 529 615 529 615 703 722 c 24,2,3
 960 880 960 880 960 1051 c 2,4,-1
 960 1200 l 2,5,6
 960 1269 960 1269 839 1317 c 0,7,8
 755 1350 755 1350 655 1350 c 128,-1,9
 555 1350 555 1350 471 1317 c 0,10,11
 350 1269 350 1269 350 1200 c 2,12,-1
 350 1050 l 1,13,-1
 160 960 l 1,14,-1
 150 960 l 1,15,-1
 150 1200 l 2,16,17
 150 1383 150 1383 377 1477 c 0,18,19
 504 1530 504 1530 655 1530 c 128,-1,20
 806 1530 806 1530 933 1477 c 0,21,22
 1160 1383 1160 1383 1160 1200 c 2,23,-1
 1160 1050 l 2,24,25
 1160 803 1160 803 821 591 c 24,26,27
 734 537 734 537 731 454 c 1,28,-1
 538 361 l 1,29,-1
 528 361 l 1,0,1
525 102.5 m 128,-1,31
 525 153 525 153 560 189 c 128,-1,32
 595 225 595 225 645 225 c 128,-1,33
 695 225 695 225 730 189 c 128,-1,34
 765 153 765 153 765 102.5 c 128,-1,35
 765 52 765 52 730 16 c 128,-1,36
 695 -20 695 -20 645 -20 c 128,-1,37
 595 -20 595 -20 560 16 c 128,-1,30
 525 52 525 52 525 102.5 c 128,-1,31
EndSplineSet
Validated: 1
EndChar

StartChar: at
Encoding: 64 64 35
Width: 1370
GlyphClass: 2
Flags: W
HStem: -430 180<476.162 685> -40 180<717.214 988.779> 489 180<717.659 990> 940 180<476.07 893.93>
VStem: 180 200<-175.804 865.804> 489 200<176.819 452.571> 990 200<141.437 487.563 664 865.462>
LayerCount: 2
Fore
SplineSet
1000 -40 m 1,0,-1
 904 -40 l 2,1,2
 774 -40 774 -40 676 -1 c 0,3,4
 489 73 489 73 489 205 c 2,5,-1
 489 424 l 2,6,7
 489 558 489 558 676 630 c 0,8,9
 777 669 777 669 904 669 c 0,10,11
 949 669 949 669 990 664 c 1,12,-1
 990 790 l 2,13,14
 990 859 990 859 869 907 c 0,15,16
 785 940 785 940 685 940 c 128,-1,17
 585 940 585 940 501 907 c 0,18,19
 380 859 380 859 380 790 c 2,20,-1
 380 -100 l 2,21,22
 380 -169 380 -169 501 -217 c 0,23,24
 585 -250 585 -250 685 -250 c 1,25,-1
 685 -430 l 1,26,27
 534 -430 534 -430 407 -377 c 0,28,29
 180 -283 180 -283 180 -100 c 2,30,-1
 180 790 l 2,31,32
 180 973 180 973 407 1067 c 0,33,34
 534 1120 534 1120 685 1120 c 128,-1,35
 836 1120 836 1120 963 1067 c 0,36,37
 1190 972 1190 972 1190 790 c 2,38,-1
 1190 50 l 1,39,-1
 1000 -40 l 1,0,-1
990 147 m 1,40,-1
 990 482 l 1,41,42
 951 489 951 489 904 489 c 0,43,44
 814 489 814 489 751.5 464 c 128,-1,45
 689 439 689 439 689 389 c 2,46,-1
 689 240 l 2,47,48
 689 190 689 190 751.5 165 c 128,-1,49
 814 140 814 140 904 140 c 0,50,51
 951 140 951 140 990 147 c 1,40,-1
EndSplineSet
Validated: 1
EndChar

StartChar: A
Encoding: 65 65 36
Width: 1410
GlyphClass: 2
Flags: W
HStem: -40 21G<200 252.222 1010 1062.22> 664 182<400 1010> 1350 180<496.07 913.93>
VStem: 200 200<50 664 846 1275.8> 1010 200<50 664 846 1275.8>
LayerCount: 2
Fore
SplineSet
200 -40 m 1,0,-1
 200 1200 l 2,1,2
 200 1383 200 1383 427 1477 c 0,3,4
 554 1530 554 1530 705 1530 c 128,-1,5
 856 1530 856 1530 983 1477 c 0,6,7
 1210 1383 1210 1383 1210 1200 c 2,8,9
 1210 50 l 1,10,-1
 1020 -40 l 1,11,-1
 1010 -40 l 1,12,-1
 1010 664 l 1,13,-1
 400 664 l 1,14,-1
 400 50 l 1,15,-1
 210 -40 l 1,16,-1
 200 -40 l 1,0,-1
400 846 m 1,17,-1
 1010 846 l 1,18,-1
 1010 1200 l 2,19,20
 1010 1269 1010 1269 889 1317 c 0,21,22
 805 1350 805 1350 705 1350 c 128,-1,23
 605 1350 605 1350 521 1317 c 0,24,25
 400 1269 400 1269 400 1200 c 2,26,-1
 400 846 l 1,17,-1
EndSplineSet
Validated: 1
EndChar

StartChar: B
Encoding: 66 66 37
Width: 1370
GlyphClass: 2
Flags: W
HStem: 0 180<400 893.838> 746 180<400 822.305> 1330 180<400 842.644>
VStem: 200 200<180 746 926 1330> 900 200<984.035 1276.3> 990 200<254.538 668.561>
LayerCount: 2
Fore
SplineSet
400 926 m 1,0,-1
 685 926 l 2,1,2
 770 926 770 926 824 959 c 0,3,4
 900 1007 900 1007 900 1076 c 2,5,-1
 900 1180 l 2,6,7
 900 1264 900 1264 820 1297 c 128,-1,8
 740 1330 740 1330 685 1330 c 2,9,-1
 400 1330 l 1,10,-1
 400 926 l 1,0,-1
400 180 m 1,11,-1
 685 180 l 2,12,13
 785 180 785 180 869 213 c 0,14,15
 990 260 990 260 990 330 c 2,16,-1
 990 596 l 2,17,18
 990 665 990 665 869 713 c 0,19,20
 785 746 785 746 685 746 c 2,21,-1
 400 746 l 1,22,-1
 400 180 l 1,11,-1
200 0 m 1,23,-1
 200 1460 l 1,24,-1
 306 1510 l 1,25,-1
 685 1510 l 2,26,27
 812 1510 812 1510 918 1457 c 0,28,29
 1100 1364 1100 1364 1100 1180 c 2,30,-1
 1100 1076 l 2,31,32
 1100 962 1100 962 977 852 c 1,33,34
 1190 759 1190 759 1190 596 c 2,35,-1
 1190 330 l 2,36,37
 1190 148 1190 148 963 53 c 0,38,39
 836 0 836 0 685 0 c 2,40,-1
 200 0 l 1,23,-1
EndSplineSet
Validated: 1
EndChar

StartChar: C
Encoding: 67 67 38
Width: 1410
GlyphClass: 2
Flags: W
HStem: -20 180<496.07 913.93> 1350 180<496.07 913.93>
VStem: 200 200<234.196 1275.8> 1010 200<234.196 460 1050 1275.8>
LayerCount: 2
Fore
SplineSet
1210 550 m 1,0,-1
 1210 310 l 2,1,2
 1210 127 1210 127 983 33 c 0,3,4
 856 -20 856 -20 705 -20 c 128,-1,5
 554 -20 554 -20 427 33 c 0,6,7
 200 127 200 127 200 310 c 2,8,-1
 200 1200 l 2,9,10
 200 1383 200 1383 427 1477 c 0,11,12
 554 1530 554 1530 705 1530 c 128,-1,13
 856 1530 856 1530 983 1477 c 0,14,15
 1210 1383 1210 1383 1210 1200 c 10,16,-1
 1210 1050 l 17,17,-1
 1020 960 l 1,18,-1
 1010 960 l 1,19,-1
 1010 1200 l 18,20,21
 1010 1268 1010 1268 889 1317 c 0,22,23
 805 1350 805 1350 705 1350 c 128,-1,24
 605 1350 605 1350 521 1317 c 0,25,26
 400 1269 400 1269 400 1200 c 2,27,-1
 400 310 l 2,28,29
 400 242 400 242 521 193 c 0,30,31
 605 160 605 160 705 160 c 128,-1,32
 805 160 805 160 889 193 c 0,33,34
 1010 241 1010 241 1010 310 c 2,35,-1
 1010 460 l 1,36,-1
 1200 550 l 1,37,-1
 1210 550 l 1,0,-1
EndSplineSet
Validated: 1
EndChar

StartChar: D
Encoding: 68 68 39
Width: 1390
GlyphClass: 2
Flags: W
HStem: 0 180<400 893.838> 1330 180<400 893.838>
VStem: 200 200<180 1330> 990 200<254.196 1255.8>
LayerCount: 2
Fore
SplineSet
400 180 m 1,0,-1
 685 180 l 2,1,2
 785 180 785 180 869 213 c 0,3,4
 990 261 990 261 990 330 c 2,5,-1
 990 1180 l 2,6,7
 990 1249 990 1249 869 1297 c 0,8,9
 786 1330 786 1330 685 1330 c 2,10,-1
 400 1330 l 1,11,-1
 400 180 l 1,0,-1
200 0 m 1,12,-1
 200 1460 l 1,13,-1
 306 1510 l 1,14,-1
 685 1510 l 2,15,16
 836 1510 836 1510 963 1457 c 0,17,18
 1190 1363 1190 1363 1190 1180 c 2,19,-1
 1190 330 l 2,20,21
 1190 147 1190 147 963 53 c 0,22,23
 836 0 836 0 685 0 c 2,24,-1
 200 0 l 1,12,-1
EndSplineSet
Validated: 1
EndChar

StartChar: E
Encoding: 69 69 40
Width: 1157
GlyphClass: 2
Flags: W
HStem: 0 182<400 1026> 664 182<400 859> 1328 182<400 859>
VStem: 200 200<182 664 846 1328>
CounterMasks: 1 e0
LayerCount: 2
Fore
SplineSet
200 0 m 1,0,-1
 200 1460 l 1,1,-1
 306 1510 l 1,2,-1
 940 1510 l 1,3,-1
 940 1500 l 1,4,-1
 859 1328 l 1,5,-1
 400 1328 l 1,6,-1
 400 846 l 1,7,-1
 940 846 l 1,8,-1
 940 836 l 1,9,-1
 859 664 l 1,10,-1
 400 664 l 1,11,-1
 400 182 l 1,12,-1
 1107 182 l 1,13,-1
 1107 172 l 1,14,-1
 1026 0 l 1,15,-1
 200 0 l 1,0,-1
EndSplineSet
Validated: 1
EndChar

StartChar: F
Encoding: 70 70 41
Width: 1120
GlyphClass: 2
Flags: W
HStem: -40 21G<200 252.222> 664 182<400 859> 1328 182<400 859>
VStem: 200 200<50 664 846 1328>
LayerCount: 2
Fore
SplineSet
200 -40 m 1,0,-1
 200 1460 l 1,1,-1
 306 1510 l 1,2,-1
 940 1510 l 1,3,-1
 940 1500 l 1,4,-1
 859 1328 l 1,5,-1
 400 1328 l 1,6,-1
 400 846 l 1,7,-1
 940 846 l 1,8,-1
 940 836 l 1,9,-1
 859 664 l 1,10,-1
 400 664 l 1,11,-1
 400 50 l 1,12,-1
 210 -40 l 1,13,-1
 200 -40 l 1,0,-1
EndSplineSet
Validated: 1
EndChar

StartChar: G
Encoding: 71 71 42
Width: 1410
GlyphClass: 2
Flags: W
HStem: -20 180<496.07 913.93> 664 182<743 1010> 1350 180<496.07 913.93>
VStem: 200 200<234.196 1275.8> 1010 200<234.196 664 1050 1275.8>
CounterMasks: 1 e0
LayerCount: 2
Fore
SplineSet
1210 846 m 1,0,-1
 1210 310 l 2,1,2
 1210 127 1210 127 983 33 c 0,3,4
 856 -20 856 -20 705 -20 c 128,-1,5
 554 -20 554 -20 427 33 c 0,6,7
 200 127 200 127 200 310 c 2,8,-1
 200 1200 l 2,9,10
 200 1383 200 1383 427 1477 c 0,11,12
 554 1530 554 1530 705 1530 c 128,-1,13
 856 1530 856 1530 983 1477 c 0,14,15
 1210 1383 1210 1383 1210 1200 c 10,16,-1
 1210 1050 l 17,17,-1
 1020 960 l 1,18,-1
 1010 960 l 1,19,-1
 1010 1200 l 18,20,21
 1010 1269 1010 1269 889 1317 c 0,22,23
 805 1350 805 1350 705 1350 c 128,-1,24
 605 1350 605 1350 521 1317 c 0,25,26
 400 1269 400 1269 400 1200 c 2,27,-1
 400 310 l 2,28,29
 400 241 400 241 521 193 c 0,30,31
 605 160 605 160 705 160 c 128,-1,32
 805 160 805 160 889 193 c 0,33,34
 1010 241 1010 241 1010 310 c 2,35,-1
 1010 664 l 1,36,-1
 662 664 l 1,37,-1
 662 674 l 1,38,-1
 743 846 l 1,39,-1
 1210 846 l 1,0,-1
EndSplineSet
Validated: 1
EndChar

StartChar: H
Encoding: 72 72 43
Width: 1390
GlyphClass: 2
Flags: W
HStem: -40 21G<200 252.222 990 1042.22> 664 182<400 990> 1530 20G<347.778 400 1137.78 1190>
VStem: 200 200<50 664 846 1460> 990 200<50 664 846 1460>
LayerCount: 2
Fore
SplineSet
200 -40 m 1,0,-1
 200 1460 l 1,1,-1
 390 1550 l 1,2,-1
 400 1550 l 1,3,-1
 400 846 l 1,4,-1
 990 846 l 1,5,-1
 990 1460 l 1,6,-1
 1180 1550 l 1,7,-1
 1190 1550 l 1,8,-1
 1190 50 l 1,9,-1
 1000 -40 l 1,10,-1
 990 -40 l 1,11,-1
 990 664 l 1,12,-1
 400 664 l 1,13,-1
 400 50 l 1,14,-1
 210 -40 l 1,15,-1
 200 -40 l 1,0,-1
EndSplineSet
Validated: 1
EndChar

StartChar: I
Encoding: 73 73 44
Width: 600
GlyphClass: 2
Flags: W
HStem: -40 21G<200 252.222> 1530 20G<347.778 400>
VStem: 200 200<50 1460>
LayerCount: 2
Fore
SplineSet
200 -40 m 1,0,-1
 200 1460 l 1,1,-1
 390 1550 l 1,2,-1
 400 1550 l 1,3,-1
 400 50 l 1,4,-1
 210 -40 l 1,5,-1
 200 -40 l 1,0,-1
EndSplineSet
Validated: 3073
EndChar

StartChar: J
Encoding: 74 74 45
Width: 1270
GlyphClass: 2
Flags: W
HStem: -20 180<375.894 774.459> 1328 182<378 870>
VStem: 80 200<234.196 460> 870 200<234.196 1328>
LayerCount: 2
Fore
SplineSet
80 460 m 17,0,-1
 270 550 l 1,1,-1
 280 550 l 1,2,-1
 280 310 l 18,3,4
 280 241 280 241 401 193 c 0,5,6
 485 160 485 160 580 160 c 0,7,8
 665 160 665 160 749 193 c 0,9,10
 870 241 870 241 870 310 c 2,11,-1
 870 1328 l 17,12,-1
 297 1328 l 1,13,-1
 297 1338 l 1,14,-1
 378 1510 l 1,15,-1
 1070 1510 l 9,16,-1
 1070 310 l 2,17,18
 1070 127 1070 127 843 33 c 0,19,20
 716 -20 716 -20 580 -20 c 0,21,22
 434 -20 434 -20 307 33 c 0,23,24
 80 127 80 127 80 310 c 10,25,-1
 80 460 l 17,0,-1
EndSplineSet
Validated: 1
EndChar

StartChar: K
Encoding: 75 75 46
Width: 1360
GlyphClass: 2
Flags: W
HStem: -40 21G<200 252.222 980 1032.22> 693 180<683 878.68> 1530 20G<347.778 400 928.578 995.41>
VStem: 200 200<50 619.356 797 1460> 980 200<50 616.462>
LayerCount: 2
Fore
SplineSet
200 -40 m 1,0,-1
 200 1460 l 1,1,-1
 390 1550 l 1,2,-1
 400 1550 l 1,3,-1
 400 797 l 1,4,-1
 943 1550 l 1,5,-1
 953 1550 l 1,6,-1
 1129 1467 l 1,7,-1
 683 873 l 1,8,9
 822 873 822 873 953 818 c 0,10,11
 1180 723 1180 723 1180 541 c 2,12,-1
 1180 50 l 1,13,-1
 990 -40 l 1,14,-1
 980 -40 l 1,15,-1
 980 541 l 2,16,17
 980 610 980 610 859 658 c 0,18,19
 764 693 764 693 683 693 c 0,20,21
 601 693 601 693 522 662 c 0,22,23
 400 615 400 615 400 541 c 2,24,-1
 400 50 l 1,25,-1
 210 -40 l 1,26,-1
 200 -40 l 1,0,-1
EndSplineSet
Validated: 1
EndChar

StartChar: L
Encoding: 76 76 47
Width: 1090
GlyphClass: 2
Flags: W
HStem: 0 182<400 1004> 1530 20G<347.778 400>
VStem: 200 200<182 1460>
LayerCount: 2
Fore
SplineSet
200 0 m 1,0,-1
 200 1460 l 1,1,-1
 390 1550 l 1,2,-1
 400 1550 l 1,3,-1
 400 182 l 1,4,-1
 1085 182 l 1,5,-1
 1085 172 l 1,6,-1
 1004 0 l 1,7,-1
 200 0 l 1,0,-1
EndSplineSet
Validated: 1
EndChar

StartChar: M
Encoding: 77 77 48
Width: 2220
GlyphClass: 2
Flags: W
HStem: -40 21G<200 252.222 1010 1062.22 1820 1872.22> 1350 180<496.07 914.125 1305.88 1723.93>
VStem: 200 200<50 1275.8> 1010 200<50 1276.3> 1820 200<50 1275.8>
CounterMasks: 1 38
LayerCount: 2
Fore
SplineSet
200 -40 m 1,0,-1
 200 1200 l 2,1,2
 200 1383 200 1383 427 1477 c 0,3,4
 554 1530 554 1530 705 1530 c 0,5,6
 857 1530 857 1530 983 1477 c 0,7,8
 1059 1445 1059 1445 1110 1404 c 1,9,10
 1161 1445 1161 1445 1237 1477 c 0,11,12
 1363 1530 1363 1530 1515 1530 c 0,13,14
 1666 1530 1666 1530 1793 1477 c 0,15,16
 2020 1383 2020 1383 2020 1200 c 2,17,-1
 2020 50 l 1,18,-1
 1830 -40 l 1,19,-1
 1820 -40 l 1,20,-1
 1820 1200 l 2,21,22
 1820 1269 1820 1269 1699 1317 c 0,23,24
 1615 1350 1615 1350 1515 1350 c 128,-1,25
 1415 1350 1415 1350 1331 1317 c 0,26,27
 1210 1269 1210 1269 1210 1200 c 2,28,-1
 1210 50 l 1,29,-1
 1020 -40 l 1,30,-1
 1010 -40 l 1,31,-1
 1010 1200 l 2,32,33
 1010 1269 1010 1269 889 1317 c 0,34,35
 805 1350 805 1350 705 1350 c 128,-1,36
 605 1350 605 1350 521 1317 c 0,37,38
 400 1269 400 1269 400 1200 c 2,39,-1
 400 50 l 1,40,-1
 210 -40 l 1,41,-1
 200 -40 l 1,0,-1
EndSplineSet
Validated: 1
EndChar

StartChar: N
Encoding: 78 78 49
Width: 1410
GlyphClass: 2
Flags: W
HStem: -40 21G<200 252.222 1010 1062.22> 1350 180<496.07 913.93>
VStem: 200 200<50 1275.8> 1010 200<50 1275.8>
LayerCount: 2
Fore
SplineSet
200 -40 m 9,0,-1
 200 1200 l 2,1,2
 200 1383 200 1383 427 1477 c 0,3,4
 554 1530 554 1530 705 1530 c 128,-1,5
 856 1530 856 1530 983 1477 c 0,6,7
 1210 1383 1210 1383 1210 1200 c 2,8,-1
 1210 50 l 25,9,-1
 1020 -40 l 1,10,-1
 1010 -40 l 9,11,-1
 1010 1200 l 2,12,13
 1010 1269 1010 1269 889 1317 c 0,14,15
 805 1350 805 1350 705 1350 c 128,-1,16
 605 1350 605 1350 521 1317 c 0,17,18
 400 1269 400 1269 400 1200 c 2,19,-1
 400 50 l 25,20,-1
 210 -40 l 1,21,-1
 200 -40 l 9,0,-1
EndSplineSet
Validated: 1
EndChar

StartChar: O
Encoding: 79 79 50
Width: 1410
GlyphClass: 2
Flags: W
HStem: -20 180<496.07 913.93> 1350 180<496.07 913.93>
VStem: 200 200<234.196 1275.8> 1010 200<234.196 1275.8>
LayerCount: 2
Fore
SplineSet
400 310 m 2,0,1
 400 242 400 242 521 193 c 0,2,3
 605 160 605 160 705 160 c 128,-1,4
 805 160 805 160 889 193 c 0,5,6
 1010 241 1010 241 1010 310 c 2,7,-1
 1010 1200 l 2,8,9
 1010 1268 1010 1268 889 1317 c 0,10,11
 805 1350 805 1350 705 1350 c 128,-1,12
 605 1350 605 1350 521 1317 c 0,13,14
 400 1269 400 1269 400 1200 c 2,15,-1
 400 310 l 2,0,1
200 310 m 2,16,17
 200 1200 l 2,18,19
 200 1383 200 1383 427 1477 c 0,20,21
 554 1530 554 1530 705 1530 c 128,-1,22
 856 1530 856 1530 983 1477 c 0,23,24
 1210 1383 1210 1383 1210 1200 c 2,25,-1
 1210 310 l 2,26,27
 1210 127 1210 127 983 33 c 0,28,29
 856 -20 856 -20 705 -20 c 128,-1,30
 554 -20 554 -20 427 33 c 0,31,32
 200 127 200 127 200 310 c 2,16,17
EndSplineSet
Validated: 1
EndChar

StartChar: P
Encoding: 80 80 51
Width: 1340
GlyphClass: 2
Flags: W
HStem: -40 21G<200 252.222> 510 180<400 893.838> 1330 180<400 893.838>
VStem: 200 200<50 510 690 1330> 990 200<764.196 1255.8>
LayerCount: 2
Fore
SplineSet
200 -40 m 1,0,-1
 200 1460 l 1,1,-1
 306 1510 l 1,2,-1
 685 1510 l 2,3,4
 836 1510 836 1510 963 1457 c 0,5,6
 1190 1363 1190 1363 1190 1180 c 2,7,-1
 1190 840 l 2,8,9
 1190 657 1190 657 963 563 c 0,10,11
 836 510 836 510 685 510 c 2,12,-1
 400 510 l 1,13,-1
 400 50 l 1,14,-1
 210 -40 l 1,15,-1
 200 -40 l 1,0,-1
400 690 m 1,16,-1
 685 690 l 2,17,18
 785 690 785 690 869 723 c 0,19,20
 990 771 990 771 990 840 c 2,21,-1
 990 1180 l 2,22,23
 990 1250 990 1250 869 1297 c 0,24,25
 785 1330 785 1330 685 1330 c 2,26,-1
 400 1330 l 1,27,-1
 400 690 l 1,16,-1
EndSplineSet
Validated: 1
EndChar

StartChar: Q
Encoding: 81 81 52
Width: 1410
GlyphClass: 2
Flags: W
HStem: -40 21G<963.071 1029.41> -20 180<496.07 825.718> 1350 180<496.07 913.93>
VStem: 200 200<234.196 1275.8> 1010 200<274.532 1275.8>
DStem2: 817 538 631 455 0.572907 -0.819621<0 304.644 513.238 565.406>
LayerCount: 2
Fore
SplineSet
200 310 m 2,0,-1
 200 1200 l 2,1,2
 200 1383 200 1383 427 1477 c 0,3,4
 554 1530 554 1530 705 1530 c 128,-1,5
 856 1530 856 1530 983 1477 c 0,6,7
 1210 1383 1210 1383 1210 1200 c 2,8,-1
 1210 310 l 2,9,10
 1210 192 1210 192 1115 111 c 1,11,-1
 1163 43 l 1,12,-1
 987 -40 l 1,13,-1
 977 -40 l 1,14,-1
 938 16 l 1,15,16
 829 -20 829 -20 705 -20 c 0,17,18
 554 -20 554 -20 427 33 c 0,19,20
 200 127 200 127 200 310 c 2,0,-1
400 310 m 2,21,22
 400 241 400 241 521 193 c 0,23,24
 605 160 605 160 705 160 c 0,25,26
 770 160 770 160 828 174 c 1,27,-1
 631 455 l 1,28,-1
 807 538 l 1,29,-1
 817 538 l 1,30,-1
 1001 274 l 1,31,32
 1010 291 1010 291 1010 310 c 2,33,-1
 1010 1200 l 2,34,35
 1010 1268 1010 1268 889 1317 c 0,36,37
 805 1350 805 1350 705 1350 c 128,-1,38
 605 1350 605 1350 521 1317 c 0,39,40
 400 1269 400 1269 400 1200 c 2,41,-1
 400 310 l 2,21,22
EndSplineSet
Validated: 1
EndChar

StartChar: R
Encoding: 82 82 53
Width: 1364
GlyphClass: 2
Flags: W
HStem: -40 21G<200 252.222 1014 1080.41> 510 180<400 643> 1330 180<400 893.838>
VStem: 200 200<50 510 690 1330> 990 200<763.854 1255.8>
DStem2: 872 533 643 510 0.573462 -0.819232<0 558.88>
LayerCount: 2
Fore
SplineSet
400 690 m 1,0,-1
 685 690 l 2,1,2
 785 690 785 690 869 723 c 0,3,4
 990 771 990 771 990 840 c 2,5,-1
 990 1180 l 2,6,7
 990 1250 990 1250 869 1297 c 0,8,9
 785 1330 785 1330 685 1330 c 2,10,-1
 400 1330 l 1,11,-1
 400 690 l 1,0,-1
200 -40 m 1,12,-1
 200 1460 l 1,13,-1
 306 1510 l 1,14,-1
 685 1510 l 2,15,16
 836 1510 836 1510 963 1457 c 0,17,18
 1190 1363 1190 1363 1190 1180 c 2,19,-1
 1190 840 l 2,20,21
 1190 656 1190 656 963 563 c 0,22,23
 919 545 919 545 872 533 c 1,24,-1
 1214 43 l 1,25,-1
 1038 -40 l 1,26,-1
 1028 -40 l 1,27,-1
 643 510 l 1,28,-1
 400 510 l 1,29,-1
 400 50 l 1,30,-1
 210 -40 l 1,31,-1
 200 -40 l 1,12,-1
EndSplineSet
Validated: 1
EndChar

StartChar: S
Encoding: 83 83 54
Width: 1330
GlyphClass: 2
Flags: W
HStem: -20 180<456.07 873.93> 751 180<479.104 873.838> 1350 180<478.659 851.341>
VStem: 160 200<234.196 460> 250 200<967.819 1313.57> 880 200<1157 1313.18> 970 200<234.538 676.804>
LayerCount: 2
Fore
SplineSet
160 460 m 17,0,-1
 350 550 l 1,1,-1
 360 550 l 1,2,-1
 360 310 l 18,3,4
 360 241 360 241 481 193 c 0,5,6
 565 160 565 160 665 160 c 128,-1,7
 765 160 765 160 849 193 c 0,8,9
 970 241 970 241 970 310 c 2,10,-1
 970 601 l 2,11,12
 970 671 970 671 849 718 c 0,13,14
 765 751 765 751 665 751 c 0,15,16
 538 751 538 751 437 790 c 0,17,18
 250 864 250 864 250 996 c 2,19,-1
 250 1285 l 2,20,21
 250 1419 250 1419 437 1491 c 0,22,23
 538 1530 538 1530 665 1530 c 128,-1,24
 792 1530 792 1530 893 1491 c 0,25,26
 1080 1417 1080 1417 1080 1285 c 10,27,-1
 1080 1157 l 1,28,-1
 890 1067 l 1,29,-1
 880 1067 l 9,30,-1
 880 1250 l 18,31,32
 880 1300 880 1300 817.5 1325 c 128,-1,33
 755 1350 755 1350 665 1350 c 128,-1,34
 575 1350 575 1350 512.5 1325 c 128,-1,35
 450 1300 450 1300 450 1250 c 2,36,-1
 450 1031 l 2,37,38
 450 981 450 981 512.5 956 c 128,-1,39
 575 931 575 931 665 931 c 0,40,41
 816 931 816 931 943 878 c 0,42,43
 1170 784 1170 784 1170 601 c 2,44,-1
 1170 310 l 2,45,46
 1170 128 1170 128 943 33 c 0,47,48
 816 -20 816 -20 665 -20 c 128,-1,49
 514 -20 514 -20 387 33 c 0,50,51
 160 127 160 127 160 310 c 10,52,-1
 160 460 l 17,0,-1
EndSplineSet
Validated: 1
EndChar

StartChar: T
Encoding: 84 84 55
Width: 1066
GlyphClass: 2
Flags: W
HStem: -40 21G<433 485.222> 1328 182<86 433 633 980>
VStem: 433 200<50 1328>
LayerCount: 2
Fore
SplineSet
433 -40 m 1,0,-1
 433 1328 l 1,1,-1
 5 1328 l 1,2,-1
 5 1338 l 1,3,-1
 86 1510 l 1,4,-1
 1061 1510 l 1,5,-1
 1061 1500 l 1,6,-1
 980 1328 l 1,7,-1
 633 1328 l 1,8,-1
 633 50 l 1,9,-1
 443 -40 l 1,10,-1
 433 -40 l 1,0,-1
EndSplineSet
Validated: 1
EndChar

StartChar: U
Encoding: 85 85 56
Width: 1410
GlyphClass: 2
Flags: W
HStem: -20 180<496.07 913.93> 1530 20G<347.778 400 1157.78 1210>
VStem: 200 200<234.196 1460> 1010 200<234.196 1460>
LayerCount: 2
Fore
SplineSet
200 1460 m 25,0,-1
 390 1550 l 1,1,-1
 400 1550 l 9,2,-1
 400 310 l 2,3,4
 400 241 400 241 521 193 c 0,5,6
 605 160 605 160 705 160 c 128,-1,7
 805 160 805 160 889 193 c 0,8,9
 1010 241 1010 241 1010 310 c 2,10,-1
 1010 1460 l 25,11,-1
 1200 1550 l 1,12,-1
 1210 1550 l 9,13,-1
 1210 310 l 2,14,15
 1210 127 1210 127 983 33 c 0,16,17
 856 -20 856 -20 705 -20 c 128,-1,18
 554 -20 554 -20 427 33 c 0,19,20
 200 127 200 127 200 310 c 2,21,-1
 200 1460 l 25,0,-1
EndSplineSet
Validated: 1
EndChar

StartChar: V
Encoding: 86 86 57
Width: 1181
GlyphClass: 2
Flags: W
HStem: -40 21G<508.236 567.195> 1530 20G<135.805 194.592 986.774 1045.2>
DStem2: 188 1550 5 1468 0.320371 -0.947292<19.0501 1322.43>
LayerCount: 2
Fore
SplineSet
515 -40 m 1,0,-1
 5 1468 l 1,1,-1
 178 1550 l 1,2,-1
 188 1550 l 1,3,-1
 602 294 l 1,4,-1
 993 1550 l 1,5,-1
 1003 1550 l 1,6,-1
 1176 1468 l 1,7,-1
 698 42 l 1,8,-1
 525 -40 l 1,9,-1
 515 -40 l 1,0,-1
EndSplineSet
Validated: 1
EndChar

StartChar: W
Encoding: 87 87 58
Width: 2220
GlyphClass: 2
Flags: W
HStem: -20 180<496.07 914.125 1305.88 1723.93> 1530 20G<347.778 400 1157.78 1210 1967.78 2020>
VStem: 200 200<234.196 1460> 1010 200<233.704 1460> 1820 200<234.196 1460>
CounterMasks: 1 38
LayerCount: 2
Fore
SplineSet
200 1460 m 1,0,-1
 390 1550 l 1,1,-1
 400 1550 l 1,2,-1
 400 310 l 2,3,4
 400 241 400 241 521 193 c 0,5,6
 605 160 605 160 705 160 c 128,-1,7
 805 160 805 160 889 193 c 0,8,9
 1010 241 1010 241 1010 310 c 2,10,-1
 1010 1460 l 1,11,-1
 1200 1550 l 1,12,-1
 1210 1550 l 1,13,-1
 1210 310 l 2,14,15
 1210 241 1210 241 1331 193 c 0,16,17
 1415 160 1415 160 1515 160 c 128,-1,18
 1615 160 1615 160 1699 193 c 0,19,20
 1820 241 1820 241 1820 310 c 2,21,-1
 1820 1460 l 1,22,-1
 2010 1550 l 1,23,-1
 2020 1550 l 1,24,-1
 2020 310 l 2,25,26
 2020 127 2020 127 1793 33 c 0,27,28
 1666 -20 1666 -20 1515 -20 c 0,29,30
 1363 -20 1363 -20 1237 33 c 0,31,32
 1161 65 1161 65 1110 106 c 1,33,34
 1059 65 1059 65 983 33 c 0,35,36
 857 -20 857 -20 705 -20 c 0,37,38
 554 -20 554 -20 427 33 c 0,39,40
 200 127 200 127 200 310 c 2,41,-1
 200 1460 l 1,0,-1
EndSplineSet
Validated: 1
EndChar

StartChar: X
Encoding: 88 88 59
Width: 1278
GlyphClass: 2
Flags: W
HStem: -40 21G<231.561 295.489 982.511 1046.44> 578 354<462 816> 1530 20G<232.831 296.456 981.544 1045.17>
DStem2: 285 1550 100 1467 0.509537 -0.860449<0 712.133 1016.73 1729.38> 100 42 284 -40 0.509537 0.860449<23.1979 735.841 1040.44 1752.57>
LayerCount: 2
Fore
SplineSet
274 -40 m 1,0,-1
 100 42 l 1,1,-1
 522 755 l 1,2,-1
 100 1467 l 1,3,-1
 275 1550 l 1,4,-1
 285 1550 l 1,5,-1
 639 932 l 1,6,-1
 993 1550 l 1,7,-1
 1003 1550 l 1,8,-1
 1178 1467 l 1,9,-1
 756 755 l 1,10,-1
 1178 42 l 1,11,-1
 1004 -40 l 1,12,-1
 994 -40 l 1,13,-1
 639 578 l 1,14,-1
 284 -40 l 1,15,-1
 274 -40 l 1,0,-1
EndSplineSet
Validated: 1
EndChar

StartChar: Y
Encoding: 89 89 60
Width: 1310
GlyphClass: 2
Flags: W
HStem: -40 21G<555 607.222> 482 174<445.979 555 755 864.021> 1530 20G<297.778 350 1107.78 1160>
VStem: 150 200<729.854 1460> 555 200<50 488.888> 960 200<730.538 1460>
CounterMasks: 1 1c
LayerCount: 2
Fore
SplineSet
555 -40 m 1,0,-1
 555 482 l 1,1,2
 462 494 462 494 377 529 c 0,3,4
 150 622 150 622 150 806 c 2,5,-1
 150 1460 l 1,6,-1
 340 1550 l 1,7,-1
 350 1550 l 1,8,-1
 350 806 l 2,9,10
 350 737 350 737 471 689 c 0,11,12
 555 656 555 656 655 656 c 128,-1,13
 755 656 755 656 839 689 c 0,14,15
 960 737 960 737 960 806 c 2,16,-1
 960 1460 l 1,17,-1
 1150 1550 l 1,18,-1
 1160 1550 l 1,19,-1
 1160 806 l 2,20,21
 1160 624 1160 624 933 529 c 0,22,23
 849 494 849 494 755 482 c 1,24,-1
 755 50 l 1,25,-1
 565 -40 l 1,26,-1
 555 -40 l 1,0,-1
EndSplineSet
Validated: 1
EndChar

StartChar: Z
Encoding: 90 90 61
Width: 1267
GlyphClass: 2
Flags: W
HStem: 0 182<457 1036> 1328 182<241 797>
DStem2: 150 10 457 182 0.442307 0.896863<290.049 1468.24>
LayerCount: 2
Fore
SplineSet
150 0 m 1,0,-1
 150 10 l 1,1,-1
 797 1328 l 1,2,-1
 160 1328 l 1,3,-1
 160 1338 l 1,4,-1
 241 1510 l 1,5,-1
 1107 1510 l 1,6,-1
 1107 1500 l 1,7,-1
 457 182 l 1,8,-1
 1117 182 l 1,9,-1
 1117 172 l 1,10,-1
 1036 0 l 1,11,-1
 150 0 l 1,0,-1
EndSplineSet
Validated: 1
EndChar

StartChar: bracketleft
Encoding: 91 91 62
Width: 864
GlyphClass: 2
Flags: W
HStem: -240 140<400 753> 1610 140<400 753>
VStem: 200 200<-100 1610>
LayerCount: 2
Fore
SplineSet
200 -240 m 1,0,-1
 200 1660 l 1,1,-1
 390 1750 l 1,2,-1
 814 1750 l 1,3,-1
 814 1740 l 1,4,-1
 753 1610 l 1,5,-1
 400 1610 l 1,6,-1
 400 -100 l 1,7,-1
 814 -100 l 1,8,-1
 814 -110 l 1,9,-1
 753 -240 l 1,10,-1
 200 -240 l 1,0,-1
EndSplineSet
Validated: 3073
EndChar

StartChar: backslash
Encoding: 92 92 63
Width: 974
GlyphClass: 2
Flags: W
DStem2: 161 1650 10 1582 0.422626 -0.906304<0 1897.41>
LayerCount: 2
Fore
SplineSet
812 -140 m 1,0,-1
 10 1582 l 1,1,-1
 151 1650 l 1,2,-1
 161 1650 l 1,3,-1
 964 -72 l 1,4,-1
 822 -140 l 1,5,-1
 812 -140 l 1,0,-1
EndSplineSet
Validated: 3073
EndChar

StartChar: bracketright
Encoding: 93 93 64
Width: 864
GlyphClass: 2
Flags: W
HStem: -240 140<111 464> 1610 140<111 464>
VStem: 464 200<-100 1610>
LayerCount: 2
Fore
SplineSet
50 -240 m 1,0,-1
 50 -230 l 1,1,-1
 111 -100 l 1,2,-1
 464 -100 l 1,3,-1
 464 1610 l 1,4,-1
 50 1610 l 1,5,-1
 50 1620 l 1,6,-1
 111 1750 l 1,7,-1
 664 1750 l 1,8,-1
 664 -150 l 1,9,-1
 474 -240 l 1,10,-1
 50 -240 l 1,0,-1
EndSplineSet
Validated: 3073
EndChar

StartChar: asciicircum
Encoding: 94 94 65
Width: 1321
GlyphClass: 2
Flags: W
HStem: 1006 544
DStem2: 150 1088 333 1006 0.705239 0.70897<70.9231 529.119> 711 1550 659 1328 0.705571 -0.708639<120.628 580.943>
LayerCount: 2
Fore
SplineSet
150 1088 m 1,0,-1
 528 1468 l 1,1,-1
 701 1550 l 1,2,-1
 711 1550 l 1,3,-1
 1171 1088 l 1,4,-1
 998 1006 l 1,5,-1
 988 1006 l 1,6,-1
 659 1328 l 1,7,-1
 333 1006 l 1,8,-1
 323 1006 l 1,9,-1
 150 1088 l 1,0,-1
EndSplineSet
Validated: 1
EndChar

StartChar: underscore
Encoding: 95 95 66
Width: 1214
GlyphClass: 2
Flags: W
HStem: -410 182<231 983>
LayerCount: 2
Fore
SplineSet
150 -410 m 1,0,-1
 150 -400 l 1,1,-1
 231 -228 l 1,2,-1
 1064 -228 l 1,3,-1
 1064 -238 l 1,4,-1
 983 -410 l 1,5,-1
 150 -410 l 1,0,-1
EndSplineSet
Validated: 3073
EndChar

StartChar: grave
Encoding: 96 96 67
Width: 648
GlyphClass: 2
Flags: W
HStem: 1150 400
VStem: 150 348
LayerCount: 2
Fore
SplineSet
326 1550 m 1,0,-1
 336 1550 l 1,1,-1
 498 1205 l 1,2,-1
 381 1150 l 1,3,-1
 371 1150 l 1,4,-1
 150 1466 l 1,5,-1
 326 1550 l 1,0,-1
EndSplineSet
Validated: 3073
EndChar

StartChar: a
Encoding: 97 97 68
Width: 1060
GlyphClass: 2
Flags: W
HStem: -40 21G<710 762.222> -20 180<328.452 682.265> 560 180<328.34 680.866> 940 180<332 680.896>
VStem: 100 200<196.819 523.571> 710 200<193.423 526.577 706 903.571>
LayerCount: 2
Fore
SplineSet
910 50 m 1,0,-1
 720 -40 l 1,1,-1
 710 -40 l 1,2,-1
 710 14 l 1,3,4
 614 -20 614 -20 505 -20 c 0,5,6
 388 -20 388 -20 287 19 c 0,7,8
 100 93 100 93 100 225 c 2,9,-1
 100 495 l 2,10,11
 100 629 100 629 287 701 c 0,12,13
 388 740 388 740 505 740 c 0,14,15
 615 740 615 740 710 706 c 1,16,-1
 710 840 l 2,17,18
 710 890 710 890 647.5 915 c 128,-1,19
 585 940 585 940 495 940 c 2,20,-1
 252 940 l 1,21,-1
 252 950 l 1,22,-1
 332 1120 l 1,23,-1
 495 1120 l 2,24,25
 622 1120 622 1120 723 1081 c 0,26,27
 910 1009 910 1009 910 875 c 2,28,-1
 910 50 l 1,0,-1
300 260 m 2,29,30
 300 210 300 210 362.5 185 c 128,-1,31
 425 160 425 160 505 160 c 128,-1,32
 585 160 585 160 647.5 185 c 128,-1,33
 710 210 710 210 710 260 c 2,34,-1
 710 460 l 2,35,36
 710 510 710 510 647.5 535 c 128,-1,37
 585 560 585 560 505 560 c 128,-1,38
 425 560 425 560 362 535 c 0,39,40
 300 510 300 510 300 460 c 2,41,-1
 300 260 l 2,29,30
EndSplineSet
Validated: 1
EndChar

StartChar: b
Encoding: 98 98 69
Width: 1180
GlyphClass: 2
Flags: W
HStem: -20 180<428.659 801.341> 940 180<427.834 801.341> 1530 20G<347.778 400>
VStem: 200 200<196.819 906.577 1086 1460> 830 200<196.429 903.181>
LayerCount: 2
Fore
SplineSet
200 225 m 2,0,-1
 200 1460 l 1,1,-1
 390 1550 l 1,2,-1
 400 1550 l 1,3,-1
 400 1086 l 1,4,5
 496 1120 496 1120 615 1120 c 0,6,7
 742 1120 742 1120 843 1081 c 0,8,9
 1030 1007 1030 1007 1030 875 c 2,10,-1
 1030 225 l 2,11,12
 1030 91 1030 91 843 19 c 0,13,14
 742 -20 742 -20 615 -20 c 128,-1,15
 488 -20 488 -20 387 19 c 0,16,17
 200 93 200 93 200 225 c 2,0,-1
400 840 m 2,18,-1
 400 260 l 2,19,20
 400 210 400 210 462.5 185 c 128,-1,21
 525 160 525 160 615 160 c 128,-1,22
 705 160 705 160 767.5 185 c 128,-1,23
 830 210 830 210 830 260 c 2,24,-1
 830 840 l 2,25,26
 830 890 830 890 767.5 915 c 128,-1,27
 705 940 705 940 615 940 c 128,-1,28
 525 940 525 940 462.5 915 c 128,-1,29
 400 890 400 890 400 840 c 2,18,-1
EndSplineSet
Validated: 1
EndChar

StartChar: c
Encoding: 99 99 70
Width: 1130
GlyphClass: 2
Flags: W
HStem: -20 180<378.659 751.341> 940 180<378.659 751.341>
VStem: 150 200<196.819 903.181> 780 200<196.819 353 747 903.181>
LayerCount: 2
Fore
SplineSet
980 443 m 1,0,-1
 980 225 l 2,1,2
 980 93 980 93 793 19 c 0,3,4
 692 -20 692 -20 565 -20 c 128,-1,5
 438 -20 438 -20 337 19 c 0,6,7
 150 93 150 93 150 225 c 2,8,-1
 150 875 l 2,9,10
 150 1007 150 1007 337 1081 c 0,11,12
 438 1120 438 1120 565 1120 c 128,-1,13
 692 1120 692 1120 793 1081 c 0,14,15
 980 1007 980 1007 980 875 c 10,16,-1
 980 747 l 1,17,-1
 790 657 l 1,18,-1
 780 657 l 9,19,-1
 780 840 l 18,20,21
 780 890 780 890 717.5 915 c 128,-1,22
 655 940 655 940 565 940 c 128,-1,23
 475 940 475 940 412.5 915 c 128,-1,24
 350 890 350 890 350 840 c 2,25,-1
 350 260 l 2,26,27
 350 210 350 210 412.5 185 c 128,-1,28
 475 160 475 160 565 160 c 128,-1,29
 655 160 655 160 717.5 185 c 128,-1,30
 780 210 780 210 780 260 c 10,31,-1
 780 353 l 17,32,-1
 970 443 l 1,33,-1
 980 443 l 1,0,-1
EndSplineSet
Validated: 1
EndChar

StartChar: d
Encoding: 100 100 71
Width: 1180
GlyphClass: 2
Flags: W
HStem: -20 180<378.659 751.341> 940 180<378.659 752.166> 1530 20G<927.778 980>
VStem: 150 200<196.819 903.571> 780 200<196.429 906.577 1086 1460>
LayerCount: 2
Fore
SplineSet
150 225 m 2,0,1
 150 875 l 2,2,3
 150 1009 150 1009 337 1081 c 0,4,5
 438 1120 438 1120 565 1120 c 0,6,7
 684 1120 684 1120 780 1086 c 1,8,-1
 780 1460 l 1,9,-1
 970 1550 l 1,10,-1
 980 1550 l 1,11,-1
 980 225 l 2,12,13
 980 91 980 91 793 19 c 0,14,15
 692 -20 692 -20 565 -20 c 128,-1,16
 438 -20 438 -20 337 19 c 0,17,18
 150 93 150 93 150 225 c 2,0,1
350 260 m 2,19,20
 350 210 350 210 412.5 185 c 128,-1,21
 475 160 475 160 565 160 c 128,-1,22
 655 160 655 160 717.5 185 c 128,-1,23
 780 210 780 210 780 260 c 2,24,-1
 780 840 l 2,25,26
 780 890 780 890 717.5 915 c 128,-1,27
 655 940 655 940 565 940 c 128,-1,28
 475 940 475 940 412.5 915 c 128,-1,29
 350 890 350 890 350 840 c 2,30,-1
 350 260 l 2,19,20
EndSplineSet
Validated: 1
EndChar

StartChar: e
Encoding: 101 101 72
Width: 1130
GlyphClass: 2
Flags: W
HStem: -20 180<378.659 751.341> 940 180<378.659 751.341>
VStem: 150 200<196.819 260 471 903.181> 780 200<196.819 353 817 903.181>
DStem2: 350 471 350 260 0.791175 0.61159<0 551.815>
LayerCount: 2
Fore
SplineSet
980 443 m 1,0,-1
 980 225 l 2,1,2
 980 93 980 93 793 19 c 0,3,4
 692 -20 692 -20 565 -20 c 128,-1,5
 438 -20 438 -20 337 19 c 0,6,7
 150 93 150 93 150 225 c 2,8,-1
 150 875 l 2,9,10
 150 1007 150 1007 337 1081 c 0,11,12
 438 1120 438 1120 565 1120 c 128,-1,13
 692 1120 692 1120 793 1081 c 0,14,15
 980 1007 980 1007 980 875 c 2,16,-1
 980 747 l 1,17,-1
 350 260 l 1,18,19
 350 210 350 210 412.5 185 c 128,-1,20
 475 160 475 160 565 160 c 128,-1,21
 655 160 655 160 717.5 185 c 128,-1,22
 780 210 780 210 780 260 c 2,23,-1
 780 353 l 1,24,-1
 970 443 l 1,25,-1
 980 443 l 1,0,-1
350 471 m 1,26,-1
 780 817 l 1,27,-1
 780 840 l 2,28,29
 780 890 780 890 717.5 915 c 128,-1,30
 655 940 655 940 565 940 c 128,-1,31
 475 940 475 940 412.5 915 c 128,-1,32
 350 890 350 890 350 840 c 2,33,-1
 350 471 l 1,26,-1
EndSplineSet
Validated: 1
EndChar

StartChar: f
Encoding: 102 102 73
Width: 850
GlyphClass: 2
Flags: W
HStem: -40 21G<200 252.222> 818 182<131 200 400 650> 1350 180<429.104 670>
VStem: 200 200<50 818 1000 1313.57>
LayerCount: 2
Fore
SplineSet
200 -40 m 1,0,-1
 200 818 l 1,1,-1
 50 818 l 1,2,-1
 50 828 l 1,3,-1
 131 1000 l 1,4,-1
 200 1000 l 1,5,-1
 200 1285 l 2,6,7
 200 1419 200 1419 387 1491 c 0,8,9
 488 1530 488 1530 615 1530 c 2,10,-1
 750 1530 l 1,11,-1
 750 1520 l 1,12,-1
 670 1350 l 1,13,-1
 615 1350 l 2,14,15
 525 1350 525 1350 462.5 1325 c 128,-1,16
 400 1300 400 1300 400 1250 c 2,17,-1
 400 1000 l 1,18,-1
 731 1000 l 1,19,-1
 731 990 l 1,20,-1
 650 818 l 1,21,-1
 400 818 l 1,22,-1
 400 50 l 1,23,-1
 210 -40 l 1,24,-1
 200 -40 l 1,0,-1
EndSplineSet
Validated: 1
EndChar

StartChar: g
Encoding: 103 103 74
Width: 1160
GlyphClass: 2
Flags: W
HStem: -430 180<334 750.896> -20 180<378.659 752.279> 940 180<378.659 751.341>
VStem: 150 200<196.819 903.571> 780 200<-213.571 14 193.423 903.181>
LayerCount: 2
Fore
SplineSet
150 225 m 2,0,-1
 150 875 l 2,1,2
 150 1009 150 1009 337 1081 c 0,3,4
 438 1120 438 1120 565 1120 c 128,-1,5
 692 1120 692 1120 793 1081 c 0,6,7
 980 1007 980 1007 980 875 c 2,8,-1
 980 -185 l 2,9,10
 980 -319 980 -319 793 -391 c 0,11,12
 692 -430 692 -430 565 -430 c 2,13,-1
 254 -430 l 1,14,-1
 254 -420 l 1,15,-1
 334 -250 l 1,16,-1
 565 -250 l 2,17,18
 655 -250 655 -250 717.5 -225 c 128,-1,19
 780 -200 780 -200 780 -150 c 2,20,-1
 780 14 l 1,21,22
 684 -20 684 -20 565 -20 c 0,23,24
 438 -20 438 -20 337 19 c 0,25,26
 150 93 150 93 150 225 c 2,0,-1
350 260 m 2,27,28
 350 210 350 210 412.5 185 c 128,-1,29
 475 160 475 160 565 160 c 0,30,31
 656 160 656 160 718 185 c 128,-1,32
 780 210 780 210 780 260 c 2,33,-1
 780 840 l 2,34,35
 780 890 780 890 717.5 915 c 128,-1,36
 655 940 655 940 565 940 c 128,-1,37
 475 940 475 940 412.5 915 c 128,-1,38
 350 890 350 890 350 840 c 2,39,-1
 350 260 l 2,27,28
EndSplineSet
Validated: 1
EndChar

StartChar: h
Encoding: 104 104 75
Width: 1180
GlyphClass: 2
Flags: W
HStem: -40 21G<200 252.222 830 882.222> 940 180<427.834 801.341> 1530 20G<347.778 400>
VStem: 200 200<50 906.577 1086 1460> 830 200<50 903.571>
LayerCount: 2
Fore
SplineSet
200 -40 m 1,0,-1
 200 1460 l 1,1,-1
 390 1550 l 1,2,-1
 400 1550 l 1,3,-1
 400 1086 l 1,4,5
 496 1120 496 1120 615 1120 c 0,6,7
 742 1120 742 1120 843 1081 c 0,8,9
 1030 1009 1030 1009 1030 875 c 2,10,-1
 1030 50 l 1,11,-1
 840 -40 l 1,12,-1
 830 -40 l 1,13,-1
 830 840 l 2,14,15
 830 890 830 890 767.5 915 c 128,-1,16
 705 940 705 940 615 940 c 128,-1,17
 525 940 525 940 462.5 915 c 128,-1,18
 400 890 400 890 400 840 c 2,19,-1
 400 50 l 1,20,-1
 210 -40 l 1,21,-1
 200 -40 l 1,0,-1
EndSplineSet
Validated: 1
EndChar

StartChar: i
Encoding: 105 105 76
Width: 600
GlyphClass: 2
Flags: W
HStem: -40 21G<200 252.222> 1120 20G<347.778 400> 1285 245<216.097 383.903>
VStem: 180 240<1322.13 1492.87> 200 200<50 1050>
LayerCount: 2
Fore
SplineSet
180 1407.5 m 128,-1,1
 180 1458 180 1458 215 1494 c 128,-1,2
 250 1530 250 1530 300 1530 c 128,-1,3
 350 1530 350 1530 385 1494 c 128,-1,4
 420 1458 420 1458 420 1407.5 c 128,-1,5
 420 1357 420 1357 385 1321 c 128,-1,6
 350 1285 350 1285 300 1285 c 128,-1,7
 250 1285 250 1285 215 1321 c 128,-1,0
 180 1357 180 1357 180 1407.5 c 128,-1,1
200 -40 m 1,8,-1
 200 1050 l 1,9,-1
 390 1140 l 1,10,-1
 400 1140 l 1,11,-1
 400 50 l 1,12,-1
 210 -40 l 1,13,-1
 200 -40 l 1,8,-1
EndSplineSet
Validated: 1
EndChar

StartChar: j
Encoding: 106 106 77
Width: 600
GlyphClass: 2
Flags: W
HStem: -430 21G<-15 48.5> 1120 20G<347.778 400> 1285 245<216.097 383.903>
VStem: 180 240<1322.13 1492.87> 200 200<-213.571 1050>
LayerCount: 2
Fore
SplineSet
200 1050 m 1,0,-1
 390 1140 l 1,1,-1
 400 1140 l 1,2,-1
 400 -185 l 2,3,4
 400 -319 400 -319 213 -391 c 0,5,6
 112 -430 112 -430 -15 -430 c 1,7,-1
 -15 -420 l 1,8,-1
 68 -244 l 1,9,10
 106 -238 106 -238 138 -225 c 0,11,12
 200 -199 200 -199 200 -150 c 2,13,-1
 200 1050 l 1,0,-1
180 1407.5 m 128,-1,15
 180 1458 180 1458 215 1494 c 128,-1,16
 250 1530 250 1530 300 1530 c 128,-1,17
 350 1530 350 1530 385 1494 c 128,-1,18
 420 1458 420 1458 420 1407.5 c 128,-1,19
 420 1357 420 1357 385 1321 c 128,-1,20
 350 1285 350 1285 300 1285 c 128,-1,21
 250 1285 250 1285 215 1321 c 128,-1,14
 180 1357 180 1357 180 1407.5 c 128,-1,15
EndSplineSet
Validated: 1
EndChar

StartChar: k
Encoding: 107 107 78
Width: 1180
GlyphClass: 2
Flags: W
HStem: -40 21G<200 252.222 830 882.222> 1120 20G<798.236 870.41> 1530 20G<347.778 400>
VStem: 200 200<50 537.577 717 1460> 830 200<50 534.766>
LayerCount: 2
Fore
SplineSet
200 -40 m 1,0,-1
 200 1460 l 1,1,-1
 390 1550 l 1,2,-1
 400 1550 l 1,3,-1
 400 717 l 1,4,-1
 818 1140 l 1,5,-1
 828 1140 l 1,6,-1
 1004 1057 l 1,7,-1
 669 749 l 1,8,9
 764 742 764 742 843 712 c 0,10,11
 1030 641 1030 641 1030 506 c 2,12,-1
 1030 50 l 1,13,-1
 840 -40 l 1,14,-1
 830 -40 l 1,15,-1
 830 471 l 2,16,17
 830 521 830 521 767.5 546 c 128,-1,18
 705 571 705 571 615 571 c 128,-1,19
 525 571 525 571 462.5 546 c 128,-1,20
 400 521 400 521 400 471 c 2,21,-1
 400 50 l 1,22,-1
 210 -40 l 1,23,-1
 200 -40 l 1,0,-1
EndSplineSet
Validated: 1
EndChar

StartChar: l
Encoding: 108 108 79
Width: 600
GlyphClass: 2
Flags: W
HStem: -40 21G<200 252.222> 1530 20G<347.778 400>
VStem: 200 200<50 1460>
LayerCount: 2
Fore
SplineSet
200 -40 m 1,0,-1
 200 1460 l 1,1,-1
 390 1550 l 1,2,-1
 400 1550 l 1,3,-1
 400 50 l 1,4,-1
 210 -40 l 1,5,-1
 200 -40 l 1,0,-1
EndSplineSet
Validated: 3073
EndChar

StartChar: m
Encoding: 109 109 80
Width: 1760
GlyphClass: 2
Flags: W
HStem: -40 21G<150 202.222 780 832.222 1410 1462.22> 940 180<378.659 751.018 1008.98 1381.34>
VStem: 150 200<50 903.571> 780 200<50 906.577> 1410 200<50 903.571>
CounterMasks: 1 38
LayerCount: 2
Fore
SplineSet
150 -40 m 1,0,-1
 150 875 l 2,1,2
 150 1009 150 1009 337 1081 c 0,3,4
 438 1120 438 1120 565 1120 c 0,5,6
 690 1120 690 1120 793 1081 c 0,7,8
 843 1062 843 1062 880 1038 c 1,9,10
 917 1062 917 1062 967 1081 c 0,11,12
 1070 1120 1070 1120 1195 1120 c 0,13,14
 1322 1120 1322 1120 1423 1081 c 0,15,16
 1610 1009 1610 1009 1610 875 c 2,17,-1
 1610 50 l 1,18,-1
 1420 -40 l 1,19,-1
 1410 -40 l 1,20,-1
 1410 840 l 2,21,22
 1410 890 1410 890 1347.5 915 c 128,-1,23
 1285 940 1285 940 1195 940 c 128,-1,24
 1105 940 1105 940 1042.5 915 c 128,-1,25
 980 890 980 890 980 840 c 2,26,-1
 980 50 l 1,27,-1
 790 -40 l 1,28,-1
 780 -40 l 1,29,-1
 780 840 l 2,30,31
 780 890 780 890 717.5 915 c 128,-1,32
 655 940 655 940 565 940 c 128,-1,33
 475 940 475 940 412.5 915 c 128,-1,34
 350 890 350 890 350 840 c 2,35,-1
 350 50 l 1,36,-1
 160 -40 l 1,37,-1
 150 -40 l 1,0,-1
EndSplineSet
Validated: 1
EndChar

StartChar: n
Encoding: 110 110 81
Width: 1130
GlyphClass: 2
Flags: W
HStem: -40 21G<150 202.222 780 832.222> 940 180<378.659 751.341>
VStem: 150 200<50 903.571> 780 200<50 903.571>
LayerCount: 2
Fore
SplineSet
150 -40 m 9,0,-1
 150 875 l 2,1,2
 150 1009 150 1009 337 1081 c 0,3,4
 438 1120 438 1120 565 1120 c 128,-1,5
 692 1120 692 1120 793 1081 c 0,6,7
 980 1009 980 1009 980 875 c 2,8,-1
 980 50 l 17,9,-1
 790 -40 l 1,10,-1
 780 -40 l 9,11,-1
 780 840 l 2,12,13
 780 890 780 890 717.5 915 c 128,-1,14
 655 940 655 940 565 940 c 128,-1,15
 475 940 475 940 412.5 915 c 128,-1,16
 350 890 350 890 350 840 c 2,17,-1
 350 50 l 17,18,-1
 160 -40 l 1,19,-1
 150 -40 l 9,0,-1
EndSplineSet
Validated: 1
EndChar

StartChar: o
Encoding: 111 111 82
Width: 1130
GlyphClass: 2
Flags: W
HStem: -20 180<378.659 751.341> 940 180<378.659 751.341>
VStem: 150 200<196.819 903.181> 780 200<196.819 903.181>
LayerCount: 2
Fore
SplineSet
350 260 m 2,0,1
 350 210 350 210 412.5 185 c 128,-1,2
 475 160 475 160 565 160 c 128,-1,3
 655 160 655 160 717.5 185 c 128,-1,4
 780 210 780 210 780 260 c 10,5,-1
 780 840 l 2,6,7
 780 890 780 890 717.5 915 c 128,-1,8
 655 940 655 940 565 940 c 128,-1,9
 475 940 475 940 412.5 915 c 128,-1,10
 350 890 350 890 350 840 c 2,11,-1
 350 260 l 2,0,1
150 225 m 2,12,-1
 150 875 l 2,13,14
 150 1007 150 1007 337 1081 c 0,15,16
 438 1120 438 1120 565 1120 c 128,-1,17
 692 1120 692 1120 793 1081 c 0,18,19
 980 1007 980 1007 980 875 c 2,20,-1
 980 225 l 2,21,22
 980 93 980 93 793 19 c 0,23,24
 692 -20 692 -20 565 -20 c 128,-1,25
 438 -20 438 -20 337 19 c 0,26,27
 150 93 150 93 150 225 c 2,12,-1
EndSplineSet
Validated: 1
EndChar

StartChar: p
Encoding: 112 112 83
Width: 1180
GlyphClass: 2
Flags: W
HStem: -450 21G<200 252.222> -20 180<427.834 801.341> 940 180<428.659 801.341>
VStem: 200 200<-360 14 193.423 903.571> 830 200<196.429 903.181>
LayerCount: 2
Fore
SplineSet
1030 875 m 2,0,1
 1030 225 l 2,2,3
 1030 91 1030 91 843 19 c 0,4,5
 742 -20 742 -20 615 -20 c 0,6,7
 496 -20 496 -20 400 14 c 1,8,-1
 400 -360 l 1,9,-1
 210 -450 l 1,10,-1
 200 -450 l 1,11,-1
 200 875 l 2,12,13
 200 1009 200 1009 387 1081 c 0,14,15
 488 1120 488 1120 615 1120 c 128,-1,16
 742 1120 742 1120 843 1081 c 0,17,18
 1030 1007 1030 1007 1030 875 c 2,0,1
830 840 m 2,19,20
 830 890 830 890 767.5 915 c 128,-1,21
 705 940 705 940 615 940 c 128,-1,22
 525 940 525 940 462.5 915 c 128,-1,23
 400 890 400 890 400 840 c 2,24,-1
 400 260 l 2,25,26
 400 210 400 210 462.5 185 c 128,-1,27
 525 160 525 160 615 160 c 128,-1,28
 705 160 705 160 767.5 185 c 128,-1,29
 830 210 830 210 830 260 c 2,30,-1
 830 840 l 2,19,20
EndSplineSet
Validated: 1
EndChar

StartChar: q
Encoding: 113 113 84
Width: 1180
GlyphClass: 2
Flags: W
HStem: -450 21G<780 832.222> -20 180<378.659 752.166> 940 180<378.659 751.341>
VStem: 150 200<196.819 903.571> 780 200<-360 14 193.423 903.181>
LayerCount: 2
Fore
SplineSet
150 225 m 2,0,-1
 150 875 l 2,1,2
 150 1009 150 1009 337 1081 c 0,3,4
 438 1120 438 1120 565 1120 c 128,-1,5
 692 1120 692 1120 793 1081 c 0,6,7
 980 1007 980 1007 980 875 c 2,8,-1
 980 -360 l 1,9,-1
 790 -450 l 1,10,-1
 780 -450 l 1,11,-1
 780 14 l 1,12,13
 684 -20 684 -20 565 -20 c 0,14,15
 438 -20 438 -20 337 19 c 0,16,17
 150 93 150 93 150 225 c 2,0,-1
350 260 m 2,18,19
 350 210 350 210 412.5 185 c 128,-1,20
 475 160 475 160 565 160 c 128,-1,21
 655 160 655 160 717.5 185 c 128,-1,22
 780 210 780 210 780 260 c 2,23,-1
 780 840 l 2,24,25
 780 890 780 890 717.5 915 c 128,-1,26
 655 940 655 940 565 940 c 128,-1,27
 475 940 475 940 412.5 915 c 128,-1,28
 350 890 350 890 350 840 c 2,29,-1
 350 260 l 2,18,19
EndSplineSet
Validated: 1
EndChar

StartChar: r
Encoding: 114 114 85
Width: 720
GlyphClass: 2
Flags: W
HStem: -40 21G<150 202.222> 940 180<379.104 620>
VStem: 150 200<50 903.571>
LayerCount: 2
Fore
SplineSet
150 -40 m 9,0,-1
 150 875 l 2,1,2
 150 1009 150 1009 337 1081 c 0,3,4
 438 1120 438 1120 565 1120 c 9,5,-1
 700 1120 l 1,6,-1
 700 1110 l 1,7,-1
 620 940 l 1,8,-1
 565 940 l 1,9,10
 475 940 475 940 412.5 915 c 128,-1,11
 350 890 350 890 350 840 c 2,12,-1
 350 50 l 17,13,-1
 160 -40 l 1,14,-1
 150 -40 l 9,0,-1
EndSplineSet
Validated: 1
EndChar

StartChar: s
Encoding: 115 115 86
Width: 1070
GlyphClass: 2
Flags: W
HStem: -20 180<348.659 721.454> 516 180<404.293 719.896> 940 180<394.587 650.039>
VStem: 120 200<196.819 353> 162 200<721.787 913.633> 750 200<196.624 479.571>
LayerCount: 2
Fore
SplineSet
120 353 m 1,0,-1
 310 443 l 1,1,-1
 320 443 l 9,2,-1
 320 260 l 18,3,4
 320 210 320 210 382.5 185 c 128,-1,5
 445 160 445 160 535 160 c 0,6,7
 628 160 628 160 688 185 c 0,8,9
 750 211 750 211 750 260 c 2,10,-1
 750 416 l 2,11,12
 750 465 750 465 686 491 c 0,13,14
 624 516 624 516 534 516 c 0,15,16
 435 516 435 516 337 555 c 0,17,18
 162 626 162 626 162 761 c 2,19,-1
 162 875 l 2,20,21
 162 1003 162 1003 328 1075 c 0,22,23
 431 1120 431 1120 535 1120 c 0,24,25
 634 1120 634 1120 706 1090 c 0,26,27
 879 1016 879 1016 879 875 c 1,28,-1
 689 785 l 1,29,-1
 679 785 l 1,30,-1
 679 840 l 2,31,32
 679 898 679 898 638 919 c 128,-1,33
 597 940 597 940 535 940 c 0,34,35
 449 940 449 940 405 915 c 0,36,37
 362 890 362 890 362 840 c 2,38,-1
 362 796 l 2,39,40
 362 746 362 746 403 721 c 128,-1,41
 444 696 444 696 534 696 c 0,42,43
 661 696 661 696 762 657 c 0,44,45
 950 585 950 585 950 451 c 2,46,-1
 950 225 l 2,47,48
 950 92 950 92 763 19 c 0,49,50
 662 -20 662 -20 535 -20 c 128,-1,51
 408 -20 408 -20 307 19 c 0,52,53
 120 93 120 93 120 225 c 10,54,-1
 120 353 l 1,0,-1
EndSplineSet
Validated: 1
EndChar

StartChar: t
Encoding: 116 116 87
Width: 764
GlyphClass: 2
Flags: W
HStem: -40 21G<282 334.222> 918 182<106 282 482 658> 1530 20G<429.778 482>
VStem: 282 200<50 918 1100 1460>
LayerCount: 2
Fore
SplineSet
282 -40 m 1,0,-1
 282 918 l 1,1,-1
 25 918 l 1,2,-1
 25 928 l 1,3,-1
 106 1100 l 1,4,-1
 282 1100 l 1,5,-1
 282 1460 l 1,6,-1
 472 1550 l 1,7,-1
 482 1550 l 1,8,-1
 482 1100 l 1,9,-1
 739 1100 l 1,10,-1
 739 1090 l 1,11,-1
 658 918 l 1,12,-1
 482 918 l 1,13,-1
 482 50 l 1,14,-1
 292 -40 l 1,15,-1
 282 -40 l 1,0,-1
EndSplineSet
Validated: 1
EndChar

StartChar: u
Encoding: 117 117 88
Width: 1130
GlyphClass: 2
Flags: W
HStem: -20 180<378.659 751.341> 1120 20G<297.778 350 927.778 980>
VStem: 150 200<196.429 1050> 780 200<196.429 1050>
LayerCount: 2
Fore
SplineSet
150 1050 m 17,0,-1
 340 1140 l 1,1,-1
 350 1140 l 9,2,-1
 350 260 l 2,3,4
 350 210 350 210 412.5 185 c 128,-1,5
 475 160 475 160 565 160 c 128,-1,6
 655 160 655 160 717.5 185 c 128,-1,7
 780 210 780 210 780 260 c 2,8,-1
 780 1050 l 17,9,-1
 970 1140 l 1,10,-1
 980 1140 l 9,11,-1
 980 225 l 2,12,13
 980 91 980 91 793 19 c 0,14,15
 692 -20 692 -20 565 -20 c 128,-1,16
 438 -20 438 -20 337 19 c 0,17,18
 150 91 150 91 150 225 c 2,19,-1
 150 1050 l 17,0,-1
EndSplineSet
Validated: 1
EndChar

StartChar: v
Encoding: 118 118 89
Width: 1026
GlyphClass: 2
Flags: W
HStem: -40 21G<428.969 488.195> 1120 20G<180.805 239.787 786.357 845.195>
DStem2: 233 1140 50 1058 0.331651 -0.943402<16.6668 880.655> 516 306 619 42 0.331508 0.943452<0 861.97>
LayerCount: 2
Fore
SplineSet
436 -40 m 1,0,-1
 50 1058 l 1,1,-1
 223 1140 l 1,2,-1
 233 1140 l 1,3,-1
 516 306 l 1,4,-1
 793 1140 l 1,5,-1
 803 1140 l 1,6,-1
 976 1058 l 1,7,-1
 619 42 l 1,8,-1
 446 -40 l 1,9,-1
 436 -40 l 1,0,-1
EndSplineSet
Validated: 1
EndChar

StartChar: w
Encoding: 119 119 90
Width: 1760
GlyphClass: 2
Flags: W
HStem: -20 180<378.659 751.018 1008.98 1381.34> 1120 20G<297.778 350 927.778 980 1557.78 1610>
VStem: 150 200<196.429 1050> 780 200<193.423 1050> 1410 200<196.429 1050>
CounterMasks: 1 38
LayerCount: 2
Fore
SplineSet
150 1050 m 1,0,-1
 340 1140 l 1,1,-1
 350 1140 l 1,2,-1
 350 260 l 2,3,4
 350 210 350 210 412.5 185 c 128,-1,5
 475 160 475 160 565 160 c 128,-1,6
 655 160 655 160 717.5 185 c 128,-1,7
 780 210 780 210 780 260 c 2,8,-1
 780 1050 l 1,9,-1
 970 1140 l 1,10,-1
 980 1140 l 1,11,-1
 980 260 l 2,12,13
 980 210 980 210 1042.5 185 c 128,-1,14
 1105 160 1105 160 1195 160 c 128,-1,15
 1285 160 1285 160 1347.5 185 c 128,-1,16
 1410 210 1410 210 1410 260 c 2,17,-1
 1410 1050 l 1,18,-1
 1600 1140 l 1,19,-1
 1610 1140 l 1,20,-1
 1610 225 l 2,21,22
 1610 91 1610 91 1423 19 c 0,23,24
 1322 -20 1322 -20 1195 -20 c 0,25,26
 1070 -20 1070 -20 967 19 c 0,27,28
 917 38 917 38 880 62 c 1,29,30
 843 38 843 38 793 19 c 0,31,32
 690 -20 690 -20 565 -20 c 0,33,34
 438 -20 438 -20 337 19 c 0,35,36
 150 91 150 91 150 225 c 2,37,-1
 150 1050 l 1,0,-1
EndSplineSet
Validated: 1
EndChar

StartChar: x
Encoding: 120 120 91
Width: 1015
GlyphClass: 2
Flags: W
HStem: -40 21G<211.561 275.402 739.645 803.439> 1120 20G<212.831 276.382 738.665 802.169>
DStem2: 265 1140 80 1057 0.521796 -0.85307<0 491.057 768.305 1260.22> 80 42 264 -40 0.520884 0.853628<25.8452 518.293 795.722 1286.28>
LayerCount: 2
Fore
SplineSet
264 -40 m 1,0,-1
 254 -40 l 1,1,-1
 80 42 l 1,2,-1
 390 550 l 1,3,-1
 80 1057 l 1,4,-1
 255 1140 l 1,5,-1
 265 1140 l 1,6,-1
 508 713 l 1,7,-1
 750 1140 l 1,8,-1
 760 1140 l 1,9,-1
 935 1057 l 1,10,-1
 625 550 l 1,11,-1
 935 42 l 1,12,-1
 761 -40 l 1,13,-1
 751 -40 l 1,14,-1
 508 388 l 1,15,-1
 264 -40 l 1,0,-1
EndSplineSet
Validated: 1
EndChar

StartChar: y
Encoding: 121 121 92
Width: 1180
GlyphClass: 2
Flags: W
HStem: -430 180<334 750.896> -20 180<378.659 752.166> 1120 20G<297.778 350 927.778 980>
VStem: 150 200<196.429 1050> 780 200<-213.571 14 193.423 1050>
LayerCount: 2
Fore
SplineSet
150 1050 m 1,0,-1
 340 1140 l 1,1,-1
 350 1140 l 1,2,-1
 350 260 l 2,3,4
 350 210 350 210 412.5 185 c 128,-1,5
 475 160 475 160 565 160 c 128,-1,6
 655 160 655 160 717.5 185 c 128,-1,7
 780 210 780 210 780 260 c 2,8,-1
 780 1050 l 1,9,-1
 970 1140 l 1,10,-1
 980 1140 l 1,11,-1
 980 -185 l 2,12,13
 980 -319 980 -319 793 -391 c 0,14,15
 692 -430 692 -430 565 -430 c 2,16,-1
 254 -430 l 1,17,-1
 254 -420 l 1,18,-1
 334 -250 l 1,19,-1
 565 -250 l 2,20,21
 655 -250 655 -250 717.5 -225 c 128,-1,22
 780 -200 780 -200 780 -150 c 2,23,-1
 780 14 l 1,24,25
 684 -20 684 -20 565 -20 c 0,26,27
 438 -20 438 -20 337 19 c 0,28,29
 150 91 150 91 150 225 c 2,30,-1
 150 1050 l 1,0,-1
EndSplineSet
Validated: 1
EndChar

StartChar: z
Encoding: 122 122 93
Width: 1053
GlyphClass: 2
Flags: W
HStem: 0 182<421 872> 918 182<191 623>
DStem2: 100 10 421 182 0.499116 0.866535<309.26 1047.85>
LayerCount: 2
Fore
SplineSet
100 0 m 1,0,-1
 100 10 l 1,1,-1
 623 918 l 1,2,-1
 110 918 l 1,3,-1
 110 928 l 1,4,-1
 191 1100 l 1,5,-1
 943 1100 l 1,6,-1
 943 1090 l 1,7,-1
 421 182 l 1,8,-1
 953 182 l 1,9,-1
 953 172 l 1,10,-1
 872 0 l 1,11,-1
 100 0 l 1,0,-1
EndSplineSet
Validated: 1
EndChar

StartChar: braceleft
Encoding: 123 123 94
Width: 825
GlyphClass: 2
Flags: W
HStem: -240 180<566.162 775> 664 182<131 270> 1570 180<566.162 775>
VStem: 270 200<14.1963 664 846 1495.8>
CounterMasks: 1 e0
LayerCount: 2
Fore
SplineSet
775 1750 m 1,0,-1
 775 1570 l 1,1,2
 675 1570 675 1570 591 1537 c 0,3,4
 470 1489 470 1489 470 1420 c 2,5,-1
 470 90 l 2,6,7
 470 21 470 21 591 -27 c 0,8,9
 675 -60 675 -60 775 -60 c 1,10,-1
 775 -240 l 1,11,12
 624 -240 624 -240 497 -187 c 0,13,14
 270 -93 270 -93 270 90 c 2,15,-1
 270 664 l 1,16,-1
 50 664 l 1,17,-1
 50 674 l 1,18,-1
 131 846 l 1,19,-1
 270 846 l 1,20,-1
 270 1420 l 2,21,22
 270 1603 270 1603 497 1697 c 0,23,24
 624 1750 624 1750 775 1750 c 1,0,-1
EndSplineSet
Validated: 1
EndChar

StartChar: bar
Encoding: 124 124 95
Width: 666
GlyphClass: 2
Flags: W
VStem: 250 166<-166 1676>
LayerCount: 2
Fore
SplineSet
250 -240 m 1,0,-1
 250 1676 l 1,1,-1
 406 1750 l 1,2,-1
 416 1750 l 1,3,-1
 416 -166 l 1,4,-1
 260 -240 l 1,5,-1
 250 -240 l 1,0,-1
EndSplineSet
Validated: 3073
EndChar

StartChar: braceright
Encoding: 125 125 96
Width: 825
GlyphClass: 2
Flags: W
HStem: -240 180<50 258.838> 664 182<555 694> 1570 180<50 258.838>
VStem: 355 200<14.1963 664 846 1495.8>
CounterMasks: 1 e0
LayerCount: 2
Fore
SplineSet
50 1750 m 1,0,1
 201 1750 201 1750 328 1697 c 0,2,3
 555 1603 555 1603 555 1420 c 2,4,-1
 555 846 l 1,5,-1
 775 846 l 1,6,-1
 775 836 l 1,7,-1
 694 664 l 1,8,-1
 555 664 l 1,9,-1
 555 90 l 2,10,11
 555 -93 555 -93 328 -187 c 0,12,13
 201 -240 201 -240 50 -240 c 1,14,-1
 50 -60 l 1,15,16
 150 -60 150 -60 234 -27 c 0,17,18
 355 21 355 21 355 90 c 2,19,-1
 355 1420 l 2,20,21
 355 1489 355 1489 234 1537 c 0,22,23
 150 1570 150 1570 50 1570 c 1,24,-1
 50 1750 l 1,0,1
EndSplineSet
Validated: 1
EndChar

StartChar: asciitilde
Encoding: 126 126 97
Width: 1138
GlyphClass: 2
Flags: W
HStem: 583 177<648.531 800.75> 767 177<337.25 489.469>
VStem: 150 178<664 757.507> 810 178<769.493 863>
LayerCount: 2
Fore
SplineSet
150 583 m 1,0,1
 150 944 150 944 387 944 c 0,2,3
 521 944 521 944 610 843 c 0,4,5
 683 760 683 760 738 760 c 0,6,7
 810 760 810 760 810 863 c 1,8,-1
 978 944 l 1,9,-1
 988 944 l 1,10,11
 988 583 988 583 751 583 c 0,12,13
 617 583 617 583 528 684 c 0,14,15
 455 767 455 767 400 767 c 0,16,17
 328 767 328 767 328 664 c 1,18,-1
 160 583 l 1,19,-1
 150 583 l 1,0,1
EndSplineSet
Validated: 1
EndChar

StartChar: exclamdown
Encoding: 161 161 99
Width: 600
GlyphClass: 2
Flags: W
HStem: -40 21G<200 252.222> 1285 245<216.097 383.903>
VStem: 180 240<1322.13 1492.87> 200 200<50 1000>
LayerCount: 2
Fore
SplineSet
420 1407.5 m 128,-1,1
 420 1357 420 1357 385 1321 c 128,-1,2
 350 1285 350 1285 300 1285 c 128,-1,3
 250 1285 250 1285 215 1321 c 128,-1,4
 180 1357 180 1357 180 1407.5 c 128,-1,5
 180 1458 180 1458 215 1494 c 128,-1,6
 250 1530 250 1530 300 1530 c 128,-1,7
 350 1530 350 1530 385 1494 c 128,-1,0
 420 1458 420 1458 420 1407.5 c 128,-1,1
210 -40 m 1,8,-1
 200 -40 l 1,9,-1
 200 1000 l 1,10,-1
 390 1090 l 1,11,-1
 400 1090 l 1,12,-1
 400 50 l 1,13,-1
 210 -40 l 1,8,-1
EndSplineSet
Validated: 1
EndChar

StartChar: cent
Encoding: 162 162 100
Width: 1130
GlyphClass: 2
Flags: W
HStem: -18 181<374.219 507 623 755.781> 937 181<374.219 507 623 755.781>
VStem: 150 200<196.624 903.376> 507 116<-190 -13.4553 163 937 1113.46 1290> 780 200<196.624 353 747 903.376>
CounterMasks: 1 38
LayerCount: 2
Fore
SplineSet
980 443 m 1,0,-1
 980 225 l 2,1,2
 980 92 980 92 793 19 c 0,3,4
 716 -11 716 -11 623 -18 c 1,5,-1
 623 -190 l 1,6,-1
 517 -240 l 1,7,-1
 507 -240 l 1,8,-1
 507 -18 l 1,9,10
 414 -11 414 -11 337 19 c 0,11,12
 150 92 150 92 150 225 c 2,13,-1
 150 875 l 2,14,15
 150 1008 150 1008 337 1081 c 0,16,17
 414 1111 414 1111 507 1118 c 1,18,-1
 507 1290 l 1,19,-1
 613 1340 l 1,20,-1
 623 1340 l 1,21,-1
 623 1118 l 1,22,23
 716 1111 716 1111 793 1081 c 0,24,25
 980 1008 980 1008 980 875 c 2,26,-1
 980 747 l 1,27,-1
 790 657 l 1,28,-1
 780 657 l 1,29,-1
 780 840 l 2,30,31
 780 890 780 890 718 915 c 0,32,33
 676 932 676 932 623 937 c 1,34,-1
 623 163 l 1,35,36
 676 168 676 168 718 185 c 0,37,38
 780 211 780 211 780 260 c 2,39,-1
 780 353 l 1,40,-1
 970 443 l 1,41,-1
 980 443 l 1,0,-1
507 163 m 1,42,-1
 507 937 l 1,43,44
 454 932 454 932 412 915 c 0,45,46
 350 889 350 889 350 840 c 2,47,-1
 350 260 l 2,48,49
 350 211 350 211 412 185 c 0,50,51
 454 168 454 168 507 163 c 1,42,-1
EndSplineSet
Validated: 1
EndChar

StartChar: sterling
Encoding: 163 163 101
Width: 1335
GlyphClass: 2
Flags: W
HStem: 0 182<231 300 500 1104> 598 182<231 300 500 834> 1350 180<528.659 901.827>
VStem: 300 200<182 598 780 1313.57> 930 200<1137 1313.18>
LayerCount: 2
Fore
SplineSet
150 0 m 1,0,-1
 150 10 l 1,1,-1
 231 182 l 1,2,-1
 300 182 l 1,3,-1
 300 598 l 1,4,-1
 150 598 l 1,5,-1
 150 608 l 1,6,-1
 231 780 l 1,7,-1
 300 780 l 1,8,-1
 300 1285 l 2,9,10
 300 1419 300 1419 487 1491 c 0,11,12
 588 1530 588 1530 715 1530 c 0,13,14
 845 1530 845 1530 943 1491 c 0,15,16
 1130 1417 1130 1417 1130 1285 c 10,17,-1
 1130 1137 l 1,18,-1
 940 1047 l 1,19,-1
 930 1047 l 9,20,-1
 930 1250 l 18,21,22
 930 1300 930 1300 867.5 1325 c 128,-1,23
 805 1350 805 1350 715 1350 c 128,-1,24
 625 1350 625 1350 562.5 1325 c 128,-1,25
 500 1300 500 1300 500 1250 c 2,26,-1
 500 780 l 1,27,-1
 915 780 l 1,28,-1
 915 770 l 1,29,-1
 834 598 l 1,30,-1
 500 598 l 1,31,-1
 500 182 l 1,32,-1
 1185 182 l 1,33,-1
 1185 172 l 1,34,-1
 1104 0 l 1,35,-1
 150 0 l 1,0,-1
EndSplineSet
Validated: 1
EndChar

StartChar: currency
Encoding: 164 164 102
Width: 1440
GlyphClass: 2
Flags: W
HStem: 246 180<518.125 936.948> 1068 180<519.052 936.93>
VStem: 223 200<500.264 994.296> 1033 200<499.704 992.047>
LayerCount: 2
Fore
SplineSet
150 329 m 1,0,-1
 261 440 l 1,1,2
 223 501 223 501 223 576 c 2,3,-1
 223 918 l 2,4,5
 223 1007 223 1007 277 1075 c 1,6,-1
 167 1185 l 1,7,-1
 174 1192 l 1,8,-1
 352 1256 l 1,9,-1
 425 1184 l 1,10,11
 437 1190 437 1190 450 1195 c 0,12,13
 588 1248 588 1248 728 1248 c 0,14,15
 879 1248 879 1248 1006 1195 c 0,16,17
 1018 1190 1018 1190 1030 1185 c 1,18,-1
 1103 1257 l 1,19,-1
 1282 1193 l 1,20,-1
 1289 1186 l 1,21,-1
 1179 1076 l 1,22,23
 1233 1007 1233 1007 1233 918 c 2,24,-1
 1233 576 l 2,25,26
 1233 487 1233 487 1179 419 c 1,27,-1
 1290 308 l 1,28,-1
 1283 301 l 1,29,-1
 1104 237 l 1,30,-1
 1030 310 l 1,31,32
 1019 304 1019 304 1006 299 c 0,33,34
 868 246 868 246 728 246 c 0,35,36
 562 246 562 246 450 299 c 0,37,38
 432 308 432 308 400 323 c 1,39,-1
 336 258 l 1,40,-1
 157 322 l 1,41,-1
 150 329 l 1,0,-1
423 576 m 2,42,43
 423 507 423 507 544 459 c 0,44,45
 628 426 628 426 728 426 c 128,-1,46
 828 426 828 426 912 459 c 0,47,48
 1033 507 1033 507 1033 576 c 2,49,-1
 1033 918 l 2,50,51
 1033 987 1033 987 912 1035 c 0,52,53
 828 1068 828 1068 728 1068 c 128,-1,54
 628 1068 628 1068 544 1035 c 0,55,56
 423 987 423 987 423 918 c 2,57,-1
 423 576 l 2,42,43
EndSplineSet
Validated: 1
EndChar

StartChar: yen
Encoding: 165 165 103
Width: 1278
GlyphClass: 2
Flags: W
HStem: -40 21G<516 568.222> 430 182<262 484 753 1014> 760 182<262 336 633 696 911 1014> 1530 20G<232.831 293.816 1053.72 1115>
VStem: 516 200<50 430>
DStem2: 285 1550 100 1467 0.403273 -0.91508<1.34602 576.935 863.252 938.596> 664 690 753 612 0.431707 0.902014<0 76.9556 333.939 947.983>
LayerCount: 2
Fore
SplineSet
516 -40 m 1,0,-1
 516 430 l 1,1,-1
 181 430 l 1,2,-1
 181 440 l 1,3,-1
 262 612 l 1,4,-1
 484 612 l 1,5,-1
 417 760 l 1,6,-1
 181 760 l 1,7,-1
 181 770 l 1,8,-1
 262 942 l 1,9,-1
 336 942 l 1,10,-1
 100 1467 l 1,11,-1
 275 1550 l 1,12,-1
 285 1550 l 1,13,-1
 553 942 l 1,14,-1
 781 942 l 1,15,-1
 1063 1550 l 1,16,-1
 1073 1550 l 1,17,-1
 1178 1500 l 1,18,-1
 911 942 l 1,19,-1
 1095 942 l 1,20,-1
 1095 932 l 1,21,-1
 1014 760 l 1,22,-1
 824 760 l 1,23,-1
 753 612 l 1,24,-1
 1095 612 l 1,25,-1
 1095 602 l 1,26,-1
 1014 430 l 1,27,-1
 716 430 l 1,28,-1
 716 50 l 1,29,-1
 526 -40 l 1,30,-1
 516 -40 l 1,0,-1
696 760 m 1,31,-1
 633 760 l 1,32,-1
 664 690 l 1,33,-1
 696 760 l 1,31,-1
EndSplineSet
Validated: 3073
EndChar

StartChar: brokenbar
Encoding: 166 166 104
Width: 666
GlyphClass: 2
Flags: W
VStem: 250 166<-166 587 923 1676>
LayerCount: 2
Fore
SplineSet
250 -240 m 1,0,-1
 250 587 l 1,1,-1
 406 661 l 1,2,-1
 416 661 l 1,3,-1
 416 -166 l 1,4,-1
 260 -240 l 1,5,-1
 250 -240 l 1,0,-1
406 1750 m 1,6,-1
 416 1750 l 1,7,-1
 416 923 l 1,8,-1
 260 849 l 1,9,-1
 250 849 l 1,10,-1
 250 1676 l 1,11,-1
 406 1750 l 1,6,-1
EndSplineSet
Validated: 3073
EndChar

StartChar: section
Encoding: 167 167 105
Width: 1130
GlyphClass: 2
Flags: W
HStem: -20 180<449.961 705.413> 404 180<380.104 695.707> 926 180<434.293 749.896> 1350 180<424.587 680.039>
VStem: 150 200<620.429 861> 192 200<1131.79 1323.63> 738 200<186.367 378.213> 780 200<649 889.571>
LayerCount: 2
Fore
SplineSet
221 225 m 1,0,-1
 411 315 l 1,1,-1
 421 315 l 1,2,-1
 421 260 l 2,3,4
 421 202 421 202 462 181 c 128,-1,5
 503 160 503 160 565 160 c 0,6,7
 651 160 651 160 695 185 c 0,8,9
 738 210 738 210 738 260 c 2,10,-1
 738 304 l 2,11,12
 738 354 738 354 697 379 c 128,-1,13
 656 404 656 404 566 404 c 0,14,15
 439 404 439 404 338 443 c 0,16,17
 150 515 150 515 150 649 c 2,18,-1
 150 926 l 25,19,-1
 350 861 l 25,20,-1
 350 684 l 2,21,22
 350 635 350 635 414 609 c 0,23,24
 476 584 476 584 566 584 c 0,25,26
 665 584 665 584 763 545 c 0,27,28
 938 474 938 474 938 339 c 2,29,-1
 938 225 l 2,30,31
 938 97 938 97 772 25 c 0,32,33
 669 -20 669 -20 565 -20 c 0,34,35
 466 -20 466 -20 394 10 c 0,36,37
 221 84 221 84 221 225 c 1,0,-1
909 1285 m 1,38,-1
 719 1195 l 1,39,-1
 709 1195 l 1,40,-1
 709 1250 l 2,41,42
 709 1308 709 1308 668 1329 c 128,-1,43
 627 1350 627 1350 565 1350 c 0,44,45
 479 1350 479 1350 435 1325 c 0,46,47
 392 1300 392 1300 392 1250 c 2,48,-1
 392 1206 l 2,49,50
 392 1156 392 1156 433 1131 c 128,-1,51
 474 1106 474 1106 564 1106 c 0,52,53
 691 1106 691 1106 792 1067 c 0,54,55
 980 995 980 995 980 861 c 2,56,-1
 980 584 l 25,57,-1
 780 649 l 25,58,-1
 780 826 l 2,59,60
 780 875 780 875 716 901 c 0,61,62
 654 926 654 926 564 926 c 0,63,64
 465 926 465 926 367 965 c 0,65,66
 192 1036 192 1036 192 1171 c 2,67,-1
 192 1285 l 2,68,69
 192 1413 192 1413 358 1485 c 0,70,71
 461 1530 461 1530 565 1530 c 0,72,73
 664 1530 664 1530 736 1500 c 0,74,75
 909 1426 909 1426 909 1285 c 1,38,-1
EndSplineSet
Validated: 1
EndChar

StartChar: dieresis
Encoding: 168 168 106
Width: 840
GlyphClass: 2
Flags: W
HStem: 1285 245<186.097 353.903 486.097 653.903>
VStem: 150 240<1322.13 1492.87> 450 240<1322.13 1492.87>
LayerCount: 2
Fore
SplineSet
450 1407.5 m 128,-1,1
 450 1458 450 1458 485 1494 c 128,-1,2
 520 1530 520 1530 570 1530 c 128,-1,3
 620 1530 620 1530 655 1494 c 128,-1,4
 690 1458 690 1458 690 1407.5 c 128,-1,5
 690 1357 690 1357 655 1321 c 128,-1,6
 620 1285 620 1285 570 1285 c 128,-1,7
 520 1285 520 1285 485 1321 c 128,-1,0
 450 1357 450 1357 450 1407.5 c 128,-1,1
150 1407.5 m 128,-1,9
 150 1458 150 1458 185 1494 c 128,-1,10
 220 1530 220 1530 270 1530 c 128,-1,11
 320 1530 320 1530 355 1494 c 128,-1,12
 390 1458 390 1458 390 1407.5 c 128,-1,13
 390 1357 390 1357 355 1321 c 128,-1,14
 320 1285 320 1285 270 1285 c 128,-1,15
 220 1285 220 1285 185 1321 c 128,-1,8
 150 1357 150 1357 150 1407.5 c 128,-1,9
EndSplineSet
Validated: 1
EndChar

StartChar: copyright
Encoding: 169 169 107
Width: 1401
GlyphClass: 2
Flags: W
HStem: 180 79<514.499 887.229> 348 140<578.994 831.944> 1008 140<578.999 832.107> 1251 80<511.931 889.969>
VStem: 150 74<566.018 943.982> 428 150<503.537 991.967> 834 150<505.041 629 867 990.432> 1176 75<560.265 949.908>
LayerCount: 2
Fore
SplineSet
984 683 m 1,0,-1
 984 538 l 2,1,2
 984 428 984 428 855 376 c 0,3,4
 786 348 786 348 706 348 c 0,5,6
 628 348 628 348 557 376 c 0,7,8
 428 427 428 427 428 532 c 2,9,-1
 428 963 l 2,10,11
 428 1070 428 1070 557 1120 c 0,12,13
 629 1148 629 1148 706 1148 c 0,14,15
 788 1148 788 1148 855 1120 c 0,16,17
 984 1066 984 1066 984 958 c 2,18,-1
 984 867 l 1,19,-1
 869 813 l 1,20,-1
 834 813 l 1,21,-1
 834 958 l 2,22,23
 833 965 833 965 828 970 c 0,24,25
 818 981 818 981 789 993 c 0,26,27
 752 1008 752 1008 706 1008 c 0,28,29
 659 1008 659 1008 623 994 c 0,30,31
 595 983 595 983 584 972 c 0,32,33
 578 966 578 966 578 960 c 2,34,-1
 578 536 l 2,35,36
 579 529 579 529 584 524 c 0,37,38
 596 512 596 512 623 502 c 0,39,40
 660 488 660 488 706 488 c 0,41,42
 751 488 751 488 789 503 c 0,43,44
 815 513 815 513 828 526 c 0,45,46
 834 532 834 532 834 538 c 2,47,-1
 834 629 l 1,48,-1
 948 683 l 1,49,-1
 984 683 l 1,0,-1
701 1331 m 0,50,51
 811 1331 811 1331 911 1288 c 0,52,53
 1007 1247 1007 1247 1090 1161 c 0,54,55
 1170 1078 1170 1078 1211 975 c 0,56,57
 1251 874 1251 874 1251 754 c 0,58,59
 1251 638 1251 638 1211 535 c 0,60,61
 1173 437 1173 437 1090 350 c 0,62,63
 1011 267 1011 267 911 223 c 0,64,65
 813 180 813 180 701 180 c 0,66,67
 590 180 590 180 490 223 c 0,68,69
 394 264 394 264 311 350 c 0,70,71
 230 434 230 434 190 535 c 128,-1,72
 150 636 150 636 150 754 c 0,73,74
 150 873 150 873 190 975 c 128,-1,75
 230 1077 230 1077 311 1161 c 0,76,77
 392 1246 392 1246 490 1288.5 c 128,-1,78
 588 1331 588 1331 701 1331 c 0,50,51
701 1251 m 0,79,80
 603 1251 603 1251 520 1215 c 128,-1,81
 437 1179 437 1179 366 1105 c 0,82,83
 296 1032 296 1032 260 944 c 128,-1,84
 224 856 224 856 224 759 c 2,85,-1
 224 754 l 2,86,87
 224 655 224 655 260 566 c 0,88,89
 294 483 294 483 366 406 c 0,90,91
 436 332 436 332 519 296 c 0,92,93
 604 259 604 259 701 259 c 128,-1,94
 798 259 798 259 883 296 c 0,95,96
 966 332 966 332 1037 406 c 0,97,98
 1106 478 1106 478 1141 565 c 128,-1,99
 1176 652 1176 652 1176 754 c 0,100,101
 1176 857 1176 857 1141 945 c 0,102,103
 1107 1031 1107 1031 1037 1105 c 0,104,105
 968 1178 968 1178 883 1215 c 0,106,107
 798 1251 798 1251 701 1251 c 0,79,80
EndSplineSet
Validated: 1
EndChar

StartChar: ordfeminine
Encoding: 170 170 108
Width: 955
GlyphClass: 2
Flags: W
HStem: 664 182<231 724> 920 130<394.266 557.389> 1210 130<394.051 557.389> 1400 130<377 556.98>
VStem: 254 140<1054.59 1205.41> 558 140<1052.73 1207.4 1330 1395.41>
LayerCount: 2
Fore
SplineSet
698 962 m 1,0,-1
 588 910 l 1,1,-1
 558 910 l 1,2,-1
 558 930 l 1,3,4
 519 920 519 920 476 920 c 0,5,6
 414 920 414 920 360 941 c 0,7,8
 254 982 254 982 254 1062 c 2,9,-1
 254 1198 l 2,10,11
 254 1278 254 1278 360 1319 c 0,12,13
 413 1340 413 1340 476 1340 c 0,14,15
 519 1340 519 1340 558 1330 c 1,16,-1
 558 1370 l 2,17,18
 558 1377 558 1377 550 1383 c 0,19,20
 546 1386 546 1386 529 1393 c 0,21,22
 513 1400 513 1400 471 1400 c 2,23,-1
 330 1400 l 1,24,-1
 330 1429 l 1,25,-1
 377 1530 l 1,26,-1
 471 1530 l 2,27,28
 538 1530 538 1530 592 1509 c 0,29,30
 698 1468 698 1468 698 1388 c 2,31,-1
 698 962 l 1,0,-1
394 1080 m 2,32,33
 394 1075 394 1075 402 1067 c 0,34,35
 405 1064 405 1064 422 1057 c 128,-1,36
 439 1050 439 1050 476 1050 c 0,37,38
 512 1050 512 1050 529 1057 c 0,39,40
 535 1059 535 1059 550 1067 c 0,41,42
 558 1071 558 1071 558 1080 c 2,43,-1
 558 1180 l 2,44,45
 558 1185 558 1185 550 1193 c 0,46,47
 547 1196 547 1196 530 1203 c 128,-1,48
 513 1210 513 1210 476 1210 c 0,49,50
 445 1210 445 1210 412 1199 c 0,51,52
 406 1197 406 1197 402 1194 c 0,53,54
 394 1188 394 1188 394 1180 c 2,55,-1
 394 1080 l 2,32,33
150 664 m 1,56,-1
 150 674 l 1,57,-1
 231 846 l 1,58,-1
 805 846 l 1,59,-1
 805 836 l 1,60,-1
 724 664 l 1,61,-1
 150 664 l 1,56,-1
EndSplineSet
Validated: 1
EndChar

StartChar: guillemotleft
Encoding: 171 171 109
Width: 1208
GlyphClass: 2
Flags: W
DStem2: 150 792 381 795 0.506484 0.862249<119.585 570.601> 381 795 150 792 0.509561 -0.860435<0 452.028> 535 792 766 795 0.506484 0.862249<119.585 570.601> 766 795 535 792 0.509561 -0.860435<0 452.028>
LayerCount: 2
Fore
SplineSet
824 304 m 1,0,-1
 535 792 l 1,1,-1
 824 1284 l 1,2,-1
 834 1284 l 1,3,-1
 1008 1202 l 1,4,-1
 766 795 l 1,5,-1
 1008 386 l 1,6,-1
 834 304 l 1,7,-1
 824 304 l 1,0,-1
439 304 m 1,8,-1
 150 792 l 1,9,-1
 439 1284 l 1,10,-1
 449 1284 l 1,11,-1
 623 1202 l 1,12,-1
 381 795 l 1,13,-1
 623 386 l 1,14,-1
 449 304 l 1,15,-1
 439 304 l 1,8,-1
EndSplineSet
Validated: 1
EndChar

StartChar: logicalnot
Encoding: 172 172 110
Width: 1214
GlyphClass: 2
Flags: W
HStem: 664 182<231 784>
LayerCount: 2
Fore
SplineSet
642 402 m 1,0,-1
 784 664 l 1,1,-1
 150 664 l 1,2,-1
 150 674 l 1,3,-1
 231 846 l 1,4,-1
 1064 846 l 1,5,-1
 1064 836 l 1,6,-1
 857 402 l 1,7,-1
 642 402 l 1,0,-1
EndSplineSet
Validated: 1
EndChar

StartChar: uni00AD
Encoding: 173 173 111
Width: 1214
GlyphClass: 2
Flags: W
HStem: 664 182<231 983>
LayerCount: 2
Fore
SplineSet
150 664 m 1,0,-1
 150 674 l 1,1,-1
 231 846 l 1,2,-1
 1064 846 l 1,3,-1
 1064 836 l 1,4,-1
 983 664 l 1,5,-1
 150 664 l 1,0,-1
EndSplineSet
Validated: 3073
EndChar

StartChar: registered
Encoding: 174 174 112
Width: 1401
GlyphClass: 2
Flags: W
HStem: 180 79<514.499 887.229> 630 140<592 676> 1015 140<592 837.696> 1251 80<511.834 889.969>
VStem: 150 74<566.018 943.982> 442 150<409 630 770 1015> 838 150<784.268 1000.22> 1176 75<560.265 949.908>
DStem2: 844 652 676 630 0.572461 -0.819932<0 257.259>
LayerCount: 2
Fore
SplineSet
592 1015 m 1,0,-1
 592 770 l 1,1,-1
 710 770 l 2,2,3
 758 770 758 770 793 783 c 0,4,5
 822 794 822 794 832 804 c 0,6,7
 837 809 837 809 838 815 c 2,8,-1
 838 970 l 2,9,10
 838 976 838 976 832 981 c 0,11,12
 820 992 820 992 793 1002 c 0,13,14
 755 1015 755 1015 710 1015 c 2,15,-1
 592 1015 l 1,0,-1
442 355 m 1,16,-1
 442 1121 l 1,17,-1
 515 1155 l 1,18,-1
 710 1155 l 2,19,20
 792 1155 792 1155 859 1127 c 0,21,22
 988 1073 988 1073 988 973 c 2,23,-1
 988 811 l 2,24,25
 988 713 988 713 858 657 c 0,26,27
 851 654 851 654 844 652 c 1,28,-1
 1012 412 l 1,29,-1
 892 355 l 1,30,-1
 868 355 l 1,31,-1
 676 630 l 1,32,-1
 592 630 l 1,33,-1
 592 409 l 1,34,-1
 478 355 l 1,35,-1
 442 355 l 1,16,-1
701 1251 m 0,36,37
 603 1251 603 1251 520 1215 c 128,-1,38
 437 1179 437 1179 366 1105 c 0,39,40
 296 1032 296 1032 260 944 c 128,-1,41
 224 856 224 856 224 759 c 2,42,-1
 224 754 l 2,43,44
 224 655 224 655 260 566 c 0,45,46
 294 483 294 483 366 406 c 0,47,48
 436 332 436 332 519 296 c 0,49,50
 604 259 604 259 701 259 c 128,-1,51
 798 259 798 259 883 296 c 0,52,53
 966 332 966 332 1037 406 c 0,54,55
 1106 478 1106 478 1141 565 c 128,-1,56
 1176 652 1176 652 1176 754 c 0,57,58
 1176 857 1176 857 1141 945 c 0,59,60
 1107 1031 1107 1031 1037 1105 c 0,61,62
 968 1178 968 1178 883 1215 c 0,63,64
 798 1251 798 1251 701 1251 c 0,36,37
701 1331 m 0,65,66
 811 1331 811 1331 911 1288 c 0,67,68
 1007 1247 1007 1247 1090 1161 c 0,69,70
 1170 1078 1170 1078 1211 975 c 0,71,72
 1251 874 1251 874 1251 754 c 0,73,74
 1251 638 1251 638 1211 535 c 0,75,76
 1173 437 1173 437 1090 350 c 0,77,78
 1011 267 1011 267 911 223 c 0,79,80
 813 180 813 180 701 180 c 0,81,82
 590 180 590 180 490 223 c 0,83,84
 394 264 394 264 311 350 c 0,85,86
 230 434 230 434 190 535 c 128,-1,87
 150 636 150 636 150 754 c 0,88,89
 150 874 150 874 190 975 c 128,-1,90
 230 1076 230 1076 311 1161 c 0,91,92
 393 1246 393 1246 490 1288.5 c 128,-1,93
 587 1331 587 1331 701 1331 c 0,65,66
EndSplineSet
Validated: 1
EndChar

StartChar: macron
Encoding: 175 175 113
Width: 1214
GlyphClass: 2
Flags: W
HStem: 1328 182<231 983>
LayerCount: 2
Fore
SplineSet
150 1328 m 1,0,-1
 150 1338 l 1,1,-1
 231 1510 l 1,2,-1
 1064 1510 l 1,3,-1
 1064 1500 l 1,4,-1
 983 1328 l 1,5,-1
 150 1328 l 1,0,-1
EndSplineSet
Validated: 3073
EndChar

StartChar: degree
Encoding: 176 176 114
Width: 1130
GlyphClass: 2
Flags: W
HStem: 730 180<378.173 751.341> 1350 180<378.659 751.827>
VStem: 150 200<946.819 1313.57> 780 200<946.429 1316.58>
LayerCount: 2
Fore
SplineSet
350 1010 m 2,0,1
 350 960 350 960 412.5 935 c 128,-1,2
 475 910 475 910 565 910 c 128,-1,3
 655 910 655 910 717.5 935 c 128,-1,4
 780 960 780 960 780 1010 c 10,5,-1
 780 1250 l 2,6,7
 780 1300 780 1300 717.5 1325 c 128,-1,8
 655 1350 655 1350 565 1350 c 128,-1,9
 475 1350 475 1350 412.5 1325 c 128,-1,10
 350 1300 350 1300 350 1250 c 2,11,-1
 350 1010 l 2,0,1
150 975 m 2,12,-1
 150 1285 l 2,13,14
 150 1419 150 1419 337 1491 c 0,15,16
 438 1530 438 1530 565 1530 c 0,17,18
 695 1530 695 1530 793 1491 c 0,19,20
 980 1416 980 1416 980 1285 c 2,21,-1
 980 975 l 2,22,23
 980 841 980 841 793 769 c 0,24,25
 692 730 692 730 565 730 c 0,26,27
 435 730 435 730 337 769 c 0,28,29
 150 843 150 843 150 975 c 2,12,-1
EndSplineSet
Validated: 1
EndChar

StartChar: plusminus
Encoding: 177 177 115
Width: 1214
GlyphClass: 2
Flags: W
HStem: 243 182<231 983> 835 182<231 516 698 983>
VStem: 516 182<550 835 1017 1302>
LayerCount: 2
Fore
SplineSet
150 243 m 1,0,-1
 150 253 l 1,1,-1
 231 425 l 1,2,-1
 1064 425 l 1,3,-1
 1064 415 l 1,4,-1
 983 243 l 1,5,-1
 150 243 l 1,0,-1
698 1383 m 1,6,-1
 698 1017 l 1,7,-1
 1064 1017 l 1,8,-1
 1064 1007 l 1,9,-1
 983 835 l 1,10,-1
 698 835 l 1,11,-1
 698 550 l 1,12,-1
 526 469 l 1,13,-1
 516 469 l 1,14,-1
 516 835 l 1,15,-1
 150 835 l 1,16,-1
 150 845 l 1,17,-1
 231 1017 l 1,18,-1
 516 1017 l 1,19,-1
 516 1302 l 1,20,-1
 688 1383 l 1,21,-1
 698 1383 l 1,6,-1
EndSplineSet
Validated: 3073
EndChar

StartChar: uni00B2
Encoding: 178 178 116
Width: 862
GlyphClass: 2
Flags: W
HStem: 730 141<401 662> 1390 140<306.056 559.27>
VStem: 155 150<1239 1372.43> 560 150<1164.42 1374.22>
DStem2: 195 861 401 871 0.735267 0.677777<158.243 534.346>
LayerCount: 2
Fore
SplineSet
150 730 m 1,0,-1
 150 766 l 1,1,-1
 195 861 l 1,2,-1
 438 1085 l 1,3,4
 560 1199 560 1199 560 1233 c 0,5,6
 560 1234 560 1234 560 1235 c 2,7,-1
 560 1342 l 2,8,9
 559 1349 559 1349 554 1354 c 0,10,11
 544 1365 544 1365 515 1376 c 0,12,13
 477 1390 477 1390 432 1390 c 128,-1,14
 387 1390 387 1390 349 1375 c 0,15,16
 323 1365 323 1365 310 1352 c 0,17,18
 304 1346 304 1346 304 1340 c 2,19,-1
 305 1239 l 1,20,-1
 191 1185 l 1,21,-1
 155 1185 l 1,22,-1
 154 1340 l 2,23,24
 154 1448 154 1448 283 1502 c 0,25,26
 352 1530 352 1530 432 1530 c 128,-1,27
 512 1530 512 1530 581 1502 c 0,28,29
 709 1450 709 1450 710 1346 c 2,30,-1
 710 1234 l 2,31,32
 710 1136 710 1136 566 1013 c 2,33,-1
 401 871 l 1,34,-1
 712 871 l 1,35,-1
 712 835 l 1,36,-1
 662 730 l 1,37,-1
 150 730 l 1,0,-1
EndSplineSet
Validated: 1
EndChar

StartChar: uni00B3
Encoding: 179 179 117
Width: 855
GlyphClass: 2
Flags: W
HStem: 711 140<301.584 551.575> 1369 141<244 440>
VStem: 150 150<868.832 971> 555 150<887.188 1077.05>
LayerCount: 2
Fore
SplineSet
150 971 m 1,0,-1
 265 1026 l 1,1,-1
 300 1026 l 1,2,-1
 300 901 l 2,3,4
 300 895 300 895 306 889 c 0,5,6
 318 877 318 877 345 866 c 0,7,8
 382 851 382 851 431 851 c 0,9,10
 472 851 472 851 510 865 c 0,11,12
 541 877 541 877 550 887 c 0,13,14
 555 893 555 893 555 899 c 2,15,-1
 555 1046 l 2,16,17
 555 1051 555 1051 549 1058 c 0,18,19
 538 1070 538 1070 510 1080 c 0,20,21
 471 1094 471 1094 428 1094 c 0,22,23
 325 1094 325 1094 288 1076 c 1,24,-1
 440 1369 l 1,25,-1
 194 1369 l 1,26,-1
 194 1405 l 1,27,-1
 244 1510 l 1,28,-1
 680 1510 l 1,29,-1
 509 1222 l 1,30,31
 545 1214 545 1214 576 1202 c 0,32,33
 705 1152 705 1152 705 1045 c 2,34,-1
 705 895 l 2,35,36
 705 792 705 792 577 739 c 0,37,38
 510 711 510 711 425 711 c 24,39,40
 345 711 345 711 279 739 c 0,41,42
 150 794 150 794 150 901 c 2,43,-1
 150 971 l 1,0,-1
EndSplineSet
Validated: 1
EndChar

StartChar: acute
Encoding: 180 180 118
Width: 648
GlyphClass: 2
Flags: W
HStem: 1150 400
VStem: 150 348
LayerCount: 2
Fore
SplineSet
312 1550 m 1,0,-1
 322 1550 l 1,1,-1
 498 1466 l 1,2,-1
 277 1150 l 1,3,-1
 267 1150 l 1,4,-1
 150 1205 l 1,5,-1
 312 1550 l 1,0,-1
EndSplineSet
Validated: 3073
EndChar

StartChar: uni00B5
Encoding: 181 181 119
Width: 1180
GlyphClass: 2
Flags: W
HStem: -450 21G<200 252.222> -20 180<427.834 801.341> 1120 20G<347.778 400 977.778 1030>
VStem: 200 200<-360 14 193.423 1050> 830 200<196.429 1050>
LayerCount: 2
Fore
SplineSet
200 -450 m 1,0,-1
 200 1050 l 1,1,-1
 390 1140 l 1,2,-1
 400 1140 l 1,3,-1
 400 260 l 2,4,5
 400 210 400 210 462.5 185 c 128,-1,6
 525 160 525 160 615 160 c 128,-1,7
 705 160 705 160 767.5 185 c 128,-1,8
 830 210 830 210 830 260 c 2,9,-1
 830 1050 l 1,10,-1
 1020 1140 l 1,11,-1
 1030 1140 l 1,12,-1
 1030 225 l 2,13,14
 1030 91 1030 91 843 19 c 0,15,16
 742 -20 742 -20 615 -20 c 0,17,18
 496 -20 496 -20 400 14 c 1,19,-1
 400 -360 l 1,20,-1
 210 -450 l 1,21,-1
 200 -450 l 1,0,-1
EndSplineSet
Validated: 1
EndChar

StartChar: paragraph
Encoding: 182 182 120
Width: 1180
GlyphClass: 2
Flags: W
HStem: -40 21G<780 832.857>
VStem: 780 70<-12 588> 914 66<50 1137>
LayerCount: 2
Fore
SplineSet
780 -40 m 1,0,-1
 780 588 l 1,1,2
 685 554 685 554 565 554 c 0,3,4
 435 554 435 554 337 593 c 0,5,6
 150 667 150 667 150 799 c 2,7,-1
 150 1285 l 2,8,9
 150 1419 150 1419 337 1491 c 0,10,11
 438 1530 438 1530 565 1530 c 0,12,13
 695 1530 695 1530 793 1491 c 0,14,15
 980 1416 980 1416 980 1285 c 2,16,-1
 980 50 l 1,17,-1
 914 19 l 1,18,-1
 914 1137 l 1,19,-1
 850 1137 l 1,20,-1
 850 -12 l 1,21,-1
 790 -40 l 1,22,-1
 780 -40 l 1,0,-1
EndSplineSet
Validated: 1
EndChar

StartChar: periodcentered
Encoding: 183 183 121
Width: 600
GlyphClass: 2
Flags: W
HStem: 631 245<216.097 383.903>
VStem: 180 240<668.129 838.871>
LayerCount: 2
Fore
SplineSet
180 753.5 m 132,-1,1
 180 804 180 804 215 840 c 132,-1,2
 250 876 250 876 300 876 c 132,-1,3
 350 876 350 876 385 840 c 132,-1,4
 420 804 420 804 420 753.5 c 132,-1,5
 420 703 420 703 385 667 c 132,-1,6
 350 631 350 631 300 631 c 132,-1,7
 250 631 250 631 215 667 c 132,-1,0
 180 703 180 703 180 753.5 c 132,-1,1
EndSplineSet
Validated: 1
EndChar

StartChar: cedilla
Encoding: 184 184 122
Width: 609
GlyphClass: 2
Flags: W
HStem: -286 564
VStem: 284 175<-116.616 108.943>
LayerCount: 2
Fore
SplineSet
214 278 m 1,0,1
 459 149 459 149 459 -42 c 0,2,3
 459 -179 459 -179 350 -286 c 1,4,-1
 340 -286 l 1,5,-1
 150 -196 l 1,6,7
 284 -109 284 -109 284 12 c 0,8,9
 284 113 284 113 171 228 c 1,10,-1
 214 278 l 1,0,1
EndSplineSet
Validated: 1
EndChar

StartChar: uni00B9
Encoding: 185 185 123
Width: 672
GlyphClass: 2
Flags: W
HStem: 1325 112<150 262> 1530 20G<344.23 422>
VStem: 272 150<764 1382>
LayerCount: 2
Fore
SplineSet
386 1550 m 1,0,-1
 422 1550 l 1,1,-1
 422 764 l 1,2,-1
 308 710 l 1,3,-1
 272 710 l 1,4,-1
 272 1382 l 1,5,-1
 150 1325 l 1,6,-1
 150 1437 l 1,7,-1
 386 1550 l 1,0,-1
EndSplineSet
Validated: 3073
EndChar

StartChar: ordmasculine
Encoding: 186 186 124
Width: 955
GlyphClass: 2
Flags: W
HStem: 664 182<231 724> 920 130<391.488 565.896> 1400 130<391.295 565.687>
VStem: 251 140<1054.68 1395.32> 566 140<1054.68 1395.41>
LayerCount: 2
Fore
SplineSet
391 1080 m 2,0,1
 391 1075 391 1075 399 1067 c 0,2,3
 402 1064 402 1064 419 1057 c 128,-1,4
 436 1050 436 1050 478 1050 c 0,5,6
 519 1050 519 1050 536 1057 c 0,7,8
 542 1059 542 1059 557 1067 c 0,9,10
 565 1071 565 1071 566 1080 c 2,11,-1
 566 1370 l 2,12,13
 566 1376 566 1376 557 1383 c 0,14,15
 552 1387 552 1387 537 1393 c 0,16,17
 519 1400 519 1400 478 1400 c 128,-1,18
 437 1400 437 1400 420 1393 c 0,19,20
 414 1391 414 1391 399 1383 c 0,21,22
 391 1379 391 1379 391 1370 c 2,23,-1
 391 1080 l 2,0,1
251 1062 m 2,24,-1
 251 1388 l 2,25,26
 251 1467 251 1467 357 1509 c 0,27,28
 410 1530 410 1530 478 1530 c 0,29,30
 544 1530 544 1530 599 1509 c 0,31,32
 706 1468 706 1468 706 1388 c 2,33,-1
 706 1062 l 2,34,35
 706 983 706 983 599 941 c 0,36,37
 545 920 545 920 478 920 c 0,38,39
 412 920 412 920 356 942 c 0,40,41
 251 983 251 983 251 1062 c 2,24,-1
150 664 m 1,42,-1
 150 674 l 1,43,-1
 231 846 l 1,44,-1
 805 846 l 1,45,-1
 805 836 l 1,46,-1
 724 664 l 1,47,-1
 150 664 l 1,42,-1
EndSplineSet
Validated: 1
EndChar

StartChar: guillemotright
Encoding: 187 187 125
Width: 1208
GlyphClass: 2
Flags: W
DStem2: 384 1284 200 1202 0.506484 -0.862249<0 451.016> 200 386 384 304 0.509561 0.860435<23.2035 475.231> 769 1284 585 1202 0.506484 -0.862249<0 451.016> 585 386 769 304 0.509561 0.860435<23.2035 475.231>
LayerCount: 2
Fore
SplineSet
384 304 m 1,0,-1
 374 304 l 1,1,-1
 200 386 l 1,2,-1
 442 795 l 1,3,-1
 200 1202 l 1,4,-1
 374 1284 l 1,5,-1
 384 1284 l 1,6,-1
 673 792 l 1,7,-1
 384 304 l 1,0,-1
769 304 m 1,8,-1
 759 304 l 1,9,-1
 585 386 l 1,10,-1
 827 795 l 1,11,-1
 585 1202 l 1,12,-1
 759 1284 l 1,13,-1
 769 1284 l 1,14,-1
 1058 792 l 1,15,-1
 769 304 l 1,8,-1
EndSplineSet
Validated: 1
EndChar

StartChar: onequarter
Encoding: 188 188 126
Width: 1469
GlyphClass: 2
Flags: W
HStem: -40 21G<310.529 371.317 1044 1122.22> 195 141<879 1044 1194 1219> 1325 112<150 262> 1530 20G<344.23 422 910.683 971.471>
VStem: 272 150<764 1382> 1044 150<14 195 336 540>
DStem2: 211 28 362 -40 0.422266 0.906472<2.12205 1679.04>
LayerCount: 2
Fore
SplineSet
879 336 m 1,0,-1
 1044 336 l 1,1,-1
 1044 540 l 1,2,-1
 879 336 l 1,0,-1
1044 -40 m 1,3,-1
 1044 195 l 1,4,-1
 678 195 l 1,5,-1
 678 231 l 1,6,-1
 722 324 l 1,7,-1
 1053 750 l 1,8,-1
 1158 800 l 1,9,-1
 1194 800 l 1,10,-1
 1194 336 l 1,11,-1
 1269 336 l 1,12,-1
 1269 300 l 1,13,-1
 1219 195 l 1,14,-1
 1194 195 l 1,15,-1
 1194 14 l 1,16,-1
 1080 -40 l 1,17,-1
 1044 -40 l 1,3,-1
386 1550 m 1,18,-1
 422 1550 l 1,19,-1
 422 764 l 1,20,-1
 308 710 l 1,21,-1
 272 710 l 1,22,-1
 272 1382 l 1,23,-1
 150 1325 l 1,24,-1
 150 1437 l 1,25,-1
 386 1550 l 1,18,-1
352 -40 m 1,26,-1
 211 28 l 1,27,-1
 920 1550 l 1,28,-1
 930 1550 l 1,29,-1
 1071 1482 l 1,30,-1
 362 -40 l 1,31,-1
 352 -40 l 1,26,-1
EndSplineSet
Validated: 1
EndChar

StartChar: onehalf
Encoding: 189 189 127
Width: 1536
GlyphClass: 2
Flags: W
HStem: -40 21G<310.529 371.317> 0 141<1025 1286> 660 140<930.056 1183.27> 1325 112<150 262> 1530 20G<344.23 422 910.683 971.471>
VStem: 272 150<764 1382> 779 150<509 642.432> 1184 150<434.422 644.222>
DStem2: 211 28 362 -40 0.422266 0.906472<2.12205 1679.04> 819 131 1025 141 0.735267 0.677777<158.243 534.346>
LayerCount: 2
Fore
SplineSet
774 0 m 1,0,-1
 774 36 l 1,1,-1
 819 131 l 1,2,-1
 1062 355 l 1,3,4
 1184 469 1184 469 1184 503 c 0,5,6
 1184 504 1184 504 1184 505 c 2,7,-1
 1184 612 l 2,8,9
 1183 619 1183 619 1178 624 c 0,10,11
 1168 635 1168 635 1139 646 c 0,12,13
 1101 660 1101 660 1056 660 c 128,-1,14
 1011 660 1011 660 973 645 c 0,15,16
 947 635 947 635 934 622 c 0,17,18
 928 616 928 616 928 610 c 2,19,-1
 929 509 l 1,20,-1
 815 455 l 1,21,-1
 779 455 l 1,22,-1
 778 610 l 2,23,24
 778 718 778 718 907 772 c 0,25,26
 976 800 976 800 1056 800 c 128,-1,27
 1136 800 1136 800 1205 772 c 0,28,29
 1333 720 1333 720 1334 616 c 2,30,-1
 1334 504 l 2,31,32
 1334 406 1334 406 1190 283 c 2,33,-1
 1025 141 l 1,34,-1
 1336 141 l 1,35,-1
 1336 105 l 1,36,-1
 1286 0 l 1,37,-1
 774 0 l 1,0,-1
386 1550 m 1,38,-1
 422 1550 l 1,39,-1
 422 764 l 1,40,-1
 308 710 l 1,41,-1
 272 710 l 1,42,-1
 272 1382 l 1,43,-1
 150 1325 l 1,44,-1
 150 1437 l 1,45,-1
 386 1550 l 1,38,-1
352 -40 m 1,46,-1
 211 28 l 1,47,-1
 920 1550 l 1,48,-1
 930 1550 l 1,49,-1
 1071 1482 l 1,50,-1
 362 -40 l 1,51,-1
 352 -40 l 1,46,-1
EndSplineSet
Validated: 1
EndChar

StartChar: threequarters
Encoding: 190 190 128
Width: 1665
GlyphClass: 2
Flags: W
HStem: -40 21G<506.529 567.317 1240 1318.22> 195 141<1075 1240 1390 1415> 711 140<301.584 551.575> 1369 141<244 440> 1530 20G<1106.68 1167.47>
VStem: 150 150<868.832 971> 555 150<887.188 1077.05> 1240 150<14 195 336 540>
DStem2: 407 28 558 -40 0.422266 0.906472<2.12205 1679.04>
LayerCount: 2
Fore
SplineSet
150 971 m 1,0,-1
 265 1026 l 1,1,-1
 300 1026 l 1,2,-1
 300 901 l 2,3,4
 300 895 300 895 306 889 c 0,5,6
 318 877 318 877 345 866 c 0,7,8
 382 851 382 851 431 851 c 0,9,10
 472 851 472 851 510 865 c 0,11,12
 541 877 541 877 550 887 c 0,13,14
 555 893 555 893 555 899 c 2,15,-1
 555 1046 l 2,16,17
 555 1051 555 1051 549 1058 c 0,18,19
 538 1070 538 1070 510 1080 c 0,20,21
 471 1094 471 1094 428 1094 c 0,22,23
 325 1094 325 1094 288 1076 c 1,24,-1
 440 1369 l 1,25,-1
 194 1369 l 1,26,-1
 194 1405 l 1,27,-1
 244 1510 l 1,28,-1
 680 1510 l 1,29,-1
 509 1222 l 1,30,31
 545 1214 545 1214 576 1202 c 0,32,33
 705 1152 705 1152 705 1045 c 2,34,-1
 705 895 l 2,35,36
 705 792 705 792 577 739 c 0,37,38
 510 711 510 711 425 711 c 24,39,40
 345 711 345 711 279 739 c 0,41,42
 150 794 150 794 150 901 c 2,43,-1
 150 971 l 1,0,-1
1075 336 m 1,44,-1
 1240 336 l 1,45,-1
 1240 540 l 1,46,-1
 1075 336 l 1,44,-1
1240 -40 m 1,47,-1
 1240 195 l 1,48,-1
 874 195 l 1,49,-1
 874 231 l 1,50,-1
 918 324 l 1,51,-1
 1249 750 l 1,52,-1
 1354 800 l 1,53,-1
 1390 800 l 1,54,-1
 1390 336 l 1,55,-1
 1465 336 l 1,56,-1
 1465 300 l 1,57,-1
 1415 195 l 1,58,-1
 1390 195 l 1,59,-1
 1390 14 l 1,60,-1
 1276 -40 l 1,61,-1
 1240 -40 l 1,47,-1
548 -40 m 1,62,-1
 407 28 l 1,63,-1
 1116 1550 l 1,64,-1
 1126 1550 l 1,65,-1
 1267 1482 l 1,66,-1
 558 -40 l 1,67,-1
 548 -40 l 1,62,-1
EndSplineSet
Validated: 1
EndChar

StartChar: questiondown
Encoding: 191 191 129
Width: 1310
GlyphClass: 2
Flags: W
HStem: -20 180<446.07 863.93> 1285 245<581.097 748.903>
VStem: 150 200<234.196 595.792> 545 240<1322.13 1492.87> 579 203<955.582 1056> 960 200<234.196 460>
LayerCount: 2
Fore
SplineSet
1160 550 m 1,0,-1
 1160 310 l 2,1,2
 1160 127 1160 127 933 33 c 0,3,4
 806 -20 806 -20 655 -20 c 128,-1,5
 504 -20 504 -20 377 33 c 0,6,7
 150 127 150 127 150 310 c 2,8,-1
 150 460 l 2,9,10
 150 707 150 707 489 919 c 24,11,12
 576 973 576 973 579 1056 c 1,13,-1
 772 1149 l 1,14,-1
 782 1149 l 1,15,16
 781 895 781 895 607 788 c 24,17,18
 350 630 350 630 350 459 c 2,19,-1
 350 310 l 2,20,21
 350 241 350 241 471 193 c 0,22,23
 555 160 555 160 655 160 c 128,-1,24
 755 160 755 160 839 193 c 0,25,26
 960 241 960 241 960 310 c 2,27,-1
 960 460 l 1,28,-1
 1150 550 l 1,29,-1
 1160 550 l 1,0,-1
785 1407.5 m 128,-1,31
 785 1357 785 1357 750 1321 c 128,-1,32
 715 1285 715 1285 665 1285 c 128,-1,33
 615 1285 615 1285 580 1321 c 128,-1,34
 545 1357 545 1357 545 1407.5 c 128,-1,35
 545 1458 545 1458 580 1494 c 128,-1,36
 615 1530 615 1530 665 1530 c 128,-1,37
 715 1530 715 1530 750 1494 c 128,-1,30
 785 1458 785 1458 785 1407.5 c 128,-1,31
EndSplineSet
Validated: 1
EndChar

StartChar: Delta
Encoding: 916 916 130
Width: 1191
GlyphClass: 2
Flags: W
HStem: 0 182<275 916> 1530 20G<623.805 682.581>
DStem2: 5 0 275 182 0.315452 0.948942<257.879 1340.03>
LayerCount: 2
Fore
SplineSet
5 0 m 1,0,-1
 493 1468 l 1,1,-1
 666 1550 l 1,2,-1
 676 1550 l 1,3,-1
 1186 0 l 1,4,-1
 5 0 l 1,0,-1
275 182 m 1,5,-1
 916 182 l 1,6,-1
 598 1215 l 1,7,-1
 275 182 l 1,5,-1
EndSplineSet
Validated: 1
EndChar

StartChar: Pi
Encoding: 928 928 131
Width: 1390
GlyphClass: 2
Flags: W
HStem: -40 21G<200 252.222 990 1042.22> 1328 182<400 990>
VStem: 200 200<50 1328> 990 200<50 1328>
LayerCount: 2
Fore
SplineSet
210 -40 m 1,0,-1
 200 -40 l 1,1,-1
 200 1460 l 1,2,-1
 306 1510 l 1,3,-1
 1190 1510 l 1,4,-1
 1190 50 l 1,5,-1
 1000 -40 l 1,6,-1
 990 -40 l 1,7,-1
 990 1328 l 1,8,-1
 400 1328 l 1,9,-1
 400 50 l 1,10,-1
 210 -40 l 1,0,-1
EndSplineSet
Validated: 3073
EndChar

StartChar: Sigma
Encoding: 931 931 132
Width: 1203
GlyphClass: 2
Flags: W
HStem: 0 182<430 972> 1328 182<416 881>
DStem2: 416 1328 101 1460 0.592076 -0.805882<0 558.361>
LayerCount: 2
Fore
SplineSet
100 0 m 1,0,-1
 605 774 l 1,1,-1
 101 1460 l 1,2,-1
 207 1510 l 1,3,-1
 962 1510 l 1,4,-1
 962 1500 l 1,5,-1
 881 1328 l 1,6,-1
 416 1328 l 1,7,-1
 837 774 l 1,8,-1
 430 182 l 1,9,-1
 1053 182 l 1,10,-1
 1053 172 l 1,11,-1
 972 0 l 1,12,-1
 100 0 l 1,0,-1
EndSplineSet
Validated: 1
EndChar

StartChar: Omega
Encoding: 937 937 133
Width: 1410
GlyphClass: 2
Flags: W
HStem: 0 392<476.836 608 802 933.164> 0 182<231 446 964 1179> 1350 180<496.07 913.93>
VStem: 200 200<457.854 1275.46> 446 162<182 249> 802 162<182 249> 1010 200<458.538 1276.15>
LayerCount: 2
Fore
SplineSet
150 0 m 1,0,-1
 150 10 l 1,1,-1
 231 182 l 1,2,-1
 446 182 l 1,3,-1
 446 249 l 1,4,-1
 427 257 l 0,5,6
 200 350 200 350 200 534 c 2,7,-1
 200 1200 l 2,8,9
 200 1382 200 1382 427 1477 c 0,10,11
 554 1530 554 1530 705 1530 c 128,-1,12
 856 1530 856 1530 983 1477 c 0,13,14
 1210 1384 1210 1384 1210 1200 c 2,15,-1
 1210 534 l 2,16,17
 1210 352 1210 352 983 257 c 0,18,-1
 964 249 l 1,19,-1
 964 182 l 1,20,-1
 1260 182 l 1,21,-1
 1260 172 l 1,22,-1
 1179 0 l 1,23,-1
 802 0 l 1,24,-1
 802 392 l 1,25,26
 847 401 847 401 889 417 c 0,27,28
 1010 463 1010 463 1010 534 c 2,29,-1
 1010 1200 l 2,30,31
 1010 1269 1010 1269 889 1317 c 0,32,33
 805 1350 805 1350 705 1350 c 128,-1,34
 605 1350 605 1350 521 1317 c 0,35,36
 400 1269 400 1269 400 1200 c 2,37,-1
 400 534 l 2,38,39
 400 463 400 463 521 417 c 0,40,41
 563 401 563 401 608 392 c 1,42,-1
 608 0 l 1,43,-1
 150 0 l 1,0,-1
EndSplineSet
Validated: 1
EndChar

StartChar: mu
Encoding: 956 956 134
Width: 1180
GlyphClass: 2
Flags: W
HStem: -450 21G<200 252.222> -20 180<427.834 801.341> 1120 20G<347.778 400 977.778 1030>
VStem: 200 200<-360 14 193.423 1050> 830 200<196.429 1050>
LayerCount: 2
Fore
SplineSet
200 -450 m 1,0,-1
 200 1050 l 1,1,-1
 390 1140 l 1,2,-1
 400 1140 l 1,3,-1
 400 260 l 2,4,5
 400 210 400 210 462.5 185 c 128,-1,6
 525 160 525 160 615 160 c 128,-1,7
 705 160 705 160 767.5 185 c 128,-1,8
 830 210 830 210 830 260 c 2,9,-1
 830 1050 l 1,10,-1
 1020 1140 l 1,11,-1
 1030 1140 l 1,12,-1
 1030 225 l 2,13,14
 1030 91 1030 91 843 19 c 0,15,16
 742 -20 742 -20 615 -20 c 0,17,18
 496 -20 496 -20 400 14 c 1,19,-1
 400 -360 l 1,20,-1
 210 -450 l 1,21,-1
 200 -450 l 1,0,-1
EndSplineSet
Validated: 1
EndChar

StartChar: pi
Encoding: 960 960 135
Width: 1230
GlyphClass: 2
Flags: W
HStem: -40 21G<200 252.222 830 882.222> 918 182<400 830>
VStem: 200 200<50 918> 830 200<50 918>
LayerCount: 2
Fore
SplineSet
210 -40 m 1,0,-1
 200 -40 l 1,1,-1
 200 1050 l 1,2,-1
 306 1100 l 1,3,-1
 1030 1100 l 1,4,-1
 1030 50 l 1,5,-1
 840 -40 l 1,6,-1
 830 -40 l 1,7,-1
 830 918 l 1,8,-1
 400 918 l 1,9,-1
 400 50 l 1,10,-1
 210 -40 l 1,0,-1
EndSplineSet
Validated: 1
EndChar

StartChar: uni2010
Encoding: 8208 8208 136
Width: 1214
GlyphClass: 2
Flags: W
HStem: 664 182<306 908>
LayerCount: 2
Fore
SplineSet
225 664 m 1,0,-1
 225 674 l 1,1,-1
 306 846 l 1,2,-1
 989 846 l 1,3,-1
 989 836 l 1,4,-1
 908 664 l 1,5,-1
 225 664 l 1,0,-1
EndSplineSet
Validated: 3073
EndChar

StartChar: uni2011
Encoding: 8209 8209 137
Width: 1214
GlyphClass: 2
Flags: W
HStem: 664 182<306 908>
LayerCount: 2
Fore
SplineSet
225 664 m 1,0,-1
 225 674 l 1,1,-1
 306 846 l 1,2,-1
 989 846 l 1,3,-1
 989 836 l 1,4,-1
 908 664 l 1,5,-1
 225 664 l 1,0,-1
EndSplineSet
Validated: 3073
EndChar

StartChar: figuredash
Encoding: 8210 8210 138
Width: 1214
GlyphClass: 2
Flags: W
HStem: 664 182<231 983>
LayerCount: 2
Fore
SplineSet
150 664 m 1,0,-1
 150 674 l 1,1,-1
 231 846 l 1,2,-1
 1064 846 l 1,3,-1
 1064 836 l 1,4,-1
 983 664 l 1,5,-1
 150 664 l 1,0,-1
EndSplineSet
Validated: 3073
EndChar

StartChar: endash
Encoding: 8211 8211 139
Width: 1214
GlyphClass: 2
Flags: W
HStem: 664 182<231 983>
LayerCount: 2
Fore
SplineSet
150 664 m 1,0,-1
 150 674 l 1,1,-1
 231 846 l 1,2,-1
 1064 846 l 1,3,-1
 1064 836 l 1,4,-1
 983 664 l 1,5,-1
 150 664 l 1,0,-1
EndSplineSet
Validated: 3073
EndChar

StartChar: emdash
Encoding: 8212 8212 140
Width: 1214
GlyphClass: 2
Flags: W
HStem: 664 182<106 1108>
LayerCount: 2
Fore
SplineSet
25 664 m 1,0,-1
 25 674 l 1,1,-1
 106 846 l 1,2,-1
 1189 846 l 1,3,-1
 1189 836 l 1,4,-1
 1108 664 l 1,5,-1
 25 664 l 1,0,-1
EndSplineSet
Validated: 3073
EndChar

StartChar: afii00208
Encoding: 8213 8213 141
Width: 1214
GlyphClass: 2
Flags: W
HStem: 664 182<106 1108>
LayerCount: 2
Fore
SplineSet
25 664 m 1,0,-1
 25 674 l 1,1,-1
 106 846 l 1,2,-1
 1189 846 l 1,3,-1
 1189 836 l 1,4,-1
 1108 664 l 1,5,-1
 25 664 l 1,0,-1
EndSplineSet
Validated: 3073
EndChar

StartChar: underscoredbl
Encoding: 8215 8215 142
Width: 1214
GlyphClass: 2
Flags: W
HStem: -410 182<231 983> -182 182<231 983>
LayerCount: 2
Fore
SplineSet
150 -182 m 1,0,-1
 150 -172 l 1,1,-1
 231 0 l 1,2,-1
 1064 0 l 1,3,-1
 1064 -10 l 1,4,-1
 983 -182 l 1,5,-1
 150 -182 l 1,0,-1
150 -410 m 1,6,-1
 150 -400 l 1,7,-1
 231 -228 l 1,8,-1
 1064 -228 l 1,9,-1
 1064 -238 l 1,10,-1
 983 -410 l 1,11,-1
 150 -410 l 1,6,-1
EndSplineSet
Validated: 3073
EndChar

StartChar: quoteleft
Encoding: 8216 8216 143
Width: 609
GlyphClass: 2
Flags: W
HStem: 986 564
VStem: 150 175<1155.38 1380.94>
LayerCount: 2
Fore
SplineSet
395 1550 m 1,0,-1
 438 1500 l 1,1,2
 325 1385 325 1385 325 1284 c 0,3,4
 325 1163 325 1163 459 1076 c 1,5,-1
 269 986 l 1,6,-1
 259 986 l 1,7,8
 150 1093 150 1093 150 1230 c 0,9,10
 150 1421 150 1421 395 1550 c 1,0,-1
EndSplineSet
Validated: 1
EndChar

StartChar: quoteright
Encoding: 8217 8217 144
Width: 609
GlyphClass: 2
Flags: W
HStem: 986 564
VStem: 284 175<1155.06 1380.62>
LayerCount: 2
Fore
SplineSet
340 1550 m 1,0,-1
 350 1550 l 1,1,2
 459 1443 459 1443 459 1306 c 0,3,4
 459 1115 459 1115 214 986 c 1,5,-1
 171 1036 l 1,6,7
 284 1151 284 1151 284 1252 c 0,8,9
 284 1373 284 1373 150 1460 c 1,10,-1
 340 1550 l 1,0,-1
EndSplineSet
Validated: 1
EndChar

StartChar: quotesinglbase
Encoding: 8218 8218 145
Width: 609
GlyphClass: 2
Flags: W
HStem: -286 564
VStem: 284 175<-116.943 108.616>
LayerCount: 2
Fore
SplineSet
340 278 m 1,0,-1
 350 278 l 1,1,2
 459 171 459 171 459 34 c 0,3,4
 459 -157 459 -157 214 -286 c 1,5,-1
 171 -236 l 1,6,7
 284 -121 284 -121 284 -20 c 0,8,9
 284 101 284 101 150 188 c 1,10,-1
 340 278 l 1,0,-1
EndSplineSet
Validated: 1
EndChar

StartChar: quotereversed
Encoding: 8219 8219 146
Width: 609
GlyphClass: 2
Flags: W
HStem: 986 564
VStem: 150 175<1155.06 1380.62>
LayerCount: 2
Fore
SplineSet
259 1550 m 1,0,-1
 269 1550 l 1,1,-1
 459 1460 l 1,2,3
 325 1373 325 1373 325 1252 c 0,4,5
 325 1151 325 1151 438 1036 c 1,6,-1
 395 986 l 1,7,8
 150 1115 150 1115 150 1306 c 0,9,10
 150 1443 150 1443 259 1550 c 1,0,-1
EndSplineSet
Validated: 1
EndChar

StartChar: quotedblleft
Encoding: 8220 8220 147
Width: 924
GlyphClass: 2
Flags: W
HStem: 986 564
VStem: 150 175<1155.38 1380.94> 465 175<1155.38 1380.94>
LayerCount: 2
Fore
SplineSet
395 1550 m 1,0,-1
 438 1500 l 1,1,2
 325 1385 325 1385 325 1284 c 0,3,4
 325 1163 325 1163 459 1076 c 1,5,-1
 269 986 l 1,6,-1
 259 986 l 1,7,8
 150 1093 150 1093 150 1230 c 0,9,10
 150 1421 150 1421 395 1550 c 1,0,-1
710 1550 m 1,11,-1
 753 1500 l 1,12,13
 640 1385 640 1385 640 1284 c 0,14,15
 640 1163 640 1163 774 1076 c 1,16,-1
 584 986 l 1,17,-1
 574 986 l 1,18,19
 465 1093 465 1093 465 1230 c 0,20,21
 465 1421 465 1421 710 1550 c 1,11,-1
EndSplineSet
Validated: 1
EndChar

StartChar: quotedblright
Encoding: 8221 8221 148
Width: 924
GlyphClass: 2
Flags: W
HStem: 986 564
VStem: 284 175<1155.06 1380.62> 599 175<1155.06 1380.62>
LayerCount: 2
Fore
SplineSet
655 1550 m 1,0,-1
 665 1550 l 1,1,2
 774 1443 774 1443 774 1306 c 0,3,4
 774 1115 774 1115 529 986 c 1,5,-1
 486 1036 l 1,6,7
 599 1151 599 1151 599 1252 c 0,8,9
 599 1373 599 1373 465 1460 c 1,10,-1
 655 1550 l 1,0,-1
340 1550 m 1,11,-1
 350 1550 l 1,12,13
 459 1443 459 1443 459 1306 c 0,14,15
 459 1115 459 1115 214 986 c 1,16,-1
 171 1036 l 1,17,18
 284 1151 284 1151 284 1252 c 0,19,20
 284 1373 284 1373 150 1460 c 1,21,-1
 340 1550 l 1,11,-1
EndSplineSet
Validated: 1
EndChar

StartChar: quotedblbase
Encoding: 8222 8222 149
Width: 924
GlyphClass: 2
Flags: W
HStem: -286 564
VStem: 284 175<-116.943 108.616> 599 175<-116.943 108.616>
LayerCount: 2
Fore
SplineSet
655 278 m 1,0,-1
 665 278 l 1,1,2
 774 171 774 171 774 34 c 0,3,4
 774 -157 774 -157 529 -286 c 1,5,-1
 486 -236 l 1,6,7
 599 -121 599 -121 599 -20 c 0,8,9
 599 101 599 101 465 188 c 1,10,-1
 655 278 l 1,0,-1
340 278 m 1,11,-1
 350 278 l 1,12,13
 459 171 459 171 459 34 c 0,14,15
 459 -157 459 -157 214 -286 c 1,16,-1
 171 -236 l 1,17,18
 284 -121 284 -121 284 -20 c 0,19,20
 284 101 284 101 150 188 c 1,21,-1
 340 278 l 1,11,-1
EndSplineSet
Validated: 1
EndChar

StartChar: uni201F
Encoding: 8223 8223 150
Width: 924
GlyphClass: 2
Flags: W
HStem: 986 564
VStem: 150 175<1155.06 1380.62> 465 175<1155.06 1380.62>
LayerCount: 2
Fore
SplineSet
259 1550 m 1,0,1
 269 1550 l 1,2,-1
 459 1460 l 1,3,4
 325 1373 325 1373 325 1252 c 0,5,6
 325 1151 325 1151 438 1036 c 1,7,-1
 395 986 l 1,8,9
 150 1115 150 1115 150 1306 c 0,10,11
 150 1443 150 1443 259 1550 c 1,0,1
574 1550 m 1,12,-1
 584 1550 l 1,13,-1
 774 1460 l 1,14,15
 640 1373 640 1373 640 1252 c 0,16,17
 640 1151 640 1151 753 1036 c 1,18,-1
 710 986 l 1,19,20
 465 1115 465 1115 465 1306 c 0,21,22
 465 1443 465 1443 574 1550 c 1,12,-1
EndSplineSet
Validated: 1
EndChar

StartChar: dagger
Encoding: 8224 8224 151
Width: 1214
GlyphClass: 2
Flags: W
HStem: -40 21G<507 559.222> 996 182<231 507 707 983> 1530 20G<654.778 707>
VStem: 507 200<50 996 1178 1460>
LayerCount: 2
Fore
SplineSet
517 -40 m 1,0,-1
 507 -40 l 1,1,-1
 507 996 l 1,2,-1
 150 996 l 1,3,-1
 150 1006 l 1,4,-1
 231 1178 l 1,5,-1
 507 1178 l 1,6,-1
 507 1460 l 1,7,-1
 697 1550 l 1,8,-1
 707 1550 l 1,9,-1
 707 1178 l 1,10,-1
 1064 1178 l 1,11,-1
 1064 1168 l 1,12,-1
 983 996 l 1,13,-1
 707 996 l 1,14,-1
 707 50 l 1,15,-1
 517 -40 l 1,0,-1
EndSplineSet
Validated: 3073
EndChar

StartChar: daggerdbl
Encoding: 8225 8225 152
Width: 1214
GlyphClass: 2
Flags: W
HStem: -40 21G<507 559.222> 332 182<231 507 707 983> 996 182<231 507 707 983> 1530 20G<654.778 707>
VStem: 507 200<50 332 514 996 1178 1460>
LayerCount: 2
Fore
SplineSet
517 -40 m 1,0,-1
 507 -40 l 1,1,-1
 507 332 l 1,2,-1
 150 332 l 1,3,-1
 150 342 l 1,4,-1
 231 514 l 1,5,-1
 507 514 l 1,6,-1
 507 996 l 1,7,-1
 150 996 l 1,8,-1
 150 1006 l 1,9,-1
 231 1178 l 1,10,-1
 507 1178 l 1,11,-1
 507 1460 l 1,12,-1
 697 1550 l 1,13,-1
 707 1550 l 1,14,-1
 707 1178 l 1,15,-1
 1064 1178 l 1,16,-1
 1064 1168 l 1,17,-1
 983 996 l 1,18,-1
 707 996 l 1,19,-1
 707 514 l 1,20,-1
 1064 514 l 1,21,-1
 1064 504 l 1,22,-1
 983 332 l 1,23,-1
 707 332 l 1,24,-1
 707 50 l 1,25,-1
 517 -40 l 1,0,-1
EndSplineSet
Validated: 3073
EndChar

StartChar: bullet
Encoding: 8226 8226 153
Width: 1130
GlyphClass: 2
Flags: W
HStem: 354 800<325.495 804.505>
LayerCount: 2
Fore
SplineSet
150 599 m 2,0,-1
 150 909 l 2,1,2
 150 1043 150 1043 337 1115 c 0,3,4
 438 1154 438 1154 565 1154 c 0,5,6
 695 1154 695 1154 793 1115 c 0,7,8
 980 1040 980 1040 980 909 c 2,9,-1
 980 599 l 2,10,11
 980 465 980 465 793 393 c 0,12,13
 692 354 692 354 565 354 c 0,14,15
 435 354 435 354 337 393 c 0,16,17
 150 467 150 467 150 599 c 2,0,-1
EndSplineSet
Validated: 1
EndChar

StartChar: uni2023
Encoding: 8227 8227 154
Width: 928
GlyphClass: 2
Flags: W
HStem: 1121 20G<200 233.493>
VStem: 200 628
LayerCount: 2
Fore
SplineSet
200 362 m 1,0,-1
 200 1141 l 1,1,-1
 828 766 l 1,2,-1
 200 362 l 1,0,-1
EndSplineSet
Validated: 3073
EndChar

StartChar: onedotenleader
Encoding: 8228 8228 155
Width: 600
GlyphClass: 2
Flags: W
HStem: -20 245<216.097 383.903>
VStem: 180 240<17.1285 187.871>
LayerCount: 2
Fore
SplineSet
180 102.5 m 128,-1,1
 180 153 180 153 215 189 c 128,-1,2
 250 225 250 225 300 225 c 128,-1,3
 350 225 350 225 385 189 c 128,-1,4
 420 153 420 153 420 102.5 c 128,-1,5
 420 52 420 52 385 16 c 128,-1,6
 350 -20 350 -20 300 -20 c 128,-1,7
 250 -20 250 -20 215 16 c 128,-1,0
 180 52 180 52 180 102.5 c 128,-1,1
EndSplineSet
Validated: 1
EndChar

StartChar: twodotenleader
Encoding: 8229 8229 156
Width: 936
GlyphClass: 2
Flags: W
HStem: -20 245<216.097 383.903 552.097 719.903>
VStem: 180 240<17.1285 187.871> 516 240<17.1285 187.871>
LayerCount: 2
Fore
SplineSet
516 102.5 m 128,-1,1
 516 153 516 153 551 189 c 128,-1,2
 586 225 586 225 636 225 c 128,-1,3
 686 225 686 225 721 189 c 128,-1,4
 756 153 756 153 756 102.5 c 128,-1,5
 756 52 756 52 721 16 c 128,-1,6
 686 -20 686 -20 636 -20 c 128,-1,7
 586 -20 586 -20 551 16 c 128,-1,0
 516 52 516 52 516 102.5 c 128,-1,1
180 102.5 m 128,-1,9
 180 153 180 153 215 189 c 128,-1,10
 250 225 250 225 300 225 c 128,-1,11
 350 225 350 225 385 189 c 128,-1,12
 420 153 420 153 420 102.5 c 128,-1,13
 420 52 420 52 385 16 c 128,-1,14
 350 -20 350 -20 300 -20 c 128,-1,15
 250 -20 250 -20 215 16 c 128,-1,8
 180 52 180 52 180 102.5 c 128,-1,9
EndSplineSet
Validated: 1
EndChar

StartChar: ellipsis
Encoding: 8230 8230 157
Width: 1272
GlyphClass: 2
Flags: W
HStem: -20 245<216.097 383.903 552.097 719.903 888.097 1055.9>
VStem: 180 240<17.1285 187.871> 516 240<17.1285 187.871> 852 240<17.1285 187.871>
CounterMasks: 1 70
LayerCount: 2
Fore
SplineSet
852 102.5 m 128,-1,1
 852 153 852 153 887 189 c 128,-1,2
 922 225 922 225 972 225 c 128,-1,3
 1022 225 1022 225 1057 189 c 128,-1,4
 1092 153 1092 153 1092 102.5 c 128,-1,5
 1092 52 1092 52 1057 16 c 128,-1,6
 1022 -20 1022 -20 972 -20 c 128,-1,7
 922 -20 922 -20 887 16 c 128,-1,0
 852 52 852 52 852 102.5 c 128,-1,1
516 102.5 m 128,-1,9
 516 153 516 153 551 189 c 128,-1,10
 586 225 586 225 636 225 c 128,-1,11
 686 225 686 225 721 189 c 128,-1,12
 756 153 756 153 756 102.5 c 128,-1,13
 756 52 756 52 721 16 c 128,-1,14
 686 -20 686 -20 636 -20 c 128,-1,15
 586 -20 586 -20 551 16 c 128,-1,8
 516 52 516 52 516 102.5 c 128,-1,9
180 102.5 m 128,-1,17
 180 153 180 153 215 189 c 128,-1,18
 250 225 250 225 300 225 c 128,-1,19
 350 225 350 225 385 189 c 128,-1,20
 420 153 420 153 420 102.5 c 128,-1,21
 420 52 420 52 385 16 c 128,-1,22
 350 -20 350 -20 300 -20 c 128,-1,23
 250 -20 250 -20 215 16 c 128,-1,16
 180 52 180 52 180 102.5 c 128,-1,17
EndSplineSet
Validated: 1
EndChar

StartChar: uni2027
Encoding: 8231 8231 158
Width: 600
GlyphClass: 2
Flags: W
HStem: 631 245<216.097 383.903>
VStem: 180 240<668.129 838.871>
LayerCount: 2
Fore
SplineSet
180 753.5 m 132,-1,1
 180 804 180 804 215 840 c 132,-1,2
 250 876 250 876 300 876 c 132,-1,3
 350 876 350 876 385 840 c 132,-1,4
 420 804 420 804 420 753.5 c 132,-1,5
 420 703 420 703 385 667 c 132,-1,6
 350 631 350 631 300 631 c 132,-1,7
 250 631 250 631 215 667 c 132,-1,0
 180 703 180 703 180 753.5 c 132,-1,1
EndSplineSet
Validated: 1
EndChar

StartChar: perthousand
Encoding: 8240 8240 159
Width: 3080
GlyphClass: 2
Flags: W
HStem: -40 21G<746.529 807.317> -20 180<1392.17 1765.34 2328.17 2701.34> 600 180<1392.66 1765.83 2328.66 2701.83> 730 180<378.173 751.341> 1350 180<378.659 751.827> 1530 20G<1346.68 1407.47>
VStem: 150 200<946.819 1313.57> 780 200<946.429 1316.58> 1164 200<196.819 563.571> 1794 200<196.429 566.577> 2100 200<196.819 563.571> 2730 200<196.429 566.577>
DStem2: 647 28 798 -40 0.422266 0.906472<2.12205 1679.04>
LayerCount: 2
Fore
SplineSet
2300 260 m 2,0,1
 2300 210 2300 210 2362.5 185 c 128,-1,2
 2425 160 2425 160 2515 160 c 128,-1,3
 2605 160 2605 160 2667.5 185 c 128,-1,4
 2730 210 2730 210 2730 260 c 10,5,-1
 2730 500 l 2,6,7
 2730 550 2730 550 2667.5 575 c 128,-1,8
 2605 600 2605 600 2515 600 c 128,-1,9
 2425 600 2425 600 2362.5 575 c 128,-1,10
 2300 550 2300 550 2300 500 c 2,11,-1
 2300 260 l 2,0,1
2100 225 m 2,12,-1
 2100 535 l 2,13,14
 2100 669 2100 669 2287 741 c 0,15,16
 2388 780 2388 780 2515 780 c 0,17,18
 2645 780 2645 780 2743 741 c 0,19,20
 2930 666 2930 666 2930 535 c 2,21,-1
 2930 225 l 2,22,23
 2930 91 2930 91 2743 19 c 0,24,25
 2642 -20 2642 -20 2515 -20 c 0,26,27
 2385 -20 2385 -20 2287 19 c 0,28,29
 2100 93 2100 93 2100 225 c 2,12,-1
1364 260 m 2,30,31
 1364 210 1364 210 1426.5 185 c 128,-1,32
 1489 160 1489 160 1579 160 c 128,-1,33
 1669 160 1669 160 1731.5 185 c 128,-1,34
 1794 210 1794 210 1794 260 c 10,35,-1
 1794 500 l 2,36,37
 1794 550 1794 550 1731.5 575 c 128,-1,38
 1669 600 1669 600 1579 600 c 128,-1,39
 1489 600 1489 600 1426.5 575 c 128,-1,40
 1364 550 1364 550 1364 500 c 2,41,-1
 1364 260 l 2,30,31
1164 225 m 2,42,-1
 1164 535 l 2,43,44
 1164 669 1164 669 1351 741 c 0,45,46
 1452 780 1452 780 1579 780 c 0,47,48
 1709 780 1709 780 1807 741 c 0,49,50
 1994 666 1994 666 1994 535 c 2,51,-1
 1994 225 l 2,52,53
 1994 91 1994 91 1807 19 c 0,54,55
 1706 -20 1706 -20 1579 -20 c 0,56,57
 1449 -20 1449 -20 1351 19 c 0,58,59
 1164 93 1164 93 1164 225 c 2,42,-1
350 1010 m 2,60,61
 350 960 350 960 412.5 935 c 128,-1,62
 475 910 475 910 565 910 c 128,-1,63
 655 910 655 910 717.5 935 c 128,-1,64
 780 960 780 960 780 1010 c 10,65,-1
 780 1250 l 2,66,67
 780 1300 780 1300 717.5 1325 c 128,-1,68
 655 1350 655 1350 565 1350 c 128,-1,69
 475 1350 475 1350 412.5 1325 c 128,-1,70
 350 1300 350 1300 350 1250 c 2,71,-1
 350 1010 l 2,60,61
150 975 m 2,72,-1
 150 1285 l 2,73,74
 150 1419 150 1419 337 1491 c 0,75,76
 438 1530 438 1530 565 1530 c 0,77,78
 695 1530 695 1530 793 1491 c 0,79,80
 980 1416 980 1416 980 1285 c 2,81,-1
 980 975 l 2,82,83
 980 841 980 841 793 769 c 0,84,85
 692 730 692 730 565 730 c 0,86,87
 435 730 435 730 337 769 c 0,88,89
 150 843 150 843 150 975 c 2,72,-1
788 -40 m 1,90,-1
 647 28 l 1,91,-1
 1356 1550 l 1,92,-1
 1366 1550 l 1,93,-1
 1507 1482 l 1,94,-1
 798 -40 l 1,95,-1
 788 -40 l 1,90,-1
EndSplineSet
Validated: 1
EndChar

StartChar: minute
Encoding: 8242 8242 160
Width: 680
GlyphClass: 2
Flags: W
HStem: 1059 491
VStem: 150 380
LayerCount: 2
Fore
SplineSet
344 1550 m 1,0,-1
 354 1550 l 1,1,-1
 530 1466 l 1,2,-1
 277 1059 l 1,3,-1
 267 1059 l 1,4,-1
 150 1114 l 1,5,-1
 344 1550 l 1,0,-1
EndSplineSet
Validated: 3073
EndChar

StartChar: second
Encoding: 8243 8243 161
Width: 998
GlyphClass: 2
Flags: W
HStem: 1059 491
LayerCount: 2
Fore
SplineSet
662 1550 m 1,0,-1
 672 1550 l 1,1,-1
 848 1466 l 1,2,-1
 595 1059 l 1,3,-1
 585 1059 l 1,4,-1
 468 1114 l 1,5,-1
 662 1550 l 1,0,-1
344 1550 m 1,6,-1
 354 1550 l 1,7,-1
 530 1466 l 1,8,-1
 277 1059 l 1,9,-1
 267 1059 l 1,10,-1
 150 1114 l 1,11,-1
 344 1550 l 1,6,-1
EndSplineSet
Validated: 3073
EndChar

StartChar: uni2034
Encoding: 8244 8244 162
Width: 1316
GlyphClass: 2
Flags: W
HStem: 1059 491
LayerCount: 2
Fore
SplineSet
980 1550 m 1,0,-1
 990 1550 l 1,1,-1
 1166 1466 l 1,2,-1
 913 1059 l 1,3,-1
 903 1059 l 1,4,-1
 786 1114 l 1,5,-1
 980 1550 l 1,0,-1
662 1550 m 1,6,-1
 672 1550 l 1,7,-1
 848 1466 l 1,8,-1
 595 1059 l 1,9,-1
 585 1059 l 1,10,-1
 468 1114 l 1,11,-1
 662 1550 l 1,6,-1
344 1550 m 1,12,-1
 354 1550 l 1,13,-1
 530 1466 l 1,14,-1
 277 1059 l 1,15,-1
 267 1059 l 1,16,-1
 150 1114 l 1,17,-1
 344 1550 l 1,12,-1
EndSplineSet
Validated: 3073
EndChar

StartChar: uni2035
Encoding: 8245 8245 163
Width: 680
GlyphClass: 2
Flags: W
HStem: 1059 491
VStem: 150 380
LayerCount: 2
Fore
SplineSet
326 1550 m 1,0,-1
 336 1550 l 1,1,-1
 530 1114 l 1,2,-1
 413 1059 l 1,3,-1
 403 1059 l 1,4,-1
 150 1466 l 1,5,-1
 326 1550 l 1,0,-1
EndSplineSet
Validated: 3073
EndChar

StartChar: uni2036
Encoding: 8246 8246 164
Width: 998
GlyphClass: 2
Flags: W
HStem: 1059 491
LayerCount: 2
Fore
SplineSet
326 1550 m 1,0,-1
 336 1550 l 1,1,-1
 530 1114 l 1,2,-1
 413 1059 l 1,3,-1
 403 1059 l 1,4,-1
 150 1466 l 1,5,-1
 326 1550 l 1,0,-1
644 1550 m 1,6,-1
 654 1550 l 1,7,-1
 848 1114 l 1,8,-1
 731 1059 l 1,9,-1
 721 1059 l 1,10,-1
 468 1466 l 1,11,-1
 644 1550 l 1,6,-1
EndSplineSet
Validated: 3073
EndChar

StartChar: uni2037
Encoding: 8247 8247 165
Width: 1316
GlyphClass: 2
Flags: W
HStem: 1059 491
LayerCount: 2
Fore
SplineSet
336 1550 m 1,0,-1
 530 1114 l 1,1,-1
 413 1059 l 1,2,-1
 403 1059 l 1,3,-1
 150 1466 l 1,4,-1
 326 1550 l 1,5,-1
 336 1550 l 1,0,-1
644 1550 m 1,6,-1
 654 1550 l 1,7,-1
 848 1114 l 1,8,-1
 731 1059 l 1,9,-1
 721 1059 l 1,10,-1
 468 1466 l 1,11,-1
 644 1550 l 1,6,-1
962 1550 m 1,12,-1
 972 1550 l 1,13,-1
 1166 1114 l 1,14,-1
 1049 1059 l 1,15,-1
 1039 1059 l 1,16,-1
 786 1466 l 1,17,-1
 962 1550 l 1,12,-1
EndSplineSet
Validated: 3073
EndChar

StartChar: guilsinglleft
Encoding: 8249 8249 166
Width: 823
GlyphClass: 2
Flags: W
VStem: 150 473
DStem2: 150 792 381 795 0.506484 0.862249<119.585 570.601> 381 795 150 792 0.509561 -0.860435<0 452.028>
LayerCount: 2
Fore
SplineSet
439 304 m 1,0,-1
 150 792 l 1,1,-1
 439 1284 l 1,2,-1
 449 1284 l 1,3,-1
 623 1202 l 1,4,-1
 381 795 l 1,5,-1
 623 386 l 1,6,-1
 449 304 l 1,7,-1
 439 304 l 1,0,-1
EndSplineSet
Validated: 1
EndChar

StartChar: guilsinglright
Encoding: 8250 8250 167
Width: 823
GlyphClass: 2
Flags: W
VStem: 200 473
DStem2: 384 1284 200 1202 0.506484 -0.862249<0 451.016> 200 386 384 304 0.509561 0.860435<23.2035 475.231>
LayerCount: 2
Fore
SplineSet
384 304 m 1,0,-1
 374 304 l 1,1,-1
 200 386 l 1,2,-1
 442 795 l 1,3,-1
 200 1202 l 1,4,-1
 374 1284 l 1,5,-1
 384 1284 l 1,6,-1
 673 792 l 1,7,-1
 384 304 l 1,0,-1
EndSplineSet
Validated: 1
EndChar

StartChar: uni2043
Encoding: 8259 8259 168
Width: 1183
GlyphClass: 2
Flags: W
VStem: 500 182<387 605 921 1139>
DStem2: 311 1030 150 913 0.865946 -0.500138<0 218.179 533.824 752.003> 150 613 311 496 0.865946 0.500138<80.9012 299.08 614.726 832.904>
LayerCount: 2
Fore
SplineSet
682 1220 m 1,0,-1
 682 921 l 1,1,-1
 871 1030 l 1,2,-1
 1028 921 l 1,3,-1
 1033 913 l 1,4,-1
 773 763 l 1,5,-1
 1033 613 l 1,6,-1
 1028 605 l 1,7,-1
 871 496 l 1,8,-1
 682 605 l 1,9,-1
 682 387 l 1,10,-1
 510 306 l 1,11,-1
 500 306 l 1,12,-1
 500 605 l 1,13,-1
 311 496 l 1,14,-1
 155 605 l 1,15,-1
 150 613 l 1,16,-1
 409 763 l 1,17,-1
 150 913 l 1,18,-1
 155 921 l 1,19,-1
 311 1030 l 1,20,-1
 500 921 l 1,21,-1
 500 1139 l 1,22,-1
 672 1220 l 1,23,-1
 682 1220 l 1,0,-1
EndSplineSet
Validated: 3073
EndChar

StartChar: fraction
Encoding: 8260 8260 169
Width: 974
GlyphClass: 2
Flags: W
DStem2: 10 -72 161 -140 0.422626 0.906304<2.18787 1899.6>
LayerCount: 2
Fore
SplineSet
151 -140 m 1,0,-1
 10 -72 l 1,1,-1
 812 1650 l 1,2,-1
 822 1650 l 1,3,-1
 964 1582 l 1,4,-1
 161 -140 l 1,5,-1
 151 -140 l 1,0,-1
EndSplineSet
Validated: 3073
EndChar

StartChar: Euro
Encoding: 8364 8364 170
Width: 1582
GlyphClass: 2
Flags: W
HStem: -20 180<668.07 1085.93> 507 182<231 372 572 983> 828 182<231 372 572 983> 1350 180<668.07 1085.93>
VStem: 372 200<234.196 507 689 828 1010 1275.8> 1182 200<234.196 460 1050 1275.8>
LayerCount: 2
Fore
SplineSet
1382 550 m 1,0,-1
 1382 310 l 2,1,2
 1382 127 1382 127 1155 33 c 0,3,4
 1028 -20 1028 -20 877 -20 c 128,-1,5
 726 -20 726 -20 599 33 c 0,6,7
 372 127 372 127 372 310 c 2,8,-1
 372 507 l 1,9,-1
 150 507 l 1,10,-1
 150 517 l 1,11,-1
 231 689 l 1,12,-1
 372 689 l 1,13,-1
 372 828 l 1,14,-1
 150 828 l 1,15,-1
 150 838 l 1,16,-1
 231 1010 l 1,17,-1
 372 1010 l 1,18,-1
 372 1200 l 2,19,20
 372 1383 372 1383 599 1477 c 0,21,22
 726 1530 726 1530 877 1530 c 128,-1,23
 1028 1530 1028 1530 1155 1477 c 0,24,25
 1382 1383 1382 1383 1382 1200 c 2,26,-1
 1382 1050 l 1,27,-1
 1192 960 l 1,28,-1
 1182 960 l 1,29,-1
 1182 1200 l 2,30,31
 1182 1268 1182 1268 1061 1317 c 0,32,33
 977 1350 977 1350 877 1350 c 128,-1,34
 777 1350 777 1350 693 1317 c 0,35,36
 572 1269 572 1269 572 1200 c 2,37,-1
 572 1010 l 1,38,-1
 1064 1010 l 1,39,-1
 1064 1000 l 1,40,-1
 983 828 l 1,41,-1
 572 828 l 1,42,-1
 572 689 l 1,43,-1
 1064 689 l 1,44,-1
 1064 679 l 1,45,-1
 983 507 l 1,46,-1
 572 507 l 1,47,-1
 572 310 l 2,48,49
 572 242 572 242 693 193 c 0,50,51
 774 160 774 160 877 160 c 0,52,53
 977 160 977 160 1061 193 c 0,54,55
 1182 241 1182 241 1182 310 c 2,56,-1
 1182 460 l 1,57,-1
 1372 550 l 1,58,-1
 1382 550 l 1,0,-1
EndSplineSet
Validated: 1
EndChar

StartChar: afii61248
Encoding: 8453 8453 171
Width: 1658
GlyphClass: 2
Flags: W
HStem: -40 21G<504.529 565.317> -20 140<1102.87 1355.94> 640 140<1103 1356.11> 730 140<300.994 553.944> 1390 140<300.999 554.107> 1530 20G<1104.68 1165.47>
VStem: 150 150<885.537 1373.97> 556 150<887.041 1011 1249 1372.43> 952 150<135.537 623.967> 1358 150<137.041 622.432>
DStem2: 405 28 556 -40 0.422266 0.906472<2.12205 1679.04>
LayerCount: 2
Fore
SplineSet
1102 168 m 2,0,1
 1102 162 1102 162 1108 156 c 0,2,3
 1120 144 1120 144 1147 134 c 0,4,5
 1184 120 1184 120 1230 120 c 0,6,7
 1275 120 1275 120 1313 135 c 0,8,9
 1339 145 1339 145 1352 158 c 0,10,11
 1358 164 1358 164 1358 170 c 2,12,-1
 1358 590 l 2,13,14
 1357 597 1357 597 1352 602 c 0,15,16
 1342 613 1342 613 1313 625 c 0,17,18
 1276 640 1276 640 1230 640 c 0,19,20
 1183 640 1183 640 1147 626 c 0,21,22
 1119 615 1119 615 1108 604 c 0,23,24
 1102 598 1102 598 1102 592 c 2,25,-1
 1102 168 l 2,0,1
952 164 m 2,26,27
 952 595 l 2,28,29
 952 702 952 702 1081 752 c 0,30,31
 1153 780 1153 780 1230 780 c 0,32,33
 1312 780 1312 780 1379 752 c 0,34,35
 1508 698 1508 698 1508 590 c 2,36,-1
 1508 170 l 2,37,38
 1508 60 1508 60 1379 8 c 0,39,40
 1310 -20 1310 -20 1230 -20 c 0,41,42
 1152 -20 1152 -20 1081 8 c 0,43,44
 952 59 952 59 952 164 c 2,26,27
706 1065 m 1,45,-1
 706 920 l 2,46,47
 706 810 706 810 577 758 c 0,48,49
 508 730 508 730 428 730 c 0,50,51
 350 730 350 730 279 758 c 0,52,53
 150 809 150 809 150 914 c 2,54,-1
 150 1345 l 2,55,56
 150 1452 150 1452 279 1502 c 0,57,58
 351 1530 351 1530 428 1530 c 0,59,60
 510 1530 510 1530 577 1502 c 0,61,62
 706 1448 706 1448 706 1340 c 2,63,-1
 706 1249 l 1,64,-1
 591 1195 l 1,65,-1
 556 1195 l 1,66,-1
 556 1340 l 2,67,68
 555 1347 555 1347 550 1352 c 0,69,70
 540 1363 540 1363 511 1375 c 0,71,72
 474 1390 474 1390 428 1390 c 0,73,74
 381 1390 381 1390 345 1376 c 0,75,76
 317 1365 317 1365 306 1354 c 0,77,78
 300 1348 300 1348 300 1342 c 2,79,-1
 300 918 l 2,80,81
 301 911 301 911 306 906 c 0,82,83
 318 894 318 894 345 884 c 0,84,85
 382 870 382 870 428 870 c 0,86,87
 473 870 473 870 511 885 c 0,88,89
 537 895 537 895 550 908 c 0,90,91
 556 914 556 914 556 920 c 2,92,-1
 556 1011 l 1,93,-1
 670 1065 l 1,94,-1
 706 1065 l 1,45,-1
546 -40 m 1,95,-1
 405 28 l 1,96,-1
 1114 1550 l 1,97,-1
 1124 1550 l 1,98,-1
 1265 1482 l 1,99,-1
 556 -40 l 1,100,-1
 546 -40 l 1,95,-1
EndSplineSet
Validated: 1
EndChar

StartChar: afii61289
Encoding: 8467 8467 172
Width: 1108
GlyphClass: 2
Flags: W
HStem: -20 136<558.838 669.961> 0 21G<150 363.84> 1511 20G<711 795.5>
VStem: 332 208<672 805.805> 729 179<1092.03 1387.01>
LayerCount: 2
Fore
SplineSet
540 672 m 1,0,1
 600 796 600 796 656 982 c 0,2,3
 729 1224 729 1224 729 1389 c 1,4,5
 677 1305 677 1305 614 1098 c 0,6,7
 540 857 540 857 540 672 c 1,0,1
150 0 m 1,8,9
 250 146 250 146 340 296 c 1,10,11
 332 366 332 366 332 444 c 0,12,13
 332 592 332 592 361 733 c 0,14,15
 481 1333 481 1333 576 1443 c 0,16,17
 652 1531 652 1531 770 1531 c 0,18,19
 821 1531 821 1531 860 1498 c 1,20,21
 908 1459 908 1459 908 1338 c 0,22,23
 908 1246 908 1246 878 1092 c 0,24,25
 808 742 808 742 522 272 c 1,26,27
 555 116 555 116 611 116 c 0,28,29
 630 116 630 116 653 140 c 0,30,31
 684 172 684 172 716 228 c 1,32,-1
 892 228 l 1,33,34
 815 100 815 100 750.5 40 c 128,-1,35
 686 -20 686 -20 602 -20 c 0,36,37
 474 -20 474 -20 403 81 c 1,38,-1
 351 0 l 1,39,-1
 150 0 l 1,8,9
EndSplineSet
Validated: 3073
EndChar

StartChar: trademark
Encoding: 8482 8482 173
Width: 1918
GlyphClass: 2
Flags: W
HStem: 1369 141<200 364 514 678 906.001 1031.59 1036.53 1162 1312 1437.5 1442.56 1568> 1390 140<906.999 1160.09 1312.44 1566.58>
VStem: 364 150<739 1369> 756 150<739 1373.97> 1162 150<741 1374.91> 1568 150<743 1374.43>
LayerCount: 2
Fore
SplineSet
364 685 m 1,0,-1
 364 1369 l 1,1,-1
 150 1369 l 1,2,-1
 150 1405 l 1,3,-1
 200 1510 l 1,4,-1
 728 1510 l 1,5,-1
 728 1474 l 1,6,-1
 678 1369 l 1,7,-1
 514 1369 l 1,8,-1
 514 739 l 1,9,-1
 400 685 l 1,10,-1
 364 685 l 1,0,-1
756 685 m 1,11,-1
 756 1345 l 2,12,13
 756 1452 756 1452 885 1502 c 0,14,15
 957 1530 957 1530 1034 1530 c 0,16,17
 1115 1530 1115 1530 1183 1502 c 0,18,19
 1212 1490 1212 1490 1234 1475 c 1,20,21
 1259 1491 1259 1491 1291 1504 c 0,22,23
 1360 1532 1360 1532 1440 1532 c 0,24,25
 1522 1532 1522 1532 1589 1504 c 0,26,27
 1718 1450 1718 1450 1718 1342 c 2,28,-1
 1718 743 l 1,29,-1
 1603 689 l 1,30,-1
 1568 689 l 1,31,-1
 1568 1342 l 2,32,33
 1568 1348 1568 1348 1562 1354 c 0,34,35
 1552 1365 1552 1365 1523 1377 c 0,36,37
 1486 1392 1486 1392 1440 1392 c 0,38,39
 1393 1392 1393 1392 1357 1378 c 0,40,41
 1329 1367 1329 1367 1318 1356 c 0,42,43
 1312 1350 1312 1350 1312 1344 c 2,44,-1
 1312 1340 l 1,45,-1
 1312 741 l 1,46,-1
 1197 687 l 1,47,-1
 1162 687 l 1,48,-1
 1162 1340 l 2,49,50
 1162 1346 1162 1346 1156 1352 c 0,51,52
 1146 1363 1146 1363 1117 1375 c 0,53,54
 1080 1390 1080 1390 1034 1390 c 0,55,56
 987 1390 987 1390 951 1376 c 0,57,58
 923 1365 923 1365 912 1354 c 0,59,60
 906 1348 906 1348 906 1342 c 2,61,-1
 906 739 l 1,62,-1
 791 685 l 1,63,-1
 756 685 l 1,11,-1
EndSplineSet
Validated: 1
EndChar

StartChar: uni2126
Encoding: 8486 8486 174
Width: 1410
GlyphClass: 2
Flags: W
HStem: 0 392<476.836 608 802 933.164> 0 182<231 446 964 1179> 1350 180<496.07 913.93>
VStem: 200 200<457.854 1275.46> 446 162<182 249> 802 162<182 249> 1010 200<458.538 1276.15>
LayerCount: 2
Fore
SplineSet
150 0 m 1,0,-1
 150 10 l 1,1,-1
 231 182 l 1,2,-1
 446 182 l 1,3,-1
 446 249 l 1,4,-1
 427 257 l 0,5,6
 200 350 200 350 200 534 c 2,7,-1
 200 1200 l 2,8,9
 200 1382 200 1382 427 1477 c 0,10,11
 554 1530 554 1530 705 1530 c 128,-1,12
 856 1530 856 1530 983 1477 c 0,13,14
 1210 1384 1210 1384 1210 1200 c 2,15,-1
 1210 534 l 2,16,17
 1210 352 1210 352 983 257 c 0,18,-1
 964 249 l 1,19,-1
 964 182 l 1,20,-1
 1260 182 l 1,21,-1
 1260 172 l 1,22,-1
 1179 0 l 1,23,-1
 802 0 l 1,24,-1
 802 392 l 1,25,26
 847 401 847 401 889 417 c 0,27,28
 1010 463 1010 463 1010 534 c 2,29,-1
 1010 1200 l 2,30,31
 1010 1269 1010 1269 889 1317 c 0,32,33
 805 1350 805 1350 705 1350 c 128,-1,34
 605 1350 605 1350 521 1317 c 0,35,36
 400 1269 400 1269 400 1200 c 2,37,-1
 400 534 l 2,38,39
 400 463 400 463 521 417 c 0,40,41
 563 401 563 401 608 392 c 1,42,-1
 608 0 l 1,43,-1
 150 0 l 1,0,-1
EndSplineSet
Validated: 1
EndChar

StartChar: estimated
Encoding: 8494 8494 175
Width: 1358
GlyphClass: 2
Flags: W
HStem: -15 73<501.557 855.461> 550 74<381 977> 1042 73<502.165 850.247>
VStem: 150 231<307.452 550 624 793.838> 977 231<624 789.607>
LayerCount: 2
Fore
SplineSet
381 550 m 1,0,-1
 381 179 l 1,1,2
 501 58 501 58 679 58 c 0,3,4
 933 58 933 58 1074 304 c 1,5,-1
 1146 261 l 1,6,7
 1026 88 1026 88 914 36.5 c 128,-1,8
 802 -15 802 -15 679 -15 c 0,9,10
 442 -15 442 -15 296 145 c 128,-1,11
 150 305 150 305 150 550 c 0,12,13
 150 797 150 797 297 956 c 128,-1,14
 444 1115 444 1115 679 1115 c 0,15,16
 893 1115 893 1115 1045 973 c 128,-1,17
 1197 831 1197 831 1208 550 c 1,18,-1
 381 550 l 1,0,-1
977 624 m 1,19,-1
 977 921 l 1,20,21
 849 1042 849 1042 677 1042 c 0,22,23
 502 1042 502 1042 381 920 c 1,24,-1
 381 624 l 1,25,-1
 977 624 l 1,19,-1
EndSplineSet
Validated: 3073
EndChar

StartChar: partialdiff
Encoding: 8706 8706 176
Width: 1267
GlyphClass: 2
Flags: W
HStem: 0 92<400 587.576> 883 84<654.972 885.467> 1427 83<623.242 789.693>
VStem: 150 212<147.417 518.018> 888 179<603.29 878.484 965 1264.05>
LayerCount: 2
Fore
SplineSet
458 0 m 0,0,1
 321 0 321 0 235.5 91 c 128,-1,2
 150 182 150 182 150 347 c 0,3,4
 150 556 150 556 303 734 c 0,5,6
 503 967 503 967 781 967 c 24,7,8
 816 967 816 967 886 965 c 1,9,10
 886 1113 886 1113 869 1201 c 0,11,12
 847 1313 847 1313 805 1369 c 0,13,14
 761 1427 761 1427 711 1427 c 0,15,16
 644 1427 644 1427 593 1347 c 0,17,18
 555 1287 555 1287 519 1157 c 1,19,-1
 384 1217 l 1,20,21
 453 1371 453 1371 552 1442 c 0,22,23
 647 1510 647 1510 744 1510 c 0,24,25
 876 1510 876 1510 971 1371 c 0,26,27
 1067 1231 1067 1231 1067 951 c 0,28,29
 1067 670 1067 670 980 438 c 0,30,31
 894 214 894 214 747 107 c 128,-1,32
 600 0 600 0 458 0 c 0,0,1
488 92 m 0,33,34
 562 92 562 92 636 189 c 0,35,36
 697 268 697 268 766 393 c 0,37,38
 856 555 856 555 888 867 c 1,39,40
 848 883 848 883 774 883 c 0,41,42
 667 883 667 883 557 755 c 0,43,44
 485 672 485 672 436 581 c 0,45,46
 362 444 362 444 362 333 c 0,47,48
 362 233 362 233 381 175 c 0,49,50
 409 92 409 92 488 92 c 0,33,34
EndSplineSet
Validated: 3073
EndChar

StartChar: uni2206
Encoding: 8710 8710 177
Width: 1191
GlyphClass: 2
Flags: W
HStem: 0 182<275 916> 1530 20G<623.805 682.581>
DStem2: 5 0 275 182 0.315452 0.948942<257.879 1340.03>
LayerCount: 2
Fore
SplineSet
5 0 m 1,0,-1
 493 1468 l 1,1,-1
 666 1550 l 1,2,-1
 676 1550 l 1,3,-1
 1186 0 l 1,4,-1
 5 0 l 1,0,-1
275 182 m 1,5,-1
 916 182 l 1,6,-1
 598 1215 l 1,7,-1
 275 182 l 1,5,-1
EndSplineSet
Validated: 1
EndChar

StartChar: product
Encoding: 8719 8719 178
Width: 1390
GlyphClass: 2
Flags: W
HStem: -450 21G<200 252.222 990 1042.22> 1328 182<400 990>
VStem: 200 200<-360 1328> 990 200<-360 1328>
LayerCount: 2
Fore
SplineSet
210 -450 m 1,0,-1
 200 -450 l 1,1,-1
 200 1460 l 1,2,-1
 306 1510 l 1,3,-1
 1190 1510 l 1,4,-1
 1190 -360 l 1,5,-1
 1000 -450 l 1,6,-1
 990 -450 l 1,7,-1
 990 1328 l 1,8,-1
 400 1328 l 1,9,-1
 400 -360 l 1,10,-1
 210 -450 l 1,0,-1
EndSplineSet
Validated: 3073
EndChar

StartChar: summation
Encoding: 8721 8721 179
Width: 1203
GlyphClass: 2
Flags: W
HStem: -410 182<388 972> 1328 182<384 881>
DStem2: 384 1328 101 1460 0.480758 -0.876854<0 740.385>
LayerCount: 2
Fore
SplineSet
100 -410 m 1,0,-1
 578 590 l 1,1,-1
 101 1460 l 1,2,-1
 207 1510 l 1,3,-1
 962 1510 l 1,4,-1
 962 1500 l 1,5,-1
 881 1328 l 1,6,-1
 384 1328 l 1,7,-1
 804 588 l 1,8,-1
 388 -228 l 1,9,-1
 1053 -228 l 1,10,-1
 1053 -238 l 1,11,-1
 972 -410 l 1,12,-1
 100 -410 l 1,0,-1
EndSplineSet
Validated: 1
EndChar

StartChar: minus
Encoding: 8722 8722 180
Width: 1214
GlyphClass: 2
Flags: W
HStem: 664 182<231 983>
LayerCount: 2
Fore
SplineSet
150 664 m 1,0,-1
 150 674 l 1,1,-1
 231 846 l 1,2,-1
 1064 846 l 1,3,-1
 1064 836 l 1,4,-1
 983 664 l 1,5,-1
 150 664 l 1,0,-1
EndSplineSet
Validated: 3073
EndChar

StartChar: uni2215
Encoding: 8725 8725 181
Width: 974
GlyphClass: 2
Flags: W
DStem2: 10 -72 161 -140 0.422626 0.906304<2.18787 1899.6>
LayerCount: 2
Fore
SplineSet
151 -140 m 1,0,-1
 10 -72 l 1,1,-1
 812 1650 l 1,2,-1
 822 1650 l 1,3,-1
 964 1582 l 1,4,-1
 161 -140 l 1,5,-1
 151 -140 l 1,0,-1
EndSplineSet
Validated: 3073
EndChar

StartChar: asteriskmath
Encoding: 8727 8727 182
Width: 1183
GlyphClass: 2
Flags: W
VStem: 500 182<387 605 921 1139>
DStem2: 311 1030 150 913 0.865946 -0.500138<0 218.179 533.824 752.003> 150 613 311 496 0.865946 0.500138<80.9012 299.08 614.726 832.904>
LayerCount: 2
Fore
SplineSet
682 1220 m 1,0,-1
 682 921 l 1,1,-1
 871 1030 l 1,2,-1
 1028 921 l 1,3,-1
 1033 913 l 1,4,-1
 773 763 l 1,5,-1
 1033 613 l 1,6,-1
 1028 605 l 1,7,-1
 871 496 l 1,8,-1
 682 605 l 1,9,-1
 682 387 l 1,10,-1
 510 306 l 1,11,-1
 500 306 l 1,12,-1
 500 605 l 1,13,-1
 311 496 l 1,14,-1
 155 605 l 1,15,-1
 150 613 l 1,16,-1
 409 763 l 1,17,-1
 150 913 l 1,18,-1
 155 921 l 1,19,-1
 311 1030 l 1,20,-1
 500 921 l 1,21,-1
 500 1139 l 1,22,-1
 672 1220 l 1,23,-1
 682 1220 l 1,0,-1
EndSplineSet
Validated: 3073
EndChar

StartChar: uni2218
Encoding: 8728 8728 183
Width: 1130
GlyphClass: 2
Flags: W
HStem: 354 180<378.173 751.341> 974 180<378.659 751.827>
VStem: 150 200<570.819 937.571> 780 200<570.429 940.577>
LayerCount: 2
Fore
SplineSet
350 634 m 2,0,1
 350 584 350 584 412.5 559 c 128,-1,2
 475 534 475 534 565 534 c 128,-1,3
 655 534 655 534 717.5 559 c 128,-1,4
 780 584 780 584 780 634 c 10,5,-1
 780 874 l 2,6,7
 780 924 780 924 717.5 949 c 128,-1,8
 655 974 655 974 565 974 c 128,-1,9
 475 974 475 974 412.5 949 c 128,-1,10
 350 924 350 924 350 874 c 2,11,-1
 350 634 l 2,0,1
150 599 m 2,12,-1
 150 909 l 2,13,14
 150 1043 150 1043 337 1115 c 0,15,16
 438 1154 438 1154 565 1154 c 0,17,18
 695 1154 695 1154 793 1115 c 0,19,20
 980 1040 980 1040 980 909 c 2,21,-1
 980 599 l 2,22,23
 980 465 980 465 793 393 c 0,24,25
 692 354 692 354 565 354 c 0,26,27
 435 354 435 354 337 393 c 0,28,29
 150 467 150 467 150 599 c 2,12,-1
EndSplineSet
Validated: 1
EndChar

StartChar: uni2219
Encoding: 8729 8729 184
Width: 600
GlyphClass: 2
Flags: W
HStem: 631 245<216.097 383.903>
VStem: 180 240<668.129 838.871>
LayerCount: 2
Fore
SplineSet
180 753.5 m 132,-1,1
 180 804 180 804 215 840 c 132,-1,2
 250 876 250 876 300 876 c 132,-1,3
 350 876 350 876 385 840 c 132,-1,4
 420 804 420 804 420 753.5 c 132,-1,5
 420 703 420 703 385 667 c 132,-1,6
 350 631 350 631 300 631 c 132,-1,7
 250 631 250 631 215 667 c 132,-1,0
 180 703 180 703 180 753.5 c 132,-1,1
EndSplineSet
Validated: 1
EndChar

StartChar: radical
Encoding: 8730 8730 185
Width: 1452
GlyphClass: 2
Flags: W
HStem: -40 21G<508.235 567.195> 569 182<181 309> 1328 182<1178 1321>
DStem2: 458 751 309 569 0.320424 -0.947274<124.661 501.794> 605 271 698 42 0.349686 0.936867<0 1190.64>
LayerCount: 2
Fore
SplineSet
525 -40 m 1,0,-1
 515 -40 l 1,1,-1
 309 569 l 1,2,-1
 100 569 l 1,3,-1
 100 579 l 1,4,-1
 181 751 l 1,5,-1
 458 751 l 1,6,-1
 605 271 l 1,7,-1
 1057 1510 l 1,8,-1
 1402 1510 l 1,9,-1
 1402 1500 l 1,10,-1
 1321 1328 l 1,11,-1
 1178 1328 l 1,12,-1
 698 42 l 1,13,-1
 525 -40 l 1,0,-1
EndSplineSet
Validated: 1
EndChar

StartChar: uni221B
Encoding: 8731 8731 186
Width: 1452
GlyphClass: 2
Flags: W
HStem: -40 21G<508.235 567.195> 569 182<181 309> 791 126<413.847 639.181> 1119 21G<412.379 418> 1328 182<1178 1321> 1383 127<363 539>
VStem: 278 135<930.074 1025> 642 136<949.156 1122.64>
DStem2: 458 751 309 569 0.320424 -0.947274<124.661 501.794> 605 271 698 42 0.349686 0.936867<0 1190.64>
LayerCount: 2
Fore
SplineSet
278 1025 m 1,0,-1
 382 1074 l 1,1,-1
 413 1074 l 1,2,-1
 413 962 l 2,3,4
 413 956 413 956 418 951 c 0,5,6
 432 938 432 938 454 930 c 0,7,8
 489 917 489 917 531 917 c 0,9,10
 563 917 563 917 602 930 c 0,11,12
 630 939 630 939 638 949 c 0,13,14
 642 954 642 954 642 960 c 2,15,-1
 642 1092 l 2,16,17
 642 1097 642 1097 637 1103 c 0,18,19
 629 1113 629 1113 602 1123 c 0,20,21
 567 1136 567 1136 528 1136 c 0,22,23
 434 1135 434 1135 402 1119 c 1,24,-1
 539 1383 l 1,25,-1
 318 1383 l 1,26,-1
 318 1416 l 1,27,-1
 363 1510 l 1,28,-1
 755 1510 l 1,29,-1
 601 1251 l 1,30,31
 634 1244 634 1244 661 1233 c 0,32,33
 778 1185 778 1185 778 1092 c 2,34,-1
 778 956 l 2,35,36
 778 864 778 864 662 816 c 0,37,38
 601 791 601 791 526 791 c 24,39,40
 453 791 453 791 394 816 c 0,41,42
 278 865 278 865 278 962 c 2,43,-1
 278 1025 l 1,0,-1
525 -40 m 1,44,-1
 515 -40 l 1,45,-1
 309 569 l 1,46,-1
 100 569 l 1,47,-1
 100 579 l 1,48,-1
 181 751 l 1,49,-1
 458 751 l 1,50,-1
 605 271 l 1,51,-1
 1057 1510 l 1,52,-1
 1402 1510 l 1,53,-1
 1402 1500 l 1,54,-1
 1321 1328 l 1,55,-1
 1178 1328 l 1,56,-1
 698 42 l 1,57,-1
 525 -40 l 1,44,-1
EndSplineSet
Validated: 1
EndChar

StartChar: infinity
Encoding: 8734 8734 187
Width: 1760
GlyphClass: 2
Flags: W
HStem: 354 180<378.173 751.778 1008.01 1381.34> 974 180<378.659 751.989 1008.34 1381.83>
VStem: 150 200<570.819 937.571> 780 200<567.423 940.577> 1410 200<570.429 940.577>
CounterMasks: 1 38
LayerCount: 2
Fore
SplineSet
350 634 m 2,0,1
 350 584 350 584 412.5 559 c 128,-1,2
 475 534 475 534 565 534 c 0,3,4
 656 534 656 534 718 559 c 128,-1,5
 780 584 780 584 780 634 c 2,6,-1
 780 874 l 2,7,8
 780 924 780 924 717.5 949 c 128,-1,9
 655 974 655 974 565 974 c 128,-1,10
 475 974 475 974 412.5 949 c 128,-1,11
 350 924 350 924 350 874 c 2,12,-1
 350 634 l 2,0,1
150 599 m 2,13,-1
 150 909 l 2,14,15
 150 1043 150 1043 337 1115 c 0,16,17
 438 1154 438 1154 565 1154 c 0,18,19
 696 1154 696 1154 793 1115 c 0,20,21
 843 1095 843 1095 879 1071 c 1,22,23
 916 1095 916 1095 967 1115 c 0,24,25
 1066 1154 1066 1154 1195 1154 c 0,26,27
 1325 1154 1325 1154 1423 1115 c 0,28,29
 1610 1040 1610 1040 1610 909 c 2,30,-1
 1610 599 l 2,31,32
 1610 465 1610 465 1423 393 c 0,33,34
 1322 354 1322 354 1195 354 c 0,35,36
 1064 354 1064 354 967 393 c 0,37,38
 917 413 917 413 881 437 c 1,39,40
 844 413 844 413 793 393 c 0,41,42
 694 354 694 354 565 354 c 0,43,44
 435 354 435 354 337 393 c 0,45,46
 150 467 150 467 150 599 c 2,13,-1
980 634 m 2,47,48
 980 584 980 584 1042.5 559 c 128,-1,49
 1105 534 1105 534 1195 534 c 128,-1,50
 1285 534 1285 534 1347.5 559 c 128,-1,51
 1410 584 1410 584 1410 634 c 2,52,-1
 1410 874 l 2,53,54
 1410 924 1410 924 1347.5 949 c 128,-1,55
 1285 974 1285 974 1195 974 c 128,-1,56
 1105 974 1105 974 1042.5 949 c 128,-1,57
 980 924 980 924 980 874 c 2,58,-1
 980 634 l 2,47,48
EndSplineSet
Validated: 1
EndChar

StartChar: approxequal
Encoding: 8776 8776 188
Width: 1138
GlyphClass: 2
Flags: W
HStem: 397 177<648.531 800.75> 581 177<337.25 489.469> 748 177<648.531 800.75> 932 177<337.25 489.469>
VStem: 150 178<478 571.507 829 922.507> 810 178<583.493 677 934.493 1028>
LayerCount: 2
Fore
SplineSet
150 397 m 1,0,1
 150 758 150 758 387 758 c 0,2,3
 521 758 521 758 610 657 c 0,4,5
 683 574 683 574 738 574 c 0,6,7
 810 574 810 574 810 677 c 1,8,-1
 978 758 l 1,9,-1
 988 758 l 1,10,11
 988 397 988 397 751 397 c 0,12,13
 617 397 617 397 528 498 c 0,14,15
 455 581 455 581 400 581 c 0,16,17
 328 581 328 581 328 478 c 1,18,-1
 160 397 l 1,19,-1
 150 397 l 1,0,1
150 748 m 1,20,21
 150 1109 150 1109 387 1109 c 0,22,23
 521 1109 521 1109 610 1008 c 0,24,25
 683 925 683 925 738 925 c 0,26,27
 810 925 810 925 810 1028 c 1,28,-1
 978 1109 l 1,29,-1
 988 1109 l 1,30,31
 988 748 988 748 751 748 c 0,32,33
 617 748 617 748 528 849 c 0,34,35
 455 932 455 932 400 932 c 0,36,37
 328 932 328 932 328 829 c 1,38,-1
 160 748 l 1,39,-1
 150 748 l 1,20,21
EndSplineSet
Validated: 1
EndChar

StartChar: notequal
Encoding: 8800 8800 189
Width: 1214
GlyphClass: 2
Flags: W
HStem: 482 182<231 389 656 983> 846 182<231 558 825 983>
DStem2: 289 268 440 200 0.42198 0.906605<2.06988 236.212 513.882 637.53 915.201 1149.34>
LayerCount: 2
Fore
SplineSet
430 200 m 1,0,-1
 289 268 l 1,1,-1
 389 482 l 1,2,-1
 150 482 l 1,3,-1
 150 492 l 1,4,-1
 231 664 l 1,5,-1
 473 664 l 1,6,-1
 558 846 l 1,7,-1
 150 846 l 1,8,-1
 150 856 l 1,9,-1
 231 1028 l 1,10,-1
 643 1028 l 1,11,-1
 774 1310 l 1,12,-1
 784 1310 l 1,13,-1
 925 1242 l 1,14,-1
 825 1028 l 1,15,-1
 1064 1028 l 1,16,-1
 1064 1018 l 1,17,-1
 983 846 l 1,18,-1
 741 846 l 1,19,-1
 656 664 l 1,20,-1
 1064 664 l 1,21,-1
 1064 654 l 1,22,-1
 983 482 l 1,23,-1
 571 482 l 1,24,-1
 440 200 l 1,25,-1
 430 200 l 1,0,-1
EndSplineSet
Validated: 3073
EndChar

StartChar: equivalence
Encoding: 8801 8801 190
Width: 1214
GlyphClass: 2
Flags: W
HStem: 300 182<231 983> 664 182<231 983> 1028 182<231 983>
CounterMasks: 1 e0
LayerCount: 2
Fore
SplineSet
150 300 m 1,0,-1
 150 310 l 1,1,-1
 231 482 l 1,2,-1
 1064 482 l 1,3,-1
 1064 472 l 1,4,-1
 983 300 l 1,5,-1
 150 300 l 1,0,-1
150 1028 m 1,6,-1
 150 1038 l 1,7,-1
 231 1210 l 1,8,-1
 1064 1210 l 1,9,-1
 1064 1200 l 1,10,-1
 983 1028 l 1,11,-1
 150 1028 l 1,6,-1
150 664 m 1,12,-1
 150 674 l 1,13,-1
 231 846 l 1,14,-1
 1064 846 l 1,15,-1
 1064 836 l 1,16,-1
 983 664 l 1,17,-1
 150 664 l 1,12,-1
EndSplineSet
Validated: 3073
EndChar

StartChar: lessequal
Encoding: 8804 8804 191
Width: 1338
GlyphClass: 2
Flags: W
HStem: 191 182<231 1057>
DStem2: 464 875 150 801 0.919983 -0.391958<0 724.931> 232 984 464 875 0.920009 0.391897<170.725 895.643>
LayerCount: 2
Fore
SplineSet
150 801 m 1,0,-1
 150 811 l 1,1,-1
 232 984 l 1,2,-1
 1056 1335 l 1,3,-1
 1138 1162 l 1,4,-1
 1138 1152 l 1,5,-1
 464 875 l 1,6,-1
 1138 598 l 1,7,-1
 1138 588 l 1,8,-1
 1056 415 l 1,9,-1
 150 801 l 1,0,-1
150 191 m 1,10,-1
 150 201 l 1,11,-1
 231 373 l 1,12,-1
 1138 373 l 1,13,-1
 1138 363 l 1,14,-1
 1057 191 l 1,15,-1
 150 191 l 1,10,-1
EndSplineSet
Validated: 1
EndChar

StartChar: greaterequal
Encoding: 8805 8805 192
Width: 1338
GlyphClass: 2
Flags: W
HStem: 191 182<281 1107>
DStem2: 282 1352 200 1169 0.919983 -0.391958<0 724.931> 200 615 282 432 0.920009 0.391897<3.72358 728.642>
LayerCount: 2
Fore
SplineSet
1188 966 m 1,0,-1
 1188 956 l 1,1,-1
 1106 783 l 1,2,-1
 282 432 l 1,3,-1
 200 605 l 1,4,-1
 200 615 l 1,5,-1
 874 892 l 1,6,-1
 200 1169 l 1,7,-1
 200 1179 l 1,8,-1
 282 1352 l 1,9,-1
 1188 966 l 1,0,-1
200 191 m 1,10,-1
 200 201 l 1,11,-1
 281 373 l 1,12,-1
 1188 373 l 1,13,-1
 1188 363 l 1,14,-1
 1107 191 l 1,15,-1
 200 191 l 1,10,-1
EndSplineSet
Validated: 1
EndChar

StartChar: lozenge
Encoding: 9674 9674 193
Width: 1174
GlyphClass: 2
Flags: W
HStem: 0 21G<574.344 599.605>
DStem2: 601 287 587 0 0.533177 0.846004<0 503.311>
LayerCount: 2
Fore
SplineSet
601 287 m 1,0,-1
 850 725 l 1,1,-1
 579 1200 l 1,2,-1
 328 754 l 1,3,-1
 601 287 l 1,0,-1
587 0 m 1,4,-1
 120 738 l 1,5,-1
 587 1510 l 1,6,-1
 1054 741 l 1,7,-1
 587 0 l 1,4,-1
EndSplineSet
Validated: 1
EndChar

StartChar: Oslash
Encoding: 216 216 194
Width: 1410
Flags: W
HStem: -40 21G<352.4 413.275> -20 181<516.167 917.68> 29 167<514 620.757 788.172 973.812> 1314 167<436.188 621.961 789.243 896> 1348 182<490.681 893.91> 1530 20G<996.725 1056.78>
VStem: 200 200<272.719 1275.46> 1010 200<234.538 1237.28>
DStem2: 290 10 404 -40 0.421596 0.906784<2.72271 82.5345 287.684 1413.35 1618.5 1698.31>
LayerCount: 2
Fore
SplineSet
404 -40 m 1,0,-1
 394 -40 l 1,1,-1
 290 10 l 1,2,-1
 326 87 l 1,3,4
 200 174 200 174 200 310 c 2,5,-1
 200 1200 l 2,6,7
 200 1382 200 1382 427 1477 c 0,8,9
 554 1530 554 1530 705 1530 c 0,10,11
 850 1530 850 1530 974 1481 c 1,12,-1
 1006 1550 l 1,13,-1
 1016 1550 l 1,14,-1
 1120 1499 l 1,15,-1
 1085 1423 l 1,16,17
 1210 1336 1210 1336 1210 1200 c 2,18,-1
 1210 310 l 2,19,20
 1210 128 1210 128 983 33 c 0,21,22
 856 -20 856 -20 705 -20 c 0,23,24
 560 -20 560 -20 436 29 c 1,25,-1
 404 -40 l 1,0,-1
514 196 m 1,26,27
 603 161 603 161 701 161 c 0,28,29
 805 161 805 161 889 193 c 0,30,31
 1010 241 1010 241 1010 310 c 2,32,-1
 1010 1200 l 2,33,34
 1010 1220 1010 1220 999 1239 c 1,35,-1
 514 196 l 1,26,27
896 1314 m 1,36,37
 812 1348 812 1348 709 1348 c 0,38,39
 604 1348 604 1348 521 1317 c 0,40,41
 400 1269 400 1269 400 1200 c 2,42,-1
 400 310 l 2,43,44
 400 289 400 289 411 271 c 1,45,-1
 896 1314 l 1,36,37
EndSplineSet
Validated: 1
EndChar

StartChar: oslash
Encoding: 248 248 195
Width: 1130
Flags: W
HStem: -40 21G<307.4 368.333> -20 180<459.059 751.341> 5 166<457 561.848 568.962 763.383> 940 180<378.659 670.059> 1120 20G<760.455 821.176>
VStem: 150 200<241.281 903.571> 780 200<196.429 858.719>
DStem2: 245 10 359 -40 0.421347 0.906899<2.68859 54.9838 254.578 994.536 1193.93 1246>
LayerCount: 2
Fore
SplineSet
359 -40 m 1,0,-1
 349 -40 l 1,1,-1
 245 10 l 1,2,-1
 265 54 l 1,3,4
 150 121 150 121 150 225 c 2,5,-1
 150 875 l 2,6,7
 150 1009 150 1009 337 1081 c 0,8,9
 438 1120 438 1120 565 1120 c 0,10,11
 665 1120 665 1120 749 1096 c 1,12,-1
 770 1140 l 1,13,-1
 780 1140 l 1,14,-1
 885 1089 l 1,15,-1
 865 1046 l 1,16,17
 980 978 980 978 980 875 c 2,18,-1
 980 225 l 2,19,20
 980 91 980 91 793 19 c 0,21,22
 692 -20 692 -20 565 -20 c 0,23,24
 464 -20 464 -20 380 5 c 1,25,-1
 359 -40 l 1,0,-1
672 929 m 1,26,27
 625 940 625 940 565 940 c 0,28,29
 475 940 475 940 412.5 915 c 128,-1,30
 350 890 350 890 350 840 c 2,31,-1
 350 260 l 2,32,33
 350 250 350 250 352 241 c 1,34,-1
 672 929 l 1,26,27
778 859 m 1,35,-1
 457 171 l 1,36,37
 505 160 505 160 565 160 c 0,38,39
 655 160 655 160 717.5 185 c 128,-1,40
 780 210 780 210 780 260 c 2,41,-1
 780 840 l 2,42,43
 780 850 780 850 778 859 c 1,35,-1
EndSplineSet
Validated: 1
EndChar

StartChar: multiply
Encoding: 215 215 196
Width: 1075
Flags: W
HStem: 425 660
VStem: 409 257<626.5 883.5>
DStem2: 336 1085 150 1014 0.707107 -0.707107<0 284.257 466.69 751.654> 150 496 336 425 0.707107 0.707107<81.3173 365.574 548.008 832.972>
LayerCount: 2
Fore
SplineSet
150 1014 m 1,0,-1
 157 1021 l 1,1,-1
 336 1085 l 1,2,-1
 537 884 l 1,3,-1
 739 1085 l 1,4,-1
 918 1021 l 1,5,-1
 925 1014 l 1,6,-1
 666 755 l 1,7,-1
 925 496 l 1,8,-1
 918 489 l 1,9,-1
 739 425 l 1,10,-1
 537 626 l 1,11,-1
 336 425 l 1,12,-1
 157 489 l 1,13,-1
 150 496 l 1,14,-1
 409 755 l 1,15,-1
 150 1014 l 1,0,-1
EndSplineSet
Validated: 3073
EndChar

StartChar: divide
Encoding: 247 247 197
Width: 1214
Flags: W
HStem: 305 245<524.097 691.903> 664 182<231 983> 965 245<524.097 691.903>
VStem: 488 240<342.129 512.871 1002.13 1172.87>
LayerCount: 2
Fore
SplineSet
488 1087.5 m 128,-1,1
 488 1138 488 1138 523 1174 c 128,-1,2
 558 1210 558 1210 608 1210 c 128,-1,3
 658 1210 658 1210 693 1174 c 128,-1,4
 728 1138 728 1138 728 1087.5 c 128,-1,5
 728 1037 728 1037 693 1001 c 128,-1,6
 658 965 658 965 608 965 c 128,-1,7
 558 965 558 965 523 1001 c 128,-1,0
 488 1037 488 1037 488 1087.5 c 128,-1,1
488 427.5 m 128,-1,9
 488 478 488 478 523 514 c 128,-1,10
 558 550 558 550 608 550 c 128,-1,11
 658 550 658 550 693 514 c 128,-1,12
 728 478 728 478 728 427.5 c 128,-1,13
 728 377 728 377 693 341 c 128,-1,14
 658 305 658 305 608 305 c 128,-1,15
 558 305 558 305 523 341 c 128,-1,8
 488 377 488 377 488 427.5 c 128,-1,9
150 664 m 1,16,-1
 150 674 l 1,17,-1
 231 846 l 1,18,-1
 1064 846 l 1,19,-1
 1064 836 l 1,20,-1
 983 664 l 1,21,-1
 150 664 l 1,16,-1
EndSplineSet
Validated: 1
EndChar

StartChar: uni1E02
Encoding: 7682 7682 198
Width: 1370
Flags: W
HStem: 0 180<400 893.838> 746 180<400 822.305> 1330 180<400 842.644> 1680 245<510.097 677.903>
VStem: 200 200<180 746 926 1330> 474 240<1717.13 1887.87> 900 200<984.035 1276.3> 990 200<254.538 668.561>
LayerCount: 2
Fore
SplineSet
400 926 m 1,0,-1
 685 926 l 2,1,2
 770 926 770 926 824 959 c 0,3,4
 900 1007 900 1007 900 1076 c 2,5,-1
 900 1180 l 2,6,7
 900 1264 900 1264 820 1297 c 128,-1,8
 740 1330 740 1330 685 1330 c 2,9,-1
 400 1330 l 1,10,-1
 400 926 l 1,0,-1
400 180 m 1,11,-1
 685 180 l 2,12,13
 785 180 785 180 869 213 c 0,14,15
 990 260 990 260 990 330 c 2,16,-1
 990 596 l 2,17,18
 990 665 990 665 869 713 c 0,19,20
 785 746 785 746 685 746 c 2,21,-1
 400 746 l 1,22,-1
 400 180 l 1,11,-1
200 0 m 1,23,-1
 200 1460 l 1,24,-1
 306 1510 l 1,25,-1
 685 1510 l 2,26,27
 812 1510 812 1510 918 1457 c 0,28,29
 1100 1364 1100 1364 1100 1180 c 2,30,-1
 1100 1076 l 2,31,32
 1100 962 1100 962 977 852 c 1,33,34
 1190 759 1190 759 1190 596 c 2,35,-1
 1190 330 l 2,36,37
 1190 148 1190 148 963 53 c 0,38,39
 836 0 836 0 685 0 c 2,40,-1
 200 0 l 1,23,-1
474 1802.5 m 128,-1,42
 474 1853 474 1853 509 1889 c 128,-1,43
 544 1925 544 1925 594 1925 c 128,-1,44
 644 1925 644 1925 679 1889 c 128,-1,45
 714 1853 714 1853 714 1802.5 c 128,-1,46
 714 1752 714 1752 679 1716 c 128,-1,47
 644 1680 644 1680 594 1680 c 128,-1,48
 544 1680 544 1680 509 1716 c 128,-1,41
 474 1752 474 1752 474 1802.5 c 128,-1,42
EndSplineSet
Validated: 1
EndChar

StartChar: uni1E03
Encoding: 7683 7683 199
Width: 1180
Flags: W
HStem: -20 180<428.659 801.341> 940 180<427.834 801.341> 1285 245<595.097 762.903> 1530 20G<347.778 400>
VStem: 200 200<196.819 906.577 1086 1460> 559 240<1322.13 1492.87> 830 200<196.429 903.181>
LayerCount: 2
Fore
SplineSet
200 225 m 2,0,-1
 200 1460 l 1,1,-1
 390 1550 l 1,2,-1
 400 1550 l 1,3,-1
 400 1086 l 1,4,5
 496 1120 496 1120 615 1120 c 0,6,7
 742 1120 742 1120 843 1081 c 0,8,9
 1030 1007 1030 1007 1030 875 c 2,10,-1
 1030 225 l 2,11,12
 1030 91 1030 91 843 19 c 0,13,14
 742 -20 742 -20 615 -20 c 128,-1,15
 488 -20 488 -20 387 19 c 0,16,17
 200 93 200 93 200 225 c 2,0,-1
400 840 m 2,18,-1
 400 260 l 2,19,20
 400 210 400 210 462.5 185 c 128,-1,21
 525 160 525 160 615 160 c 128,-1,22
 705 160 705 160 767.5 185 c 128,-1,23
 830 210 830 210 830 260 c 2,24,-1
 830 840 l 2,25,26
 830 890 830 890 767.5 915 c 128,-1,27
 705 940 705 940 615 940 c 128,-1,28
 525 940 525 940 462.5 915 c 128,-1,29
 400 890 400 890 400 840 c 2,18,-1
559 1407.5 m 128,-1,31
 559 1458 559 1458 594 1494 c 128,-1,32
 629 1530 629 1530 679 1530 c 128,-1,33
 729 1530 729 1530 764 1494 c 128,-1,34
 799 1458 799 1458 799 1407.5 c 128,-1,35
 799 1357 799 1357 764 1321 c 128,-1,36
 729 1285 729 1285 679 1285 c 128,-1,37
 629 1285 629 1285 594 1321 c 128,-1,30
 559 1357 559 1357 559 1407.5 c 128,-1,31
EndSplineSet
Validated: 1
EndChar

StartChar: uni1E0A
Encoding: 7690 7690 200
Width: 1390
Flags: W
HStem: 0 180<400 893.838> 1330 180<400 893.838> 1680 245<531.097 698.903>
VStem: 200 200<180 1330> 495 240<1717.13 1887.87> 990 200<254.196 1255.8>
LayerCount: 2
Fore
SplineSet
400 180 m 1,0,-1
 685 180 l 2,1,2
 785 180 785 180 869 213 c 0,3,4
 990 261 990 261 990 330 c 2,5,-1
 990 1180 l 2,6,7
 990 1249 990 1249 869 1297 c 0,8,9
 786 1330 786 1330 685 1330 c 2,10,-1
 400 1330 l 1,11,-1
 400 180 l 1,0,-1
200 0 m 1,12,-1
 200 1460 l 1,13,-1
 306 1510 l 1,14,-1
 685 1510 l 2,15,16
 836 1510 836 1510 963 1457 c 0,17,18
 1190 1363 1190 1363 1190 1180 c 2,19,-1
 1190 330 l 2,20,21
 1190 147 1190 147 963 53 c 0,22,23
 836 0 836 0 685 0 c 2,24,-1
 200 0 l 1,12,-1
495 1802.5 m 128,-1,26
 495 1853 495 1853 530 1889 c 128,-1,27
 565 1925 565 1925 615 1925 c 128,-1,28
 665 1925 665 1925 700 1889 c 128,-1,29
 735 1853 735 1853 735 1802.5 c 128,-1,30
 735 1752 735 1752 700 1716 c 128,-1,31
 665 1680 665 1680 615 1680 c 128,-1,32
 565 1680 565 1680 530 1716 c 128,-1,25
 495 1752 495 1752 495 1802.5 c 128,-1,26
EndSplineSet
Validated: 1
EndChar

StartChar: uni1E0B
Encoding: 7691 7691 201
Width: 1180
Flags: W
HStem: -20 180<378.659 751.341> 940 180<378.659 752.166> 1285 245<382.097 549.903> 1530 20G<927.778 980>
VStem: 150 200<196.819 903.571> 346 240<1322.13 1492.87> 780 200<196.429 906.577 1086 1460>
LayerCount: 2
Fore
SplineSet
150 225 m 2,0,1
 150 875 l 2,2,3
 150 1009 150 1009 337 1081 c 0,4,5
 438 1120 438 1120 565 1120 c 0,6,7
 684 1120 684 1120 780 1086 c 1,8,-1
 780 1460 l 1,9,-1
 970 1550 l 1,10,-1
 980 1550 l 1,11,-1
 980 225 l 2,12,13
 980 91 980 91 793 19 c 0,14,15
 692 -20 692 -20 565 -20 c 128,-1,16
 438 -20 438 -20 337 19 c 0,17,18
 150 93 150 93 150 225 c 2,0,1
350 260 m 2,19,20
 350 210 350 210 412.5 185 c 128,-1,21
 475 160 475 160 565 160 c 128,-1,22
 655 160 655 160 717.5 185 c 128,-1,23
 780 210 780 210 780 260 c 2,24,-1
 780 840 l 2,25,26
 780 890 780 890 717.5 915 c 128,-1,27
 655 940 655 940 565 940 c 128,-1,28
 475 940 475 940 412.5 915 c 128,-1,29
 350 890 350 890 350 840 c 2,30,-1
 350 260 l 2,19,20
346 1407.5 m 128,-1,32
 346 1458 346 1458 381 1494 c 128,-1,33
 416 1530 416 1530 466 1530 c 128,-1,34
 516 1530 516 1530 551 1494 c 128,-1,35
 586 1458 586 1458 586 1407.5 c 128,-1,36
 586 1357 586 1357 551 1321 c 128,-1,37
 516 1285 516 1285 466 1285 c 128,-1,38
 416 1285 416 1285 381 1321 c 128,-1,31
 346 1357 346 1357 346 1407.5 c 128,-1,32
EndSplineSet
Validated: 1
EndChar

StartChar: uni1E1E
Encoding: 7710 7710 202
Width: 1120
Flags: W
HStem: -40 21G<200 252.222> 664 182<400 859> 1328 182<400 859> 1680 245<506.097 673.903>
VStem: 200 200<50 664 846 1328> 470 240<1717.13 1887.87>
LayerCount: 2
Fore
SplineSet
470 1802.5 m 128,-1,1
 470 1853 470 1853 505 1889 c 128,-1,2
 540 1925 540 1925 590 1925 c 128,-1,3
 640 1925 640 1925 675 1889 c 128,-1,4
 710 1853 710 1853 710 1802.5 c 128,-1,5
 710 1752 710 1752 675 1716 c 128,-1,6
 640 1680 640 1680 590 1680 c 128,-1,7
 540 1680 540 1680 505 1716 c 128,-1,0
 470 1752 470 1752 470 1802.5 c 128,-1,1
200 -40 m 1,8,-1
 200 1460 l 1,9,-1
 306 1510 l 1,10,-1
 940 1510 l 1,11,-1
 940 1500 l 1,12,-1
 859 1328 l 1,13,-1
 400 1328 l 1,14,-1
 400 846 l 1,15,-1
 940 846 l 1,16,-1
 940 836 l 1,17,-1
 859 664 l 1,18,-1
 400 664 l 1,19,-1
 400 50 l 1,20,-1
 210 -40 l 1,21,-1
 200 -40 l 1,8,-1
EndSplineSet
Validated: 19457
EndChar

StartChar: uni1E1F
Encoding: 7711 7711 203
Width: 850
Flags: W
HStem: -40 21G<200 252.222> 818 182<131 200 400 650> 1350 180<429.104 670> 1680 245<376.097 543.903>
VStem: 200 200<50 818 1000 1313.57> 340 240<1717.13 1887.87>
LayerCount: 2
Fore
SplineSet
200 -40 m 1,0,-1
 200 818 l 1,1,-1
 50 818 l 1,2,-1
 50 828 l 1,3,-1
 131 1000 l 1,4,-1
 200 1000 l 1,5,-1
 200 1285 l 2,6,7
 200 1419 200 1419 387 1491 c 0,8,9
 488 1530 488 1530 615 1530 c 2,10,-1
 750 1530 l 1,11,-1
 750 1520 l 1,12,-1
 670 1350 l 1,13,-1
 615 1350 l 2,14,15
 525 1350 525 1350 462.5 1325 c 128,-1,16
 400 1300 400 1300 400 1250 c 2,17,-1
 400 1000 l 1,18,-1
 731 1000 l 1,19,-1
 731 990 l 1,20,-1
 650 818 l 1,21,-1
 400 818 l 1,22,-1
 400 50 l 1,23,-1
 210 -40 l 1,24,-1
 200 -40 l 1,0,-1
340 1802.5 m 128,-1,26
 340 1853 340 1853 375 1889 c 128,-1,27
 410 1925 410 1925 460 1925 c 128,-1,28
 510 1925 510 1925 545 1889 c 128,-1,29
 580 1853 580 1853 580 1802.5 c 128,-1,30
 580 1752 580 1752 545 1716 c 128,-1,31
 510 1680 510 1680 460 1680 c 128,-1,32
 410 1680 410 1680 375 1716 c 128,-1,25
 340 1752 340 1752 340 1802.5 c 128,-1,26
EndSplineSet
Validated: 1
EndChar

StartChar: uni1E40
Encoding: 7744 7744 204
Width: 2220
Flags: W
HStem: -40 21G<200 252.222 1010 1062.22 1820 1872.22> 1350 180<496.07 914.125 1305.88 1723.93> 1680 245<1022.1 1189.9>
VStem: 200 200<50 1275.8> 986 240<1717.13 1887.87> 1010 200<50 1276.3> 1820 200<50 1275.8>
LayerCount: 2
Fore
SplineSet
200 -40 m 1,0,-1
 200 1200 l 2,1,2
 200 1383 200 1383 427 1477 c 0,3,4
 554 1530 554 1530 705 1530 c 0,5,6
 857 1530 857 1530 983 1477 c 0,7,8
 1059 1445 1059 1445 1110 1404 c 1,9,10
 1161 1445 1161 1445 1237 1477 c 0,11,12
 1363 1530 1363 1530 1515 1530 c 0,13,14
 1666 1530 1666 1530 1793 1477 c 0,15,16
 2020 1383 2020 1383 2020 1200 c 2,17,-1
 2020 50 l 1,18,-1
 1830 -40 l 1,19,-1
 1820 -40 l 1,20,-1
 1820 1200 l 2,21,22
 1820 1269 1820 1269 1699 1317 c 0,23,24
 1615 1350 1615 1350 1515 1350 c 128,-1,25
 1415 1350 1415 1350 1331 1317 c 0,26,27
 1210 1269 1210 1269 1210 1200 c 2,28,-1
 1210 50 l 1,29,-1
 1020 -40 l 1,30,-1
 1010 -40 l 1,31,-1
 1010 1200 l 2,32,33
 1010 1269 1010 1269 889 1317 c 0,34,35
 805 1350 805 1350 705 1350 c 128,-1,36
 605 1350 605 1350 521 1317 c 0,37,38
 400 1269 400 1269 400 1200 c 2,39,-1
 400 50 l 1,40,-1
 210 -40 l 1,41,-1
 200 -40 l 1,0,-1
986 1802.5 m 128,-1,43
 986 1853 986 1853 1021 1889 c 128,-1,44
 1056 1925 1056 1925 1106 1925 c 128,-1,45
 1156 1925 1156 1925 1191 1889 c 128,-1,46
 1226 1853 1226 1853 1226 1802.5 c 128,-1,47
 1226 1752 1226 1752 1191 1716 c 128,-1,48
 1156 1680 1156 1680 1106 1680 c 128,-1,49
 1056 1680 1056 1680 1021 1716 c 128,-1,42
 986 1752 986 1752 986 1802.5 c 128,-1,43
EndSplineSet
Validated: 1
EndChar

StartChar: uni1E41
Encoding: 7745 7745 205
Width: 1760
Flags: W
HStem: -40 21G<150 202.222 780 832.222 1410 1462.22> 940 180<378.659 751.018 1008.98 1381.34> 1285 245<806.097 973.903>
VStem: 150 200<50 903.571> 770 240<1322.13 1492.87> 780 200<50 906.577> 1410 200<50 903.571>
LayerCount: 2
Fore
SplineSet
150 -40 m 1,0,-1
 150 875 l 2,1,2
 150 1009 150 1009 337 1081 c 0,3,4
 438 1120 438 1120 565 1120 c 0,5,6
 690 1120 690 1120 793 1081 c 0,7,8
 843 1062 843 1062 880 1038 c 1,9,10
 917 1062 917 1062 967 1081 c 0,11,12
 1070 1120 1070 1120 1195 1120 c 0,13,14
 1322 1120 1322 1120 1423 1081 c 0,15,16
 1610 1009 1610 1009 1610 875 c 2,17,-1
 1610 50 l 1,18,-1
 1420 -40 l 1,19,-1
 1410 -40 l 1,20,-1
 1410 840 l 2,21,22
 1410 890 1410 890 1347.5 915 c 128,-1,23
 1285 940 1285 940 1195 940 c 128,-1,24
 1105 940 1105 940 1042.5 915 c 128,-1,25
 980 890 980 890 980 840 c 2,26,-1
 980 50 l 1,27,-1
 790 -40 l 1,28,-1
 780 -40 l 1,29,-1
 780 840 l 2,30,31
 780 890 780 890 717.5 915 c 128,-1,32
 655 940 655 940 565 940 c 128,-1,33
 475 940 475 940 412.5 915 c 128,-1,34
 350 890 350 890 350 840 c 2,35,-1
 350 50 l 1,36,-1
 160 -40 l 1,37,-1
 150 -40 l 1,0,-1
770 1407.5 m 128,-1,39
 770 1458 770 1458 805 1494 c 128,-1,40
 840 1530 840 1530 890 1530 c 128,-1,41
 940 1530 940 1530 975 1494 c 128,-1,42
 1010 1458 1010 1458 1010 1407.5 c 128,-1,43
 1010 1357 1010 1357 975 1321 c 128,-1,44
 940 1285 940 1285 890 1285 c 128,-1,45
 840 1285 840 1285 805 1321 c 128,-1,38
 770 1357 770 1357 770 1407.5 c 128,-1,39
EndSplineSet
Validated: 1
EndChar

StartChar: uni1E56
Encoding: 7766 7766 206
Width: 1340
Flags: W
HStem: -40 21G<200 252.222> 510 180<400 893.838> 1330 180<400 893.838> 1680 245<531.097 698.903>
VStem: 200 200<50 510 690 1330> 495 240<1717.13 1887.87> 990 200<764.196 1255.8>
LayerCount: 2
Fore
SplineSet
200 -40 m 1,0,-1
 200 1460 l 1,1,-1
 306 1510 l 1,2,-1
 685 1510 l 2,3,4
 836 1510 836 1510 963 1457 c 0,5,6
 1190 1363 1190 1363 1190 1180 c 2,7,-1
 1190 840 l 2,8,9
 1190 657 1190 657 963 563 c 0,10,11
 836 510 836 510 685 510 c 2,12,-1
 400 510 l 1,13,-1
 400 50 l 1,14,-1
 210 -40 l 1,15,-1
 200 -40 l 1,0,-1
400 690 m 1,16,-1
 685 690 l 2,17,18
 785 690 785 690 869 723 c 0,19,20
 990 771 990 771 990 840 c 2,21,-1
 990 1180 l 2,22,23
 990 1250 990 1250 869 1297 c 0,24,25
 785 1330 785 1330 685 1330 c 2,26,-1
 400 1330 l 1,27,-1
 400 690 l 1,16,-1
495 1802.5 m 128,-1,29
 495 1853 495 1853 530 1889 c 128,-1,30
 565 1925 565 1925 615 1925 c 128,-1,31
 665 1925 665 1925 700 1889 c 128,-1,32
 735 1853 735 1853 735 1802.5 c 128,-1,33
 735 1752 735 1752 700 1716 c 128,-1,34
 665 1680 665 1680 615 1680 c 128,-1,35
 565 1680 565 1680 530 1716 c 128,-1,28
 495 1752 495 1752 495 1802.5 c 128,-1,29
EndSplineSet
Validated: 1
EndChar

StartChar: uni1E57
Encoding: 7767 7767 207
Width: 1180
Flags: W
HStem: -450 21G<200 252.222> -20 180<427.834 801.341> 940 180<428.659 801.341> 1285 245<536.097 703.903>
VStem: 200 200<-360 14 193.423 903.571> 500 240<1322.13 1492.87> 830 200<196.429 903.181>
LayerCount: 2
Fore
SplineSet
1030 875 m 2,0,1
 1030 225 l 2,2,3
 1030 91 1030 91 843 19 c 0,4,5
 742 -20 742 -20 615 -20 c 0,6,7
 496 -20 496 -20 400 14 c 1,8,-1
 400 -360 l 1,9,-1
 210 -450 l 1,10,-1
 200 -450 l 1,11,-1
 200 875 l 2,12,13
 200 1009 200 1009 387 1081 c 0,14,15
 488 1120 488 1120 615 1120 c 128,-1,16
 742 1120 742 1120 843 1081 c 0,17,18
 1030 1007 1030 1007 1030 875 c 2,0,1
830 840 m 2,19,20
 830 890 830 890 767.5 915 c 128,-1,21
 705 940 705 940 615 940 c 128,-1,22
 525 940 525 940 462.5 915 c 128,-1,23
 400 890 400 890 400 840 c 2,24,-1
 400 260 l 2,25,26
 400 210 400 210 462.5 185 c 128,-1,27
 525 160 525 160 615 160 c 128,-1,28
 705 160 705 160 767.5 185 c 128,-1,29
 830 210 830 210 830 260 c 2,30,-1
 830 840 l 2,19,20
500 1407.5 m 128,-1,32
 500 1458 500 1458 535 1494 c 128,-1,33
 570 1530 570 1530 620 1530 c 128,-1,34
 670 1530 670 1530 705 1494 c 128,-1,35
 740 1458 740 1458 740 1407.5 c 128,-1,36
 740 1357 740 1357 705 1321 c 128,-1,37
 670 1285 670 1285 620 1285 c 128,-1,38
 570 1285 570 1285 535 1321 c 128,-1,31
 500 1357 500 1357 500 1407.5 c 128,-1,32
EndSplineSet
Validated: 1
EndChar

StartChar: uni1E6A
Encoding: 7786 7786 208
Width: 1066
Flags: W
HStem: -40 21G<433 485.222> 1328 182<86 433 633 980> 1680 245<442.097 609.903>
VStem: 406 240<1717.13 1887.87> 433 200<50 1328>
LayerCount: 2
Fore
SplineSet
406 1802.5 m 128,-1,1
 406 1853 406 1853 441 1889 c 128,-1,2
 476 1925 476 1925 526 1925 c 128,-1,3
 576 1925 576 1925 611 1889 c 128,-1,4
 646 1853 646 1853 646 1802.5 c 128,-1,5
 646 1752 646 1752 611 1716 c 128,-1,6
 576 1680 576 1680 526 1680 c 128,-1,7
 476 1680 476 1680 441 1716 c 128,-1,0
 406 1752 406 1752 406 1802.5 c 128,-1,1
433 -40 m 1,8,-1
 433 1328 l 1,9,-1
 5 1328 l 1,10,-1
 5 1338 l 1,11,-1
 86 1510 l 1,12,-1
 1061 1510 l 1,13,-1
 1061 1500 l 1,14,-1
 980 1328 l 1,15,-1
 633 1328 l 1,16,-1
 633 50 l 1,17,-1
 443 -40 l 1,18,-1
 433 -40 l 1,8,-1
EndSplineSet
Validated: 19457
EndChar

StartChar: uni1E6B
Encoding: 7787 7787 209
Width: 764
Flags: W
HStem: -40 21G<282 334.222> 918 182<106 282 482 658> 1530 20G<429.778 482> 1680 245<298.097 465.903>
VStem: 262 240<1717.13 1887.87> 282 200<50 918 1100 1460>
LayerCount: 2
Fore
SplineSet
282 -40 m 1,0,-1
 282 918 l 1,1,-1
 25 918 l 1,2,-1
 25 928 l 1,3,-1
 106 1100 l 1,4,-1
 282 1100 l 1,5,-1
 282 1460 l 1,6,-1
 472 1550 l 1,7,-1
 482 1550 l 1,8,-1
 482 1100 l 1,9,-1
 739 1100 l 1,10,-1
 739 1090 l 1,11,-1
 658 918 l 1,12,-1
 482 918 l 1,13,-1
 482 50 l 1,14,-1
 292 -40 l 1,15,-1
 282 -40 l 1,0,-1
262 1802.5 m 128,-1,17
 262 1853 262 1853 297 1889 c 128,-1,18
 332 1925 332 1925 382 1925 c 128,-1,19
 432 1925 432 1925 467 1889 c 128,-1,20
 502 1853 502 1853 502 1802.5 c 128,-1,21
 502 1752 502 1752 467 1716 c 128,-1,22
 432 1680 432 1680 382 1680 c 128,-1,23
 332 1680 332 1680 297 1716 c 128,-1,16
 262 1752 262 1752 262 1802.5 c 128,-1,17
EndSplineSet
Validated: 19457
EndChar

StartChar: uni1E60
Encoding: 7776 7776 210
Width: 1330
Flags: W
HStem: -20 180<456.07 873.93> 751 180<479.104 873.838> 1350 180<478.659 851.341> 1680 245<582.097 749.903>
VStem: 160 200<234.196 460> 250 200<967.819 1313.57> 546 240<1717.13 1887.87> 880 200<1157 1313.18> 970 200<234.538 676.804>
LayerCount: 2
Fore
SplineSet
160 460 m 17,0,-1
 350 550 l 1,1,-1
 360 550 l 1,2,-1
 360 310 l 18,3,4
 360 241 360 241 481 193 c 0,5,6
 565 160 565 160 665 160 c 128,-1,7
 765 160 765 160 849 193 c 0,8,9
 970 241 970 241 970 310 c 2,10,-1
 970 601 l 2,11,12
 970 671 970 671 849 718 c 0,13,14
 765 751 765 751 665 751 c 0,15,16
 538 751 538 751 437 790 c 0,17,18
 250 864 250 864 250 996 c 2,19,-1
 250 1285 l 2,20,21
 250 1419 250 1419 437 1491 c 0,22,23
 538 1530 538 1530 665 1530 c 128,-1,24
 792 1530 792 1530 893 1491 c 0,25,26
 1080 1417 1080 1417 1080 1285 c 10,27,-1
 1080 1157 l 1,28,-1
 890 1067 l 1,29,-1
 880 1067 l 9,30,-1
 880 1250 l 18,31,32
 880 1300 880 1300 817.5 1325 c 128,-1,33
 755 1350 755 1350 665 1350 c 128,-1,34
 575 1350 575 1350 512.5 1325 c 128,-1,35
 450 1300 450 1300 450 1250 c 2,36,-1
 450 1031 l 2,37,38
 450 981 450 981 512.5 956 c 128,-1,39
 575 931 575 931 665 931 c 0,40,41
 816 931 816 931 943 878 c 0,42,43
 1170 784 1170 784 1170 601 c 2,44,-1
 1170 310 l 2,45,46
 1170 128 1170 128 943 33 c 0,47,48
 816 -20 816 -20 665 -20 c 128,-1,49
 514 -20 514 -20 387 33 c 0,50,51
 160 127 160 127 160 310 c 10,52,-1
 160 460 l 17,0,-1
546 1802.5 m 128,-1,54
 546 1853 546 1853 581 1889 c 128,-1,55
 616 1925 616 1925 666 1925 c 128,-1,56
 716 1925 716 1925 751 1889 c 128,-1,57
 786 1853 786 1853 786 1802.5 c 128,-1,58
 786 1752 786 1752 751 1716 c 128,-1,59
 716 1680 716 1680 666 1680 c 128,-1,60
 616 1680 616 1680 581 1716 c 128,-1,53
 546 1752 546 1752 546 1802.5 c 128,-1,54
EndSplineSet
Validated: 1
EndChar

StartChar: uni1E61
Encoding: 7777 7777 211
Width: 1070
Flags: W
HStem: -20 180<348.659 721.454> 516 180<404.293 719.896> 940 180<394.587 650.039> 1285 245<450.097 617.903>
VStem: 120 200<196.819 353> 162 200<721.787 913.633> 414 240<1322.13 1492.87> 750 200<196.624 479.571>
LayerCount: 2
Fore
SplineSet
120 353 m 1,0,-1
 310 443 l 1,1,-1
 320 443 l 9,2,-1
 320 260 l 18,3,4
 320 210 320 210 382.5 185 c 128,-1,5
 445 160 445 160 535 160 c 0,6,7
 628 160 628 160 688 185 c 0,8,9
 750 211 750 211 750 260 c 2,10,-1
 750 416 l 2,11,12
 750 465 750 465 686 491 c 0,13,14
 624 516 624 516 534 516 c 0,15,16
 435 516 435 516 337 555 c 0,17,18
 162 626 162 626 162 761 c 2,19,-1
 162 875 l 2,20,21
 162 1003 162 1003 328 1075 c 0,22,23
 431 1120 431 1120 535 1120 c 0,24,25
 634 1120 634 1120 706 1090 c 0,26,27
 879 1016 879 1016 879 875 c 1,28,-1
 689 785 l 1,29,-1
 679 785 l 1,30,-1
 679 840 l 2,31,32
 679 898 679 898 638 919 c 128,-1,33
 597 940 597 940 535 940 c 0,34,35
 449 940 449 940 405 915 c 0,36,37
 362 890 362 890 362 840 c 2,38,-1
 362 796 l 2,39,40
 362 746 362 746 403 721 c 128,-1,41
 444 696 444 696 534 696 c 0,42,43
 661 696 661 696 762 657 c 0,44,45
 950 585 950 585 950 451 c 2,46,-1
 950 225 l 2,47,48
 950 92 950 92 763 19 c 0,49,50
 662 -20 662 -20 535 -20 c 128,-1,51
 408 -20 408 -20 307 19 c 0,52,53
 120 93 120 93 120 225 c 10,54,-1
 120 353 l 1,0,-1
414 1407.5 m 128,-1,56
 414 1458 414 1458 449 1494 c 128,-1,57
 484 1530 484 1530 534 1530 c 128,-1,58
 584 1530 584 1530 619 1494 c 128,-1,59
 654 1458 654 1458 654 1407.5 c 128,-1,60
 654 1357 654 1357 619 1321 c 128,-1,61
 584 1285 584 1285 534 1285 c 128,-1,62
 484 1285 484 1285 449 1321 c 128,-1,55
 414 1357 414 1357 414 1407.5 c 128,-1,56
EndSplineSet
Validated: 1
EndChar

StartChar: Wgrave
Encoding: 7808 7808 212
Width: 2220
Flags: W
HStem: -20 180<496.07 914.125 1305.88 1723.93> 1530 20G<347.778 400 1157.78 1210 1967.78 2020>
VStem: 200 200<234.196 1460> 1010 200<233.704 1460> 1820 200<234.196 1460>
CounterMasks: 1 38
LayerCount: 2
Fore
SplineSet
200 1460 m 1,0,-1
 390 1550 l 1,1,-1
 400 1550 l 1,2,-1
 400 310 l 2,3,4
 400 241 400 241 521 193 c 0,5,6
 605 160 605 160 705 160 c 128,-1,7
 805 160 805 160 889 193 c 0,8,9
 1010 241 1010 241 1010 310 c 2,10,-1
 1010 1460 l 1,11,-1
 1200 1550 l 1,12,-1
 1210 1550 l 1,13,-1
 1210 310 l 2,14,15
 1210 241 1210 241 1331 193 c 0,16,17
 1415 160 1415 160 1515 160 c 128,-1,18
 1615 160 1615 160 1699 193 c 0,19,20
 1820 241 1820 241 1820 310 c 2,21,-1
 1820 1460 l 1,22,-1
 2010 1550 l 1,23,-1
 2020 1550 l 1,24,-1
 2020 310 l 2,25,26
 2020 127 2020 127 1793 33 c 0,27,28
 1666 -20 1666 -20 1515 -20 c 0,29,30
 1363 -20 1363 -20 1237 33 c 0,31,32
 1161 65 1161 65 1110 106 c 1,33,34
 1059 65 1059 65 983 33 c 0,35,36
 857 -20 857 -20 705 -20 c 0,37,38
 554 -20 554 -20 427 33 c 0,39,40
 200 127 200 127 200 310 c 2,41,-1
 200 1460 l 1,0,-1
1051 1966 m 1,42,-1
 1061 1966 l 1,43,-1
 1223 1621 l 1,44,-1
 1106 1566 l 1,45,-1
 1096 1566 l 1,46,-1
 875 1882 l 1,47,-1
 1051 1966 l 1,42,-1
EndSplineSet
Validated: 1
EndChar

StartChar: wgrave
Encoding: 7809 7809 213
Width: 1760
Flags: W
HStem: -20 180<378.659 751.018 1008.98 1381.34> 1120 20G<297.778 350 927.778 980 1557.78 1610>
VStem: 150 200<196.429 1050> 780 200<193.423 1050> 1410 200<196.429 1050>
CounterMasks: 1 38
LayerCount: 2
Fore
SplineSet
150 1050 m 1,0,-1
 340 1140 l 1,1,-1
 350 1140 l 1,2,-1
 350 260 l 2,3,4
 350 210 350 210 412.5 185 c 128,-1,5
 475 160 475 160 565 160 c 128,-1,6
 655 160 655 160 717.5 185 c 128,-1,7
 780 210 780 210 780 260 c 2,8,-1
 780 1050 l 1,9,-1
 970 1140 l 1,10,-1
 980 1140 l 1,11,-1
 980 260 l 2,12,13
 980 210 980 210 1042.5 185 c 128,-1,14
 1105 160 1105 160 1195 160 c 128,-1,15
 1285 160 1285 160 1347.5 185 c 128,-1,16
 1410 210 1410 210 1410 260 c 2,17,-1
 1410 1050 l 1,18,-1
 1600 1140 l 1,19,-1
 1610 1140 l 1,20,-1
 1610 225 l 2,21,22
 1610 91 1610 91 1423 19 c 0,23,24
 1322 -20 1322 -20 1195 -20 c 0,25,26
 1070 -20 1070 -20 967 19 c 0,27,28
 917 38 917 38 880 62 c 1,29,30
 843 38 843 38 793 19 c 0,31,32
 690 -20 690 -20 565 -20 c 0,33,34
 438 -20 438 -20 337 19 c 0,35,36
 150 91 150 91 150 225 c 2,37,-1
 150 1050 l 1,0,-1
829 1566 m 1,38,-1
 839 1566 l 1,39,-1
 1001 1221 l 1,40,-1
 884 1166 l 1,41,-1
 874 1166 l 1,42,-1
 653 1482 l 1,43,-1
 829 1566 l 1,38,-1
EndSplineSet
Validated: 1
EndChar

StartChar: Wacute
Encoding: 7810 7810 214
Width: 2220
Flags: W
HStem: -20 180<496.07 914.125 1305.88 1723.93> 1530 20G<347.778 400 1157.78 1210 1967.78 2020>
VStem: 200 200<234.196 1460> 1010 200<233.704 1460> 1820 200<234.196 1460>
CounterMasks: 1 38
LayerCount: 2
Fore
SplineSet
200 1460 m 1,0,-1
 390 1550 l 1,1,-1
 400 1550 l 1,2,-1
 400 310 l 2,3,4
 400 241 400 241 521 193 c 0,5,6
 605 160 605 160 705 160 c 128,-1,7
 805 160 805 160 889 193 c 0,8,9
 1010 241 1010 241 1010 310 c 2,10,-1
 1010 1460 l 1,11,-1
 1200 1550 l 1,12,-1
 1210 1550 l 1,13,-1
 1210 310 l 2,14,15
 1210 241 1210 241 1331 193 c 0,16,17
 1415 160 1415 160 1515 160 c 128,-1,18
 1615 160 1615 160 1699 193 c 0,19,20
 1820 241 1820 241 1820 310 c 2,21,-1
 1820 1460 l 1,22,-1
 2010 1550 l 1,23,-1
 2020 1550 l 1,24,-1
 2020 310 l 2,25,26
 2020 127 2020 127 1793 33 c 0,27,28
 1666 -20 1666 -20 1515 -20 c 0,29,30
 1363 -20 1363 -20 1237 33 c 0,31,32
 1161 65 1161 65 1110 106 c 1,33,34
 1059 65 1059 65 983 33 c 0,35,36
 857 -20 857 -20 705 -20 c 0,37,38
 554 -20 554 -20 427 33 c 0,39,40
 200 127 200 127 200 310 c 2,41,-1
 200 1460 l 1,0,-1
1153 1966 m 1,42,-1
 1163 1966 l 1,43,-1
 1339 1882 l 1,44,-1
 1118 1566 l 1,45,-1
 1108 1566 l 1,46,-1
 991 1621 l 1,47,-1
 1153 1966 l 1,42,-1
EndSplineSet
Validated: 1
EndChar

StartChar: wacute
Encoding: 7811 7811 215
Width: 1760
Flags: W
HStem: -20 180<378.659 751.018 1008.98 1381.34> 1120 20G<297.778 350 927.778 980 1557.78 1610>
VStem: 150 200<196.429 1050> 780 200<193.423 1050> 1410 200<196.429 1050>
CounterMasks: 1 38
LayerCount: 2
Fore
SplineSet
150 1050 m 1,0,-1
 340 1140 l 1,1,-1
 350 1140 l 1,2,-1
 350 260 l 2,3,4
 350 210 350 210 412.5 185 c 128,-1,5
 475 160 475 160 565 160 c 128,-1,6
 655 160 655 160 717.5 185 c 128,-1,7
 780 210 780 210 780 260 c 2,8,-1
 780 1050 l 1,9,-1
 970 1140 l 1,10,-1
 980 1140 l 1,11,-1
 980 260 l 2,12,13
 980 210 980 210 1042.5 185 c 128,-1,14
 1105 160 1105 160 1195 160 c 128,-1,15
 1285 160 1285 160 1347.5 185 c 128,-1,16
 1410 210 1410 210 1410 260 c 2,17,-1
 1410 1050 l 1,18,-1
 1600 1140 l 1,19,-1
 1610 1140 l 1,20,-1
 1610 225 l 2,21,22
 1610 91 1610 91 1423 19 c 0,23,24
 1322 -20 1322 -20 1195 -20 c 0,25,26
 1070 -20 1070 -20 967 19 c 0,27,28
 917 38 917 38 880 62 c 1,29,30
 843 38 843 38 793 19 c 0,31,32
 690 -20 690 -20 565 -20 c 0,33,34
 438 -20 438 -20 337 19 c 0,35,36
 150 91 150 91 150 225 c 2,37,-1
 150 1050 l 1,0,-1
917 1566 m 1,38,-1
 927 1566 l 1,39,-1
 1103 1482 l 1,40,-1
 882 1166 l 1,41,-1
 872 1166 l 1,42,-1
 755 1221 l 1,43,-1
 917 1566 l 1,38,-1
EndSplineSet
Validated: 1
EndChar

StartChar: Wdieresis
Encoding: 7812 7812 216
Width: 2220
Flags: W
HStem: -20 180<496.07 914.125 1305.88 1723.93> 1530 20G<347.778 400 1157.78 1210 1967.78 2020> 1680 245<864.097 1031.9 1164.1 1331.9>
VStem: 200 200<234.196 1460> 828 240<1717.13 1887.87> 1010 200<233.704 1460> 1128 240<1717.13 1887.87> 1820 200<234.196 1460>
LayerCount: 2
Fore
SplineSet
200 1460 m 1,0,-1
 390 1550 l 1,1,-1
 400 1550 l 1,2,-1
 400 310 l 2,3,4
 400 241 400 241 521 193 c 0,5,6
 605 160 605 160 705 160 c 128,-1,7
 805 160 805 160 889 193 c 0,8,9
 1010 241 1010 241 1010 310 c 2,10,-1
 1010 1460 l 1,11,-1
 1200 1550 l 1,12,-1
 1210 1550 l 1,13,-1
 1210 310 l 2,14,15
 1210 241 1210 241 1331 193 c 0,16,17
 1415 160 1415 160 1515 160 c 128,-1,18
 1615 160 1615 160 1699 193 c 0,19,20
 1820 241 1820 241 1820 310 c 2,21,-1
 1820 1460 l 1,22,-1
 2010 1550 l 1,23,-1
 2020 1550 l 1,24,-1
 2020 310 l 2,25,26
 2020 127 2020 127 1793 33 c 0,27,28
 1666 -20 1666 -20 1515 -20 c 0,29,30
 1363 -20 1363 -20 1237 33 c 0,31,32
 1161 65 1161 65 1110 106 c 1,33,34
 1059 65 1059 65 983 33 c 0,35,36
 857 -20 857 -20 705 -20 c 0,37,38
 554 -20 554 -20 427 33 c 0,39,40
 200 127 200 127 200 310 c 2,41,-1
 200 1460 l 1,0,-1
1128 1802.5 m 128,-1,43
 1128 1853 1128 1853 1163 1889 c 128,-1,44
 1198 1925 1198 1925 1248 1925 c 128,-1,45
 1298 1925 1298 1925 1333 1889 c 128,-1,46
 1368 1853 1368 1853 1368 1802.5 c 128,-1,47
 1368 1752 1368 1752 1333 1716 c 128,-1,48
 1298 1680 1298 1680 1248 1680 c 128,-1,49
 1198 1680 1198 1680 1163 1716 c 128,-1,42
 1128 1752 1128 1752 1128 1802.5 c 128,-1,43
828 1802.5 m 128,-1,51
 828 1853 828 1853 863 1889 c 128,-1,52
 898 1925 898 1925 948 1925 c 128,-1,53
 998 1925 998 1925 1033 1889 c 128,-1,54
 1068 1853 1068 1853 1068 1802.5 c 128,-1,55
 1068 1752 1068 1752 1033 1716 c 128,-1,56
 998 1680 998 1680 948 1680 c 128,-1,57
 898 1680 898 1680 863 1716 c 128,-1,50
 828 1752 828 1752 828 1802.5 c 128,-1,51
EndSplineSet
Validated: 1
EndChar

StartChar: wdieresis
Encoding: 7813 7813 217
Width: 1760
Flags: W
HStem: -20 180<378.659 751.018 1008.98 1381.34> 1120 20G<297.778 350 927.778 980 1557.78 1610> 1285 245<638.097 805.903 938.097 1105.9>
VStem: 150 200<196.429 1050> 602 240<1322.13 1492.87> 780 200<193.423 1050> 902 240<1322.13 1492.87> 1410 200<196.429 1050>
LayerCount: 2
Fore
SplineSet
150 1050 m 1,0,-1
 340 1140 l 1,1,-1
 350 1140 l 1,2,-1
 350 260 l 2,3,4
 350 210 350 210 412.5 185 c 128,-1,5
 475 160 475 160 565 160 c 128,-1,6
 655 160 655 160 717.5 185 c 128,-1,7
 780 210 780 210 780 260 c 2,8,-1
 780 1050 l 1,9,-1
 970 1140 l 1,10,-1
 980 1140 l 1,11,-1
 980 260 l 2,12,13
 980 210 980 210 1042.5 185 c 128,-1,14
 1105 160 1105 160 1195 160 c 128,-1,15
 1285 160 1285 160 1347.5 185 c 128,-1,16
 1410 210 1410 210 1410 260 c 2,17,-1
 1410 1050 l 1,18,-1
 1600 1140 l 1,19,-1
 1610 1140 l 1,20,-1
 1610 225 l 2,21,22
 1610 91 1610 91 1423 19 c 0,23,24
 1322 -20 1322 -20 1195 -20 c 0,25,26
 1070 -20 1070 -20 967 19 c 0,27,28
 917 38 917 38 880 62 c 1,29,30
 843 38 843 38 793 19 c 0,31,32
 690 -20 690 -20 565 -20 c 0,33,34
 438 -20 438 -20 337 19 c 0,35,36
 150 91 150 91 150 225 c 2,37,-1
 150 1050 l 1,0,-1
902 1407.5 m 128,-1,39
 902 1458 902 1458 937 1494 c 128,-1,40
 972 1530 972 1530 1022 1530 c 128,-1,41
 1072 1530 1072 1530 1107 1494 c 128,-1,42
 1142 1458 1142 1458 1142 1407.5 c 128,-1,43
 1142 1357 1142 1357 1107 1321 c 128,-1,44
 1072 1285 1072 1285 1022 1285 c 128,-1,45
 972 1285 972 1285 937 1321 c 128,-1,38
 902 1357 902 1357 902 1407.5 c 128,-1,39
602 1407.5 m 128,-1,47
 602 1458 602 1458 637 1494 c 128,-1,48
 672 1530 672 1530 722 1530 c 128,-1,49
 772 1530 772 1530 807 1494 c 128,-1,50
 842 1458 842 1458 842 1407.5 c 128,-1,51
 842 1357 842 1357 807 1321 c 128,-1,52
 772 1285 772 1285 722 1285 c 128,-1,53
 672 1285 672 1285 637 1321 c 128,-1,46
 602 1357 602 1357 602 1407.5 c 128,-1,47
EndSplineSet
Validated: 1
EndChar

StartChar: Ygrave
Encoding: 7922 7922 218
Width: 1310
Flags: W
HStem: -40 21G<555 607.222> 482 174<445.979 555 755 864.021> 1530 20G<297.778 350 1107.78 1160>
VStem: 150 200<729.854 1460> 555 200<50 488.888> 960 200<730.538 1460>
CounterMasks: 1 1c
LayerCount: 2
Fore
SplineSet
555 -40 m 1,0,-1
 555 482 l 1,1,2
 462 494 462 494 377 529 c 0,3,4
 150 622 150 622 150 806 c 2,5,-1
 150 1460 l 1,6,-1
 340 1550 l 1,7,-1
 350 1550 l 1,8,-1
 350 806 l 2,9,10
 350 737 350 737 471 689 c 0,11,12
 555 656 555 656 655 656 c 128,-1,13
 755 656 755 656 839 689 c 0,14,15
 960 737 960 737 960 806 c 2,16,-1
 960 1460 l 1,17,-1
 1150 1550 l 1,18,-1
 1160 1550 l 1,19,-1
 1160 806 l 2,20,21
 1160 624 1160 624 933 529 c 0,22,23
 849 494 849 494 755 482 c 1,24,-1
 755 50 l 1,25,-1
 565 -40 l 1,26,-1
 555 -40 l 1,0,-1
596 1966 m 1,27,-1
 606 1966 l 1,28,-1
 768 1621 l 1,29,-1
 651 1566 l 1,30,-1
 641 1566 l 1,31,-1
 420 1882 l 1,32,-1
 596 1966 l 1,27,-1
EndSplineSet
Validated: 1
EndChar

StartChar: ygrave
Encoding: 7923 7923 219
Width: 1180
Flags: W
HStem: -430 180<334 750.896> -20 180<378.659 752.166> 1120 20G<297.778 350 927.778 980>
VStem: 150 200<196.429 1050> 780 200<-213.571 14 193.423 1050>
LayerCount: 2
Fore
SplineSet
150 1050 m 1,0,-1
 340 1140 l 1,1,-1
 350 1140 l 1,2,-1
 350 260 l 2,3,4
 350 210 350 210 412.5 185 c 128,-1,5
 475 160 475 160 565 160 c 128,-1,6
 655 160 655 160 717.5 185 c 128,-1,7
 780 210 780 210 780 260 c 2,8,-1
 780 1050 l 1,9,-1
 970 1140 l 1,10,-1
 980 1140 l 1,11,-1
 980 -185 l 2,12,13
 980 -319 980 -319 793 -391 c 0,14,15
 692 -430 692 -430 565 -430 c 2,16,-1
 254 -430 l 1,17,-1
 254 -420 l 1,18,-1
 334 -250 l 1,19,-1
 565 -250 l 2,20,21
 655 -250 655 -250 717.5 -225 c 128,-1,22
 780 -200 780 -200 780 -150 c 2,23,-1
 780 14 l 1,24,25
 684 -20 684 -20 565 -20 c 0,26,27
 438 -20 438 -20 337 19 c 0,28,29
 150 91 150 91 150 225 c 2,30,-1
 150 1050 l 1,0,-1
473 1566 m 1,31,-1
 483 1566 l 1,32,-1
 645 1221 l 1,33,-1
 528 1166 l 1,34,-1
 518 1166 l 1,35,-1
 297 1482 l 1,36,-1
 473 1566 l 1,31,-1
EndSplineSet
Validated: 1
EndChar

StartChar: Agrave
Encoding: 192 192 220
Width: 1410
Flags: W
HStem: -40 21G<200 252.222 1010 1062.22> 664 182<400 1010> 1350 180<496.07 913.93>
VStem: 200 200<50 664 846 1275.8> 1010 200<50 664 846 1275.8>
LayerCount: 2
Fore
SplineSet
200 -40 m 1,0,-1
 200 1200 l 2,1,2
 200 1383 200 1383 427 1477 c 0,3,4
 554 1530 554 1530 705 1530 c 128,-1,5
 856 1530 856 1530 983 1477 c 0,6,7
 1210 1383 1210 1383 1210 1200 c 2,8,9
 1210 50 l 1,10,-1
 1020 -40 l 1,11,-1
 1010 -40 l 1,12,-1
 1010 664 l 1,13,-1
 400 664 l 1,14,-1
 400 50 l 1,15,-1
 210 -40 l 1,16,-1
 200 -40 l 1,0,-1
400 846 m 1,17,-1
 1010 846 l 1,18,-1
 1010 1200 l 2,19,20
 1010 1269 1010 1269 889 1317 c 0,21,22
 805 1350 805 1350 705 1350 c 128,-1,23
 605 1350 605 1350 521 1317 c 0,24,25
 400 1269 400 1269 400 1200 c 2,26,-1
 400 846 l 1,17,-1
596 1966 m 1,27,-1
 606 1966 l 1,28,-1
 768 1621 l 1,29,-1
 651 1566 l 1,30,-1
 641 1566 l 1,31,-1
 420 1882 l 1,32,-1
 596 1966 l 1,27,-1
EndSplineSet
Validated: 1
EndChar

StartChar: Aacute
Encoding: 193 193 221
Width: 1410
Flags: W
HStem: -40 21G<200 252.222 1010 1062.22> 664 182<400 1010> 1350 180<496.07 913.93>
VStem: 200 200<50 664 846 1275.8> 1010 200<50 664 846 1275.8>
LayerCount: 2
Fore
SplineSet
200 -40 m 1,0,-1
 200 1200 l 2,1,2
 200 1383 200 1383 427 1477 c 0,3,4
 554 1530 554 1530 705 1530 c 128,-1,5
 856 1530 856 1530 983 1477 c 0,6,7
 1210 1383 1210 1383 1210 1200 c 2,8,9
 1210 50 l 1,10,-1
 1020 -40 l 1,11,-1
 1010 -40 l 1,12,-1
 1010 664 l 1,13,-1
 400 664 l 1,14,-1
 400 50 l 1,15,-1
 210 -40 l 1,16,-1
 200 -40 l 1,0,-1
400 846 m 1,17,-1
 1010 846 l 1,18,-1
 1010 1200 l 2,19,20
 1010 1269 1010 1269 889 1317 c 0,21,22
 805 1350 805 1350 705 1350 c 128,-1,23
 605 1350 605 1350 521 1317 c 0,24,25
 400 1269 400 1269 400 1200 c 2,26,-1
 400 846 l 1,17,-1
817 1966 m 1,27,-1
 827 1966 l 1,28,-1
 1003 1882 l 1,29,-1
 782 1566 l 1,30,-1
 772 1566 l 1,31,-1
 655 1621 l 1,32,-1
 817 1966 l 1,27,-1
EndSplineSet
Validated: 1
EndChar

StartChar: Acircumflex
Encoding: 194 194 222
Width: 1410
Flags: W
HStem: -40 21G<200 252.222 1010 1062.22> 664 182<400 1010> 1350 180<496.07 913.93>
VStem: 200 200<50 664 846 1275.8> 1010 200<50 664 846 1275.8>
LayerCount: 2
Fore
SplineSet
200 -40 m 1,0,-1
 200 1200 l 2,1,2
 200 1383 200 1383 427 1477 c 0,3,4
 554 1530 554 1530 705 1530 c 128,-1,5
 856 1530 856 1530 983 1477 c 0,6,7
 1210 1383 1210 1383 1210 1200 c 2,8,9
 1210 50 l 1,10,-1
 1020 -40 l 1,11,-1
 1010 -40 l 1,12,-1
 1010 664 l 1,13,-1
 400 664 l 1,14,-1
 400 50 l 1,15,-1
 210 -40 l 1,16,-1
 200 -40 l 1,0,-1
400 846 m 1,17,-1
 1010 846 l 1,18,-1
 1010 1200 l 2,19,20
 1010 1269 1010 1269 889 1317 c 0,21,22
 805 1350 805 1350 705 1350 c 128,-1,23
 605 1350 605 1350 521 1317 c 0,24,25
 400 1269 400 1269 400 1200 c 2,26,-1
 400 846 l 1,17,-1
434 1621 m 1,27,-1
 587 1882 l 1,28,-1
 763 1966 l 1,29,-1
 773 1966 l 1,30,-1
 986 1621 l 1,31,-1
 870 1566 l 1,32,-1
 860 1566 l 1,33,-1
 710 1774 l 1,34,-1
 562 1566 l 1,35,-1
 552 1566 l 1,36,-1
 434 1621 l 1,27,-1
EndSplineSet
Validated: 1
EndChar

StartChar: Atilde
Encoding: 195 195 223
Width: 1410
Flags: W
HStem: -40 21G<200 252.222 1010 1062.22> 664 182<400 1010> 1350 180<496.07 913.93> 1638 167<753.775 855.272> 1757 167<589.728 691.225>
VStem: 200 200<50 664 846 1275.8> 471 116<1685 1756.35> 858 116<1805.65 1877> 1010 200<50 664 846 1275.8>
LayerCount: 2
Fore
SplineSet
200 -40 m 1,0,-1
 200 1200 l 2,1,2
 200 1383 200 1383 427 1477 c 0,3,4
 554 1530 554 1530 705 1530 c 128,-1,5
 856 1530 856 1530 983 1477 c 0,6,7
 1210 1383 1210 1383 1210 1200 c 2,8,9
 1210 50 l 1,10,-1
 1020 -40 l 1,11,-1
 1010 -40 l 1,12,-1
 1010 664 l 1,13,-1
 400 664 l 1,14,-1
 400 50 l 1,15,-1
 210 -40 l 1,16,-1
 200 -40 l 1,0,-1
400 846 m 1,17,-1
 1010 846 l 1,18,-1
 1010 1200 l 2,19,20
 1010 1269 1010 1269 889 1317 c 0,21,22
 805 1350 805 1350 705 1350 c 128,-1,23
 605 1350 605 1350 521 1317 c 0,24,25
 400 1269 400 1269 400 1200 c 2,26,-1
 400 846 l 1,17,-1
471 1638 m 1,27,28
 471 1924 471 1924 612 1924 c 0,29,30
 676 1924 676 1924 749 1854 c 0,31,32
 800 1805 800 1805 824 1805 c 0,33,34
 858 1805 858 1805 858 1877 c 1,35,-1
 968 1924 l 1,36,-1
 974 1924 l 1,37,38
 974 1638 974 1638 833 1638 c 0,39,40
 769 1638 769 1638 696 1708 c 0,41,42
 645 1757 645 1757 621 1757 c 0,43,44
 587 1757 587 1757 587 1685 c 1,45,-1
 477 1638 l 1,46,-1
 471 1638 l 1,27,28
EndSplineSet
Validated: 1
EndChar

StartChar: Adieresis
Encoding: 196 196 224
Width: 1410
Flags: W
HStem: -40 21G<200 252.222 1010 1062.22> 664 182<400 1010> 1350 180<496.07 913.93> 1680 245<478.097 645.903 778.097 945.903>
VStem: 200 200<50 664 846 1275.8> 442 240<1717.13 1887.87> 742 240<1717.13 1887.87> 1010 200<50 664 846 1275.8>
LayerCount: 2
Fore
SplineSet
200 -40 m 1,0,-1
 200 1200 l 2,1,2
 200 1383 200 1383 427 1477 c 0,3,4
 554 1530 554 1530 705 1530 c 128,-1,5
 856 1530 856 1530 983 1477 c 0,6,7
 1210 1383 1210 1383 1210 1200 c 2,8,9
 1210 50 l 1,10,-1
 1020 -40 l 1,11,-1
 1010 -40 l 1,12,-1
 1010 664 l 1,13,-1
 400 664 l 1,14,-1
 400 50 l 1,15,-1
 210 -40 l 1,16,-1
 200 -40 l 1,0,-1
400 846 m 1,17,-1
 1010 846 l 1,18,-1
 1010 1200 l 2,19,20
 1010 1269 1010 1269 889 1317 c 0,21,22
 805 1350 805 1350 705 1350 c 128,-1,23
 605 1350 605 1350 521 1317 c 0,24,25
 400 1269 400 1269 400 1200 c 2,26,-1
 400 846 l 1,17,-1
742 1802.5 m 128,-1,28
 742 1853 742 1853 777 1889 c 128,-1,29
 812 1925 812 1925 862 1925 c 128,-1,30
 912 1925 912 1925 947 1889 c 128,-1,31
 982 1853 982 1853 982 1802.5 c 128,-1,32
 982 1752 982 1752 947 1716 c 128,-1,33
 912 1680 912 1680 862 1680 c 128,-1,34
 812 1680 812 1680 777 1716 c 128,-1,27
 742 1752 742 1752 742 1802.5 c 128,-1,28
442 1802.5 m 128,-1,36
 442 1853 442 1853 477 1889 c 128,-1,37
 512 1925 512 1925 562 1925 c 128,-1,38
 612 1925 612 1925 647 1889 c 128,-1,39
 682 1853 682 1853 682 1802.5 c 128,-1,40
 682 1752 682 1752 647 1716 c 128,-1,41
 612 1680 612 1680 562 1680 c 128,-1,42
 512 1680 512 1680 477 1716 c 128,-1,35
 442 1752 442 1752 442 1802.5 c 128,-1,36
EndSplineSet
Validated: 1
EndChar

StartChar: Aring
Encoding: 197 197 225
Width: 1410
Flags: W
HStem: -40 21G<200 252.222 1010 1062.22> 664 182<400 1010> 1350 180<496.07 913.93> 1588 104<645.161 763.263> 1862 104<645.215 762.294>
VStem: 200 200<50 664 846 1275.8> 508 123<1704.96 1848.01> 777 125<1705.96 1849.51> 1010 200<50 664 846 1275.8>
LayerCount: 2
Fore
SplineSet
200 -40 m 1,0,-1
 200 1200 l 2,1,2
 200 1383 200 1383 427 1477 c 0,3,4
 554 1530 554 1530 705 1530 c 128,-1,5
 856 1530 856 1530 983 1477 c 0,6,7
 1210 1383 1210 1383 1210 1200 c 2,8,9
 1210 50 l 1,10,-1
 1020 -40 l 1,11,-1
 1010 -40 l 1,12,-1
 1010 664 l 1,13,-1
 400 664 l 1,14,-1
 400 50 l 1,15,-1
 210 -40 l 1,16,-1
 200 -40 l 1,0,-1
400 846 m 1,17,-1
 1010 846 l 1,18,-1
 1010 1200 l 2,19,20
 1010 1269 1010 1269 889 1317 c 0,21,22
 805 1350 805 1350 705 1350 c 128,-1,23
 605 1350 605 1350 521 1317 c 0,24,25
 400 1269 400 1269 400 1200 c 2,26,-1
 400 846 l 1,17,-1
705 1588 m 128,-1,28
 625 1588 625 1588 570 1637 c 0,29,30
 508 1692 508 1692 508 1777 c 0,31,32
 508 1860 508 1860 570 1917 c 0,33,34
 623 1966 623 1966 705 1966 c 0,35,36
 785 1966 785 1966 840 1917 c 0,37,38
 902 1862 902 1862 902 1777 c 128,-1,39
 902 1692 902 1692 840 1637 c 0,40,27
 785 1588 785 1588 705 1588 c 128,-1,28
705 1862 m 0,41,42
 671 1862 671 1862 651 1841 c 128,-1,43
 631 1820 631 1820 631 1777 c 0,44,45
 631 1731 631 1731 652 1712 c 0,46,47
 674 1692 674 1692 704 1692 c 0,48,49
 735 1692 735 1692 757 1714 c 0,50,51
 777 1733 777 1733 777 1777 c 0,52,53
 777 1822 777 1822 755 1843 c 0,54,55
 735 1862 735 1862 705 1862 c 0,41,42
EndSplineSet
Validated: 1
EndChar

StartChar: AE
Encoding: 198 198 226
Width: 1967
Flags: W
HStem: -40 21G<200 252.222> 0 182<1210 1836> 664 182<400 1010 1210 1669> 1328 182<1210 1669> 1350 180<496.07 914.01>
VStem: 200 200<50 664 846 1275.8> 1010 200<182 664 846 1276.3>
LayerCount: 2
Fore
SplineSet
200 -40 m 1,0,-1
 200 1200 l 2,1,2
 200 1383 200 1383 427 1477 c 0,3,4
 554 1530 554 1530 705 1530 c 0,5,6
 868 1530 868 1530 982 1473 c 0,7,8
 996 1466 996 1466 1010 1460 c 1,9,-1
 1116 1510 l 1,10,-1
 1750 1510 l 1,11,-1
 1750 1500 l 1,12,-1
 1669 1328 l 1,13,-1
 1210 1328 l 1,14,-1
 1210 846 l 1,15,-1
 1750 846 l 1,16,-1
 1750 836 l 1,17,-1
 1669 664 l 1,18,-1
 1210 664 l 1,19,-1
 1210 182 l 1,20,-1
 1917 182 l 1,21,-1
 1917 172 l 1,22,-1
 1836 0 l 1,23,-1
 1010 0 l 1,24,-1
 1010 664 l 1,25,-1
 400 664 l 1,26,-1
 400 50 l 1,27,-1
 210 -40 l 1,28,-1
 200 -40 l 1,0,-1
400 846 m 1,29,-1
 1010 846 l 1,30,-1
 1010 1200 l 2,31,32
 1010 1269 1010 1269 889 1317 c 0,33,34
 805 1350 805 1350 705 1350 c 128,-1,35
 605 1350 605 1350 521 1317 c 0,36,37
 400 1269 400 1269 400 1200 c 2,38,-1
 400 846 l 1,29,-1
EndSplineSet
Validated: 1
EndChar

StartChar: Amacron
Encoding: 256 256 227
Width: 1410
Flags: W
HStem: -40 21G<200 252.222 1010 1062.22> 664 182<400 1010> 1350 180<496.07 913.93> 1638 182<548 925>
VStem: 200 200<50 664 846 1275.8> 1010 200<50 664 846 1275.8>
LayerCount: 2
Fore
SplineSet
200 -40 m 1,0,-1
 200 1200 l 2,1,2
 200 1383 200 1383 427 1477 c 0,3,4
 554 1530 554 1530 705 1530 c 128,-1,5
 856 1530 856 1530 983 1477 c 0,6,7
 1210 1383 1210 1383 1210 1200 c 2,8,9
 1210 50 l 1,10,-1
 1020 -40 l 1,11,-1
 1010 -40 l 1,12,-1
 1010 664 l 1,13,-1
 400 664 l 1,14,-1
 400 50 l 1,15,-1
 210 -40 l 1,16,-1
 200 -40 l 1,0,-1
400 846 m 1,17,-1
 1010 846 l 1,18,-1
 1010 1200 l 2,19,20
 1010 1269 1010 1269 889 1317 c 0,21,22
 805 1350 805 1350 705 1350 c 128,-1,23
 605 1350 605 1350 521 1317 c 0,24,25
 400 1269 400 1269 400 1200 c 2,26,-1
 400 846 l 1,17,-1
467 1638 m 1,27,-1
 467 1648 l 1,28,-1
 548 1820 l 1,29,-1
 1006 1820 l 1,30,-1
 1006 1810 l 1,31,-1
 925 1638 l 1,32,-1
 467 1638 l 1,27,-1
EndSplineSet
Validated: 1
EndChar

StartChar: Abreve
Encoding: 258 258 228
Width: 1410
Flags: W
HStem: -40 21G<200 252.222 1010 1062.22> 664 182<400 1010> 1350 180<496.07 913.93> 1638 175<608.656 818.399>
VStem: 200 200<50 664 846 1275.8> 1010 200<50 664 846 1275.8>
LayerCount: 2
Fore
SplineSet
200 -40 m 1,0,-1
 200 1200 l 2,1,2
 200 1383 200 1383 427 1477 c 0,3,4
 554 1530 554 1530 705 1530 c 128,-1,5
 856 1530 856 1530 983 1477 c 0,6,7
 1210 1383 1210 1383 1210 1200 c 2,8,9
 1210 50 l 1,10,-1
 1020 -40 l 1,11,-1
 1010 -40 l 1,12,-1
 1010 664 l 1,13,-1
 400 664 l 1,14,-1
 400 50 l 1,15,-1
 210 -40 l 1,16,-1
 200 -40 l 1,0,-1
400 846 m 1,17,-1
 1010 846 l 1,18,-1
 1010 1200 l 2,19,20
 1010 1269 1010 1269 889 1317 c 0,21,22
 805 1350 805 1350 705 1350 c 128,-1,23
 605 1350 605 1350 521 1317 c 0,24,25
 400 1269 400 1269 400 1200 c 2,26,-1
 400 846 l 1,17,-1
468 1788 m 1,27,-1
 468 1798 l 1,28,-1
 542 1947 l 1,29,30
 614 1813 614 1813 714 1813 c 128,-1,31
 814 1813 814 1813 886 1947 c 1,32,-1
 962 1798 l 1,33,-1
 962 1788 l 1,34,35
 860 1638 860 1638 712 1638 c 0,36,37
 558 1638 558 1638 468 1788 c 1,27,-1
EndSplineSet
Validated: 1
EndChar

StartChar: Aogonek
Encoding: 260 260 229
Width: 1410
Flags: W
HStem: -450 21G<875.5 982.222> -40 21G<200 252.222> 664 182<400 1010> 1350 180<496.07 913.93>
VStem: 200 200<50 664 846 1275.8> 821 175<-280.616 -54.0942> 1010 200<51.25 664 846 1275.8>
LayerCount: 2
Fore
SplineSet
400 846 m 1,0,-1
 1010 846 l 1,1,-1
 1010 1200 l 2,2,3
 1010 1269 1010 1269 889 1317 c 0,4,5
 805 1350 805 1350 705 1350 c 128,-1,6
 605 1350 605 1350 521 1317 c 0,7,8
 400 1269 400 1269 400 1200 c 2,9,-1
 400 846 l 1,0,-1
200 -40 m 1,10,-1
 200 1200 l 2,11,12
 200 1383 200 1383 427 1477 c 0,13,14
 554 1530 554 1530 705 1530 c 128,-1,15
 856 1530 856 1530 983 1477 c 0,16,17
 1210 1383 1210 1383 1210 1200 c 2,18,-1
 1210 50 l 1,19,-1
 1031 -35 l 1,20,21
 996 -95 996 -95 996 -152 c 0,22,23
 996 -273 996 -273 1130 -360 c 1,24,-1
 940 -450 l 1,25,-1
 930 -450 l 1,26,27
 821 -343 821 -343 821 -206 c 0,28,29
 821 -38 821 -38 1010 82 c 1,30,-1
 1010 664 l 1,31,-1
 400 664 l 1,32,-1
 400 50 l 1,33,-1
 210 -40 l 1,34,-1
 200 -40 l 1,10,-1
EndSplineSet
Validated: 1
EndChar

